G04 #@! TF.FileFunction,Copper,L2,Bot,Signal*
%FSLAX46Y46*%
G04 Gerber Fmt 4.6, Leading zero omitted, Abs format (unit mm)*
G04 Created by KiCad (PCBNEW 0.201502111101+5414~21~ubuntu14.04.1-product) date Fri 13 Feb 2015 01:12:51 AM CST*
%MOMM*%
G01*
G04 APERTURE LIST*
%ADD10C,0.100000*%
%ADD11C,8.255000*%
%ADD12O,2.499360X1.501140*%
%ADD13C,2.413000*%
%ADD14R,2.300000X2.300000*%
%ADD15C,2.300000*%
%ADD16R,2.200000X2.200000*%
%ADD17C,2.200000*%
%ADD18C,1.143000*%
%ADD19C,0.508000*%
%ADD20C,0.635000*%
%ADD21C,0.762000*%
%ADD22C,0.508000*%
%ADD23C,1.270000*%
%ADD24C,0.254000*%
G04 APERTURE END LIST*
D10*
X34686666Y-139700000D02*
G75*
G03X34686666Y-139700000I-1666666J0D01*
G01*
X30520000Y-139700000D02*
X35520000Y-139700000D01*
X33020000Y-137200000D02*
X33020000Y-142200000D01*
X121500000Y-134500000D02*
X50000000Y-134500000D01*
X134500000Y-50000000D02*
X134500000Y-121500000D01*
X50000000Y-37000000D02*
X121500000Y-37000000D01*
X37000000Y-121500000D02*
X37000000Y-50000000D01*
X121500000Y-134500000D02*
G75*
G03X134500000Y-121500000I0J13000000D01*
G01*
X134500000Y-50000000D02*
G75*
G03X121500000Y-37000000I-13000000J0D01*
G01*
X50000000Y-37000000D02*
G75*
G03X37000000Y-50000000I0J-13000000D01*
G01*
X37000000Y-121500000D02*
G75*
G03X50000000Y-134500000I13000000J0D01*
G01*
D11*
X50000000Y-50000000D03*
D12*
X66750000Y-74740000D03*
X66750000Y-72200000D03*
X66750000Y-77280000D03*
X66750000Y-112840000D03*
X66750000Y-110300000D03*
X66750000Y-115380000D03*
X104850000Y-74740000D03*
X104850000Y-77280000D03*
X104850000Y-72200000D03*
X104850000Y-112840000D03*
X104850000Y-115380000D03*
X104850000Y-110300000D03*
D11*
X50000000Y-121500000D03*
X121500000Y-50000000D03*
X121500000Y-121500000D03*
D13*
X75710000Y-42500000D03*
X80790000Y-42500000D03*
X95790000Y-42500000D03*
X90710000Y-42500000D03*
X85750400Y-83630000D03*
X85750400Y-78550000D03*
X85750400Y-101410000D03*
X85750400Y-96330000D03*
D12*
X66750000Y-87440000D03*
X66750000Y-84900000D03*
X66750000Y-89980000D03*
X66750000Y-100140000D03*
X66750000Y-97600000D03*
X66750000Y-102680000D03*
X104850000Y-87440000D03*
X104850000Y-89980000D03*
X104850000Y-84900000D03*
X104850000Y-100140000D03*
X104850000Y-102680000D03*
X104850000Y-97600000D03*
D14*
X73660000Y-124460000D03*
D15*
X77160000Y-124460000D03*
X80660000Y-124460000D03*
X84160000Y-124460000D03*
X87660000Y-124460000D03*
X91160000Y-124460000D03*
X94660000Y-124460000D03*
X98160000Y-124460000D03*
D16*
X67818000Y-62230000D03*
D17*
X67818000Y-54610000D03*
D16*
X85704000Y-59690000D03*
D17*
X85704000Y-67310000D03*
D16*
X103886000Y-62230000D03*
D17*
X103886000Y-54610000D03*
D18*
X63500000Y-67310000D03*
X63500000Y-69850000D03*
X63500000Y-72390000D03*
X66675000Y-69850000D03*
X66675000Y-67310000D03*
X69850000Y-67310000D03*
X69850000Y-69850000D03*
X69850000Y-72390000D03*
X107950000Y-69215000D03*
X104775000Y-69215000D03*
X101600000Y-69215000D03*
X101600000Y-66675000D03*
X104775000Y-66675000D03*
X107950000Y-66675000D03*
X107950000Y-64135000D03*
X101600000Y-64135000D03*
D19*
X92964000Y-118745000D03*
D20*
X129413000Y-84201000D03*
X41910000Y-89916000D03*
D19*
X47498000Y-78232000D03*
D20*
X48133000Y-86487000D03*
X50165000Y-95631000D03*
X49022000Y-88392000D03*
X49022000Y-95631000D03*
D21*
X66750000Y-89980000D02*
X68761680Y-89980000D01*
X68761680Y-89980000D02*
X69850000Y-88891680D01*
X69850000Y-88891680D02*
X69850000Y-73198223D01*
X69850000Y-73198223D02*
X69850000Y-72390000D01*
D22*
X63500000Y-72390000D02*
X63500000Y-69850000D01*
X66675000Y-67310000D02*
X66675000Y-69850000D01*
X69850000Y-69850000D02*
X69850000Y-67310000D01*
X66750000Y-72200000D02*
X69660000Y-72200000D01*
X69660000Y-72200000D02*
X69850000Y-72390000D01*
D23*
X107950000Y-74960720D02*
X107950000Y-69850000D01*
X105630720Y-77280000D02*
X107950000Y-74960720D01*
X104850000Y-77280000D02*
X105630720Y-77280000D01*
X104775000Y-69850000D02*
X101600000Y-69850000D01*
X101600000Y-67310000D02*
X104775000Y-67310000D01*
X107950000Y-67310000D02*
X107950000Y-64770000D01*
X104775000Y-64770000D02*
X101600000Y-64770000D01*
D24*
X85704000Y-67310000D02*
X73004000Y-54610000D01*
X73004000Y-54610000D02*
X67818000Y-54610000D01*
X50165000Y-88519000D02*
X50165000Y-95631000D01*
X48133000Y-86487000D02*
X50165000Y-88519000D01*
X49022000Y-88392000D02*
X49022000Y-95631000D01*
X63506239Y-66167000D02*
X69843761Y-66167000D01*
X62853070Y-66370200D02*
X70496931Y-66370200D01*
X62633789Y-66573400D02*
X70716212Y-66573400D01*
X62496009Y-66776600D02*
X70853992Y-66776600D01*
X62412124Y-66979800D02*
X70937877Y-66979800D01*
X62370123Y-67183000D02*
X70979878Y-67183000D01*
X62357000Y-67386200D02*
X70993000Y-67386200D01*
X62357000Y-67589400D02*
X70993000Y-67589400D01*
X62357000Y-67792600D02*
X70993000Y-67792600D01*
X62357000Y-67995800D02*
X70993000Y-67995800D01*
X62357000Y-68199000D02*
X70993000Y-68199000D01*
X62357000Y-68402200D02*
X70993000Y-68402200D01*
X62357000Y-68605400D02*
X70993000Y-68605400D01*
X62357000Y-68808600D02*
X70993000Y-68808600D01*
X62357000Y-69011800D02*
X70993000Y-69011800D01*
X62357000Y-69215000D02*
X70993000Y-69215000D01*
X62357000Y-69418200D02*
X70993000Y-69418200D01*
X62357000Y-69621400D02*
X70993000Y-69621400D01*
X62357000Y-69824600D02*
X70993000Y-69824600D01*
X62357000Y-70027800D02*
X70993000Y-70027800D01*
X62357000Y-70231000D02*
X70993000Y-70231000D01*
X62357000Y-70434200D02*
X70993000Y-70434200D01*
X62357000Y-70637400D02*
X70993000Y-70637400D01*
X62357000Y-70840600D02*
X70993000Y-70840600D01*
X62357000Y-71043800D02*
X70993000Y-71043800D01*
X62357000Y-71247000D02*
X70993000Y-71247000D01*
X62357000Y-71450200D02*
X70993000Y-71450200D01*
X62357000Y-71653400D02*
X70993000Y-71653400D01*
X62357000Y-71856600D02*
X70993000Y-71856600D01*
X62357000Y-72059800D02*
X70993000Y-72059800D01*
X62357000Y-72263000D02*
X70993000Y-72263000D01*
X62357000Y-72466200D02*
X70993000Y-72466200D01*
X62357000Y-72669400D02*
X70993000Y-72669400D01*
X62357000Y-72872600D02*
X70993000Y-72872600D01*
X62357000Y-73075800D02*
X70993000Y-73075800D01*
X62357000Y-73279000D02*
X65974376Y-73279000D01*
X67511505Y-73279000D02*
X70993000Y-73279000D01*
X62357000Y-73482200D02*
X65454223Y-73482200D01*
X68043051Y-73482200D02*
X70993000Y-73482200D01*
X62357000Y-73685400D02*
X65192828Y-73685400D01*
X68304480Y-73685400D02*
X70993000Y-73685400D01*
X62357000Y-73888600D02*
X65024726Y-73888600D01*
X68473318Y-73888600D02*
X70993000Y-73888600D01*
X62357000Y-74091800D02*
X64909187Y-74091800D01*
X68589977Y-74091800D02*
X70993000Y-74091800D01*
X62357000Y-74295000D02*
X64829667Y-74295000D01*
X68670594Y-74295000D02*
X70993000Y-74295000D01*
X62357000Y-74498200D02*
X64778468Y-74498200D01*
X68722904Y-74498200D02*
X70993000Y-74498200D01*
X62357000Y-74701400D02*
X64757110Y-74701400D01*
X68741397Y-74701400D02*
X70993000Y-74701400D01*
X62357000Y-74904600D02*
X64770070Y-74904600D01*
X68729646Y-74904600D02*
X70993000Y-74904600D01*
X62357000Y-75107800D02*
X64806684Y-75107800D01*
X68694231Y-75107800D02*
X70993000Y-75107800D01*
X62357000Y-75311000D02*
X64869664Y-75311000D01*
X68631330Y-75311000D02*
X70993000Y-75311000D01*
X62357000Y-75514200D02*
X64975894Y-75514200D01*
X68522686Y-75514200D02*
X70993000Y-75514200D01*
X62357000Y-75717400D02*
X65127989Y-75717400D01*
X68371037Y-75717400D02*
X70993000Y-75717400D01*
X62357000Y-75920600D02*
X65345680Y-75920600D01*
X68152940Y-75920600D02*
X70993000Y-75920600D01*
X62357000Y-76123800D02*
X65317142Y-76123800D01*
X68183398Y-76123800D02*
X70993000Y-76123800D01*
X62357000Y-76327000D02*
X65108777Y-76327000D01*
X68391629Y-76327000D02*
X70993000Y-76327000D01*
X62357000Y-76530200D02*
X64964121Y-76530200D01*
X68536862Y-76530200D02*
X70993000Y-76530200D01*
X62357000Y-76733400D02*
X64861117Y-76733400D01*
X68640692Y-76733400D02*
X70993000Y-76733400D01*
X62357000Y-76936600D02*
X64798216Y-76936600D01*
X68700497Y-76936600D02*
X70993000Y-76936600D01*
X62357000Y-77139800D02*
X64767789Y-77139800D01*
X68732150Y-77139800D02*
X70993000Y-77139800D01*
X62357000Y-77343000D02*
X64760824Y-77343000D01*
X68740325Y-77343000D02*
X68745855Y-77343000D01*
X68745855Y-77343000D02*
X70993000Y-77343000D01*
X62357000Y-77546200D02*
X64779317Y-77546200D01*
X68718968Y-77546200D02*
X68745855Y-77546200D01*
X68745855Y-77546200D02*
X70993000Y-77546200D01*
X62357000Y-77749400D02*
X64836587Y-77749400D01*
X68662780Y-77749400D02*
X68745855Y-77749400D01*
X68745855Y-77749400D02*
X70993000Y-77749400D01*
X62357000Y-77952600D02*
X64922779Y-77952600D01*
X68577620Y-77952600D02*
X68745855Y-77952600D01*
X68745855Y-77952600D02*
X70993000Y-77952600D01*
X62357000Y-78155800D02*
X65046300Y-78155800D01*
X68455088Y-78155800D02*
X68745855Y-78155800D01*
X68745855Y-78155800D02*
X70993000Y-78155800D01*
X62357000Y-78359000D02*
X65224598Y-78359000D01*
X68277514Y-78359000D02*
X68745855Y-78359000D01*
X68745855Y-78359000D02*
X70993000Y-78359000D01*
X62357000Y-78562200D02*
X65501333Y-78562200D01*
X67999888Y-78562200D02*
X68745855Y-78562200D01*
X68745855Y-78562200D02*
X70993000Y-78562200D01*
X62357000Y-78765400D02*
X66206028Y-78765400D01*
X67276773Y-78765400D02*
X68745855Y-78765400D01*
X68745855Y-78765400D02*
X70993000Y-78765400D01*
X62357000Y-78968600D02*
X68745855Y-78968600D01*
X68745855Y-78968600D02*
X70993000Y-78968600D01*
X62357000Y-79171800D02*
X68745855Y-79171800D01*
X68745855Y-79171800D02*
X70993000Y-79171800D01*
X62357000Y-79375000D02*
X68745855Y-79375000D01*
X68745855Y-79375000D02*
X70993000Y-79375000D01*
X62357000Y-79578200D02*
X68745855Y-79578200D01*
X68745855Y-79578200D02*
X70993000Y-79578200D01*
X62357000Y-79781400D02*
X68745855Y-79781400D01*
X68745855Y-79781400D02*
X70993000Y-79781400D01*
X62357000Y-79984600D02*
X68745855Y-79984600D01*
X68745855Y-79984600D02*
X70993000Y-79984600D01*
X62357000Y-80187800D02*
X68745855Y-80187800D01*
X68745855Y-80187800D02*
X70993000Y-80187800D01*
X62357000Y-80391000D02*
X68745855Y-80391000D01*
X68745855Y-80391000D02*
X70993000Y-80391000D01*
X62357000Y-80594200D02*
X68745855Y-80594200D01*
X68745855Y-80594200D02*
X70993000Y-80594200D01*
X62357000Y-80797400D02*
X68745855Y-80797400D01*
X68745855Y-80797400D02*
X70993000Y-80797400D01*
X62357000Y-81000600D02*
X68745855Y-81000600D01*
X68745855Y-81000600D02*
X70993000Y-81000600D01*
X62357000Y-81203800D02*
X68745855Y-81203800D01*
X68745855Y-81203800D02*
X70993000Y-81203800D01*
X62357000Y-81407000D02*
X68745855Y-81407000D01*
X68745855Y-81407000D02*
X70993000Y-81407000D01*
X62357000Y-81610200D02*
X68745855Y-81610200D01*
X68745855Y-81610200D02*
X70993000Y-81610200D01*
X62357000Y-81813400D02*
X68745855Y-81813400D01*
X68745855Y-81813400D02*
X70993000Y-81813400D01*
X62357000Y-82016600D02*
X68745855Y-82016600D01*
X68745855Y-82016600D02*
X70993000Y-82016600D01*
X62357000Y-82219800D02*
X68745855Y-82219800D01*
X68745855Y-82219800D02*
X70993000Y-82219800D01*
X62357000Y-82423000D02*
X68745855Y-82423000D01*
X68745855Y-82423000D02*
X70993000Y-82423000D01*
X62357000Y-82626200D02*
X68745855Y-82626200D01*
X68745855Y-82626200D02*
X70993000Y-82626200D01*
X62357000Y-82829400D02*
X68745855Y-82829400D01*
X68745855Y-82829400D02*
X70993000Y-82829400D01*
X62357000Y-83032600D02*
X68745855Y-83032600D01*
X68745855Y-83032600D02*
X70993000Y-83032600D01*
X62357000Y-83235800D02*
X68745855Y-83235800D01*
X68745855Y-83235800D02*
X70993000Y-83235800D01*
X62357000Y-83439000D02*
X65974376Y-83439000D01*
X67511505Y-83439000D02*
X68745855Y-83439000D01*
X68745855Y-83439000D02*
X70993000Y-83439000D01*
X62357000Y-83642200D02*
X65454223Y-83642200D01*
X68043051Y-83642200D02*
X68745855Y-83642200D01*
X68745855Y-83642200D02*
X70993000Y-83642200D01*
X62357000Y-83845400D02*
X65192828Y-83845400D01*
X68304480Y-83845400D02*
X68745855Y-83845400D01*
X68745855Y-83845400D02*
X70993000Y-83845400D01*
X62357000Y-84048600D02*
X65024726Y-84048600D01*
X68473318Y-84048600D02*
X68745855Y-84048600D01*
X68745855Y-84048600D02*
X70993000Y-84048600D01*
X62357000Y-84251800D02*
X64909187Y-84251800D01*
X68589977Y-84251800D02*
X68745855Y-84251800D01*
X68745855Y-84251800D02*
X70993000Y-84251800D01*
X62357000Y-84455000D02*
X64829667Y-84455000D01*
X68670594Y-84455000D02*
X68745855Y-84455000D01*
X68745855Y-84455000D02*
X70993000Y-84455000D01*
X62357000Y-84658200D02*
X64778468Y-84658200D01*
X68722904Y-84658200D02*
X68745855Y-84658200D01*
X68745855Y-84658200D02*
X70993000Y-84658200D01*
X62357000Y-84861400D02*
X64757110Y-84861400D01*
X68741397Y-84861400D02*
X68745855Y-84861400D01*
X68745855Y-84861400D02*
X70993000Y-84861400D01*
X62357000Y-85064600D02*
X64770070Y-85064600D01*
X68729646Y-85064600D02*
X70993000Y-85064600D01*
X62357000Y-85267800D02*
X64806684Y-85267800D01*
X68694231Y-85267800D02*
X70993000Y-85267800D01*
X62357000Y-85471000D02*
X64869664Y-85471000D01*
X68631330Y-85471000D02*
X70993000Y-85471000D01*
X62357000Y-85674200D02*
X64975894Y-85674200D01*
X68522686Y-85674200D02*
X70993000Y-85674200D01*
X62357000Y-85877400D02*
X65127989Y-85877400D01*
X68371037Y-85877400D02*
X70993000Y-85877400D01*
X62357000Y-86080600D02*
X65345680Y-86080600D01*
X68152940Y-86080600D02*
X70993000Y-86080600D01*
X62357000Y-86283800D02*
X65317142Y-86283800D01*
X68183398Y-86283800D02*
X70993000Y-86283800D01*
X62357000Y-86487000D02*
X65108777Y-86487000D01*
X68391629Y-86487000D02*
X70993000Y-86487000D01*
X62357000Y-86690200D02*
X64964121Y-86690200D01*
X68536862Y-86690200D02*
X70993000Y-86690200D01*
X62357000Y-86893400D02*
X64861117Y-86893400D01*
X68640692Y-86893400D02*
X70993000Y-86893400D01*
X62357000Y-87096600D02*
X64798216Y-87096600D01*
X68700497Y-87096600D02*
X70993000Y-87096600D01*
X62357000Y-87299800D02*
X64767789Y-87299800D01*
X68732150Y-87299800D02*
X70993000Y-87299800D01*
X62357000Y-87503000D02*
X64760824Y-87503000D01*
X68740325Y-87503000D02*
X68745855Y-87503000D01*
X68745855Y-87503000D02*
X70993000Y-87503000D01*
X62357000Y-87706200D02*
X64779317Y-87706200D01*
X68718968Y-87706200D02*
X68745855Y-87706200D01*
X68745855Y-87706200D02*
X70993000Y-87706200D01*
X62357000Y-87909400D02*
X64836587Y-87909400D01*
X68662780Y-87909400D02*
X68745855Y-87909400D01*
X68745855Y-87909400D02*
X70993000Y-87909400D01*
X62357000Y-88112600D02*
X64922779Y-88112600D01*
X68577620Y-88112600D02*
X68745855Y-88112600D01*
X68745855Y-88112600D02*
X70993000Y-88112600D01*
X62357000Y-88315800D02*
X65046300Y-88315800D01*
X68455088Y-88315800D02*
X68745855Y-88315800D01*
X68745855Y-88315800D02*
X70993000Y-88315800D01*
X62357000Y-88519000D02*
X65224598Y-88519000D01*
X68277514Y-88519000D02*
X68745855Y-88519000D01*
X68745855Y-88519000D02*
X70993000Y-88519000D01*
X62357000Y-88722200D02*
X65501333Y-88722200D01*
X67999888Y-88722200D02*
X68745855Y-88722200D01*
X68745855Y-88722200D02*
X70993000Y-88722200D01*
X62357000Y-88925400D02*
X66206028Y-88925400D01*
X67276773Y-88925400D02*
X68745855Y-88925400D01*
X68745855Y-88925400D02*
X70993000Y-88925400D01*
X62357000Y-89128600D02*
X68745855Y-89128600D01*
X68745855Y-89128600D02*
X70993000Y-89128600D01*
X62357000Y-89331800D02*
X68745855Y-89331800D01*
X68745855Y-89331800D02*
X70993000Y-89331800D01*
X62357000Y-89535000D02*
X68745855Y-89535000D01*
X68745855Y-89535000D02*
X70993000Y-89535000D01*
X62357000Y-89738200D02*
X68745855Y-89738200D01*
X68745855Y-89738200D02*
X70993000Y-89738200D01*
X62357000Y-89941400D02*
X68745855Y-89941400D01*
X68745855Y-89941400D02*
X70993000Y-89941400D01*
X62357000Y-90144600D02*
X68745855Y-90144600D01*
X68745855Y-90144600D02*
X70993000Y-90144600D01*
X62357000Y-90347800D02*
X68745855Y-90347800D01*
X68745855Y-90347800D02*
X70993000Y-90347800D01*
X62357000Y-90551000D02*
X68745855Y-90551000D01*
X68745855Y-90551000D02*
X70993000Y-90551000D01*
X62365119Y-90754200D02*
X68745855Y-90754200D01*
X68745855Y-90754200D02*
X70984880Y-90754200D01*
X62396713Y-90957400D02*
X68745855Y-90957400D01*
X68745855Y-90957400D02*
X70953286Y-90957400D01*
X62468855Y-91160600D02*
X68745855Y-91160600D01*
X68745855Y-91160600D02*
X70881144Y-91160600D01*
X62592098Y-91363800D02*
X68745855Y-91363800D01*
X68745855Y-91363800D02*
X70757901Y-91363800D01*
X62791168Y-91567000D02*
X68745855Y-91567000D01*
X68745855Y-91567000D02*
X70558831Y-91567000D01*
X63184052Y-91770200D02*
X68745855Y-91770200D01*
X68745855Y-91770200D02*
X70165947Y-91770200D01*
X70993000Y-90671761D02*
X70970435Y-90900869D01*
X70905427Y-91115172D01*
X70799858Y-91312675D01*
X70657789Y-91485789D01*
X70484675Y-91627858D01*
X70287172Y-91733427D01*
X70072869Y-91798435D01*
X69843761Y-91821000D01*
X68745855Y-91821000D01*
X68745855Y-87450382D01*
X68719549Y-87161332D01*
X68637601Y-86882896D01*
X68503132Y-86625680D01*
X68321263Y-86399482D01*
X68098923Y-86212916D01*
X68021829Y-86170533D01*
X68081708Y-86138695D01*
X68306632Y-85955252D01*
X68491641Y-85731615D01*
X68629688Y-85476302D01*
X68715516Y-85199037D01*
X68745855Y-84910382D01*
X68745855Y-77290382D01*
X68719549Y-77001332D01*
X68637601Y-76722896D01*
X68503132Y-76465680D01*
X68321263Y-76239482D01*
X68098923Y-76052916D01*
X68021829Y-76010533D01*
X68081708Y-75978695D01*
X68306632Y-75795252D01*
X68491641Y-75571615D01*
X68629688Y-75316302D01*
X68715516Y-75039037D01*
X68745855Y-74750382D01*
X68719549Y-74461332D01*
X68637601Y-74182896D01*
X68503132Y-73925680D01*
X68321263Y-73699482D01*
X68098923Y-73512916D01*
X67844580Y-73373089D01*
X67567921Y-73285328D01*
X67279485Y-73252975D01*
X67258721Y-73252830D01*
X66241279Y-73252830D01*
X65952419Y-73281153D01*
X65674563Y-73365043D01*
X65418292Y-73501305D01*
X65193368Y-73684748D01*
X65008359Y-73908385D01*
X64870312Y-74163698D01*
X64784484Y-74440963D01*
X64754145Y-74729618D01*
X64780451Y-75018668D01*
X64862399Y-75297104D01*
X64996868Y-75554320D01*
X65178737Y-75780518D01*
X65401077Y-75967084D01*
X65478170Y-76009466D01*
X65418292Y-76041305D01*
X65193368Y-76224748D01*
X65008359Y-76448385D01*
X64870312Y-76703698D01*
X64784484Y-76980963D01*
X64754145Y-77269618D01*
X64780451Y-77558668D01*
X64862399Y-77837104D01*
X64996868Y-78094320D01*
X65178737Y-78320518D01*
X65401077Y-78507084D01*
X65655420Y-78646911D01*
X65932079Y-78734672D01*
X66220515Y-78767025D01*
X66241279Y-78767170D01*
X67258721Y-78767170D01*
X67547581Y-78738847D01*
X67825437Y-78654957D01*
X68081708Y-78518695D01*
X68306632Y-78335252D01*
X68491641Y-78111615D01*
X68629688Y-77856302D01*
X68715516Y-77579037D01*
X68745855Y-77290382D01*
X68745855Y-84910382D01*
X68719549Y-84621332D01*
X68637601Y-84342896D01*
X68503132Y-84085680D01*
X68321263Y-83859482D01*
X68098923Y-83672916D01*
X67844580Y-83533089D01*
X67567921Y-83445328D01*
X67279485Y-83412975D01*
X67258721Y-83412830D01*
X66241279Y-83412830D01*
X65952419Y-83441153D01*
X65674563Y-83525043D01*
X65418292Y-83661305D01*
X65193368Y-83844748D01*
X65008359Y-84068385D01*
X64870312Y-84323698D01*
X64784484Y-84600963D01*
X64754145Y-84889618D01*
X64780451Y-85178668D01*
X64862399Y-85457104D01*
X64996868Y-85714320D01*
X65178737Y-85940518D01*
X65401077Y-86127084D01*
X65478170Y-86169466D01*
X65418292Y-86201305D01*
X65193368Y-86384748D01*
X65008359Y-86608385D01*
X64870312Y-86863698D01*
X64784484Y-87140963D01*
X64754145Y-87429618D01*
X64780451Y-87718668D01*
X64862399Y-87997104D01*
X64996868Y-88254320D01*
X65178737Y-88480518D01*
X65401077Y-88667084D01*
X65655420Y-88806911D01*
X65932079Y-88894672D01*
X66220515Y-88927025D01*
X66241279Y-88927170D01*
X67258721Y-88927170D01*
X67547581Y-88898847D01*
X67825437Y-88814957D01*
X68081708Y-88678695D01*
X68306632Y-88495252D01*
X68491641Y-88271615D01*
X68629688Y-88016302D01*
X68715516Y-87739037D01*
X68745855Y-87450382D01*
X68745855Y-91821000D01*
X63506239Y-91821000D01*
X63277131Y-91798435D01*
X63062828Y-91733427D01*
X62865325Y-91627858D01*
X62692211Y-91485789D01*
X62550142Y-91312675D01*
X62444573Y-91115172D01*
X62379565Y-90900869D01*
X62357000Y-90671761D01*
X62357000Y-67316239D01*
X62379565Y-67087131D01*
X62444573Y-66872828D01*
X62550142Y-66675325D01*
X62692211Y-66502211D01*
X62865325Y-66360142D01*
X63062828Y-66254573D01*
X63277131Y-66189565D01*
X63506239Y-66167000D01*
X69843761Y-66167000D01*
X70072869Y-66189565D01*
X70287172Y-66254573D01*
X70484675Y-66360142D01*
X70657789Y-66502211D01*
X70799858Y-66675325D01*
X70905427Y-66872828D01*
X70970435Y-67087131D01*
X70993000Y-67316239D01*
X70993000Y-90671761D01*
X101606239Y-62992000D02*
X107943761Y-62992000D01*
X100953070Y-63195200D02*
X108596931Y-63195200D01*
X100733789Y-63398400D02*
X108816212Y-63398400D01*
X100596009Y-63601600D02*
X108953992Y-63601600D01*
X100512124Y-63804800D02*
X109037877Y-63804800D01*
X100470123Y-64008000D02*
X109079878Y-64008000D01*
X100457000Y-64211200D02*
X109093000Y-64211200D01*
X100457000Y-64414400D02*
X109093000Y-64414400D01*
X100457000Y-64617600D02*
X109093000Y-64617600D01*
X100457000Y-64820800D02*
X109093000Y-64820800D01*
X100457000Y-65024000D02*
X109093000Y-65024000D01*
X100457000Y-65227200D02*
X109093000Y-65227200D01*
X100457000Y-65430400D02*
X109093000Y-65430400D01*
X100457000Y-65633600D02*
X109093000Y-65633600D01*
X100457000Y-65836800D02*
X109093000Y-65836800D01*
X100457000Y-66040000D02*
X109093000Y-66040000D01*
X100457000Y-66243200D02*
X109093000Y-66243200D01*
X100457000Y-66446400D02*
X109093000Y-66446400D01*
X100457000Y-66649600D02*
X109093000Y-66649600D01*
X100457000Y-66852800D02*
X109093000Y-66852800D01*
X100457000Y-67056000D02*
X109093000Y-67056000D01*
X100457000Y-67259200D02*
X109093000Y-67259200D01*
X100457000Y-67462400D02*
X109093000Y-67462400D01*
X100457000Y-67665600D02*
X109093000Y-67665600D01*
X100457000Y-67868800D02*
X109093000Y-67868800D01*
X100457000Y-68072000D02*
X109093000Y-68072000D01*
X100457000Y-68275200D02*
X109093000Y-68275200D01*
X100457000Y-68478400D02*
X109093000Y-68478400D01*
X100457000Y-68681600D02*
X109093000Y-68681600D01*
X100457000Y-68884800D02*
X109093000Y-68884800D01*
X100457000Y-69088000D02*
X109093000Y-69088000D01*
X100457000Y-69291200D02*
X109093000Y-69291200D01*
X100457000Y-69494400D02*
X109093000Y-69494400D01*
X100457000Y-69697600D02*
X109093000Y-69697600D01*
X100457000Y-69900800D02*
X109093000Y-69900800D01*
X100457000Y-70104000D02*
X109093000Y-70104000D01*
X100457000Y-70307200D02*
X109093000Y-70307200D01*
X100457000Y-70510400D02*
X109093000Y-70510400D01*
X100457000Y-70713600D02*
X104333425Y-70713600D01*
X105385057Y-70713600D02*
X109093000Y-70713600D01*
X100457000Y-70916800D02*
X103601993Y-70916800D01*
X106096848Y-70916800D02*
X109093000Y-70916800D01*
X100457000Y-71120000D02*
X103323712Y-71120000D01*
X106374210Y-71120000D02*
X109093000Y-71120000D01*
X100457000Y-71323200D02*
X103145739Y-71323200D01*
X106552896Y-71323200D02*
X109093000Y-71323200D01*
X100457000Y-71526400D02*
X103022920Y-71526400D01*
X106676698Y-71526400D02*
X109093000Y-71526400D01*
X100457000Y-71729600D02*
X102937529Y-71729600D01*
X106763119Y-71729600D02*
X109093000Y-71729600D01*
X100457000Y-71932800D02*
X102881137Y-71932800D01*
X106820592Y-71932800D02*
X109093000Y-71932800D01*
X100457000Y-72136000D02*
X102859780Y-72136000D01*
X106839085Y-72136000D02*
X109093000Y-72136000D01*
X100457000Y-72339200D02*
X102867759Y-72339200D01*
X106832316Y-72339200D02*
X109093000Y-72339200D01*
X100457000Y-72542400D02*
X102899209Y-72542400D01*
X106802093Y-72542400D02*
X109093000Y-72542400D01*
X100457000Y-72745600D02*
X102959014Y-72745600D01*
X106739192Y-72745600D02*
X109093000Y-72745600D01*
X100457000Y-72948800D02*
X103062616Y-72948800D01*
X106636419Y-72948800D02*
X109093000Y-72948800D01*
X100457000Y-73152000D02*
X103207567Y-73152000D01*
X106492050Y-73152000D02*
X109093000Y-73152000D01*
X100457000Y-73355200D02*
X103415410Y-73355200D01*
X106284084Y-73355200D02*
X109093000Y-73355200D01*
X100457000Y-73558400D02*
X103448286Y-73558400D01*
X106253128Y-73558400D02*
X109093000Y-73558400D01*
X100457000Y-73761600D02*
X103229790Y-73761600D01*
X106471207Y-73761600D02*
X109093000Y-73761600D01*
X100457000Y-73964800D02*
X103077855Y-73964800D01*
X106623583Y-73964800D02*
X109093000Y-73964800D01*
X100457000Y-74168000D02*
X102968980Y-74168000D01*
X106729813Y-74168000D02*
X109093000Y-74168000D01*
X100457000Y-74371200D02*
X102906079Y-74371200D01*
X106793021Y-74371200D02*
X109093000Y-74371200D01*
X100457000Y-74574400D02*
X102870459Y-74574400D01*
X106829839Y-74574400D02*
X109093000Y-74574400D01*
X100457000Y-74777600D02*
X102858512Y-74777600D01*
X106842995Y-74777600D02*
X106845855Y-74777600D01*
X106845855Y-74777600D02*
X109093000Y-74777600D01*
X100457000Y-74980800D02*
X102877005Y-74980800D01*
X106821637Y-74980800D02*
X106845855Y-74980800D01*
X106845855Y-74980800D02*
X109093000Y-74980800D01*
X100457000Y-75184000D02*
X102929111Y-75184000D01*
X106770643Y-75184000D02*
X106845855Y-75184000D01*
X106845855Y-75184000D02*
X109093000Y-75184000D01*
X100457000Y-75387200D02*
X103009500Y-75387200D01*
X106691354Y-75387200D02*
X106845855Y-75387200D01*
X106845855Y-75387200D02*
X109093000Y-75387200D01*
X100457000Y-75590400D02*
X103125878Y-75590400D01*
X106576101Y-75590400D02*
X106845855Y-75590400D01*
X106845855Y-75590400D02*
X109093000Y-75590400D01*
X100457000Y-75793600D02*
X103294328Y-75793600D01*
X106407999Y-75793600D02*
X106845855Y-75793600D01*
X106845855Y-75793600D02*
X109093000Y-75793600D01*
X100457000Y-75996800D02*
X103555130Y-75996800D01*
X106147658Y-75996800D02*
X106845855Y-75996800D01*
X106845855Y-75996800D02*
X109093000Y-75996800D01*
X100457000Y-76200000D02*
X104079580Y-76200000D01*
X105635822Y-76200000D02*
X106845855Y-76200000D01*
X106845855Y-76200000D02*
X109093000Y-76200000D01*
X100457000Y-76403200D02*
X106845855Y-76403200D01*
X106845855Y-76403200D02*
X109093000Y-76403200D01*
X100457000Y-76606400D02*
X106845855Y-76606400D01*
X106845855Y-76606400D02*
X109093000Y-76606400D01*
X100457000Y-76809600D02*
X106845855Y-76809600D01*
X106845855Y-76809600D02*
X109093000Y-76809600D01*
X100457000Y-77012800D02*
X106845855Y-77012800D01*
X106845855Y-77012800D02*
X109093000Y-77012800D01*
X100457000Y-77216000D02*
X106845855Y-77216000D01*
X106845855Y-77216000D02*
X109093000Y-77216000D01*
X100457000Y-77419200D02*
X106845855Y-77419200D01*
X106845855Y-77419200D02*
X109093000Y-77419200D01*
X100457000Y-77622400D02*
X106845855Y-77622400D01*
X106845855Y-77622400D02*
X109093000Y-77622400D01*
X100457000Y-77825600D02*
X106845855Y-77825600D01*
X106845855Y-77825600D02*
X109093000Y-77825600D01*
X100457000Y-78028800D02*
X106845855Y-78028800D01*
X106845855Y-78028800D02*
X109093000Y-78028800D01*
X100457000Y-78232000D02*
X106845855Y-78232000D01*
X106845855Y-78232000D02*
X109093000Y-78232000D01*
X100457000Y-78435200D02*
X106845855Y-78435200D01*
X106845855Y-78435200D02*
X109093000Y-78435200D01*
X100457000Y-78638400D02*
X106845855Y-78638400D01*
X106845855Y-78638400D02*
X109093000Y-78638400D01*
X100457000Y-78841600D02*
X106845855Y-78841600D01*
X106845855Y-78841600D02*
X109093000Y-78841600D01*
X100457000Y-79044800D02*
X106845855Y-79044800D01*
X106845855Y-79044800D02*
X109093000Y-79044800D01*
X100457000Y-79248000D02*
X106845855Y-79248000D01*
X106845855Y-79248000D02*
X109093000Y-79248000D01*
X100457000Y-79451200D02*
X106845855Y-79451200D01*
X106845855Y-79451200D02*
X109093000Y-79451200D01*
X100457000Y-79654400D02*
X106845855Y-79654400D01*
X106845855Y-79654400D02*
X109093000Y-79654400D01*
X100457000Y-79857600D02*
X106845855Y-79857600D01*
X106845855Y-79857600D02*
X109093000Y-79857600D01*
X100457000Y-80060800D02*
X106845855Y-80060800D01*
X106845855Y-80060800D02*
X109093000Y-80060800D01*
X100457000Y-80264000D02*
X106845855Y-80264000D01*
X106845855Y-80264000D02*
X109093000Y-80264000D01*
X100457000Y-80467200D02*
X106845855Y-80467200D01*
X106845855Y-80467200D02*
X109093000Y-80467200D01*
X100457000Y-80670400D02*
X106845855Y-80670400D01*
X106845855Y-80670400D02*
X109093000Y-80670400D01*
X100457000Y-80873600D02*
X106845855Y-80873600D01*
X106845855Y-80873600D02*
X109093000Y-80873600D01*
X100457000Y-81076800D02*
X106845855Y-81076800D01*
X106845855Y-81076800D02*
X109093000Y-81076800D01*
X100457000Y-81280000D02*
X106845855Y-81280000D01*
X106845855Y-81280000D02*
X109093000Y-81280000D01*
X100457000Y-81483200D02*
X106845855Y-81483200D01*
X106845855Y-81483200D02*
X109093000Y-81483200D01*
X100457000Y-81686400D02*
X106845855Y-81686400D01*
X106845855Y-81686400D02*
X109093000Y-81686400D01*
X100457000Y-81889600D02*
X106845855Y-81889600D01*
X106845855Y-81889600D02*
X109093000Y-81889600D01*
X100457000Y-82092800D02*
X106845855Y-82092800D01*
X106845855Y-82092800D02*
X109093000Y-82092800D01*
X100457000Y-82296000D02*
X106845855Y-82296000D01*
X106845855Y-82296000D02*
X109093000Y-82296000D01*
X100457000Y-82499200D02*
X106845855Y-82499200D01*
X106845855Y-82499200D02*
X109093000Y-82499200D01*
X100457000Y-82702400D02*
X106845855Y-82702400D01*
X106845855Y-82702400D02*
X109093000Y-82702400D01*
X100457000Y-82905600D02*
X106845855Y-82905600D01*
X106845855Y-82905600D02*
X109093000Y-82905600D01*
X100457000Y-83108800D02*
X106845855Y-83108800D01*
X106845855Y-83108800D02*
X109093000Y-83108800D01*
X100457000Y-83312000D02*
X106845855Y-83312000D01*
X106845855Y-83312000D02*
X109093000Y-83312000D01*
X100457000Y-83515200D02*
X106845855Y-83515200D01*
X106845855Y-83515200D02*
X109093000Y-83515200D01*
X100457000Y-83718400D02*
X106845855Y-83718400D01*
X106845855Y-83718400D02*
X109093000Y-83718400D01*
X100457000Y-83921600D02*
X106845855Y-83921600D01*
X106845855Y-83921600D02*
X109093000Y-83921600D01*
X100457000Y-84124800D02*
X106845855Y-84124800D01*
X106845855Y-84124800D02*
X109093000Y-84124800D01*
X100457000Y-84328000D02*
X106845855Y-84328000D01*
X106845855Y-84328000D02*
X109093000Y-84328000D01*
X100465119Y-84531200D02*
X106845855Y-84531200D01*
X106845855Y-84531200D02*
X109084880Y-84531200D01*
X100496713Y-84734400D02*
X106845855Y-84734400D01*
X106845855Y-84734400D02*
X109053286Y-84734400D01*
X100568855Y-84937600D02*
X106845855Y-84937600D01*
X106845855Y-84937600D02*
X108981144Y-84937600D01*
X100692098Y-85140800D02*
X106845855Y-85140800D01*
X106845855Y-85140800D02*
X108857901Y-85140800D01*
X100891168Y-85344000D02*
X106845855Y-85344000D01*
X106845855Y-85344000D02*
X108658831Y-85344000D01*
X101284052Y-85547200D02*
X106845855Y-85547200D01*
X106845855Y-85547200D02*
X108265947Y-85547200D01*
X109093000Y-84448761D02*
X109070435Y-84677869D01*
X109005427Y-84892172D01*
X108899858Y-85089675D01*
X108757789Y-85262789D01*
X108584675Y-85404858D01*
X108387172Y-85510427D01*
X108172869Y-85575435D01*
X107943761Y-85598000D01*
X106845855Y-85598000D01*
X106845855Y-74750382D01*
X106819549Y-74461332D01*
X106737601Y-74182896D01*
X106603132Y-73925680D01*
X106421263Y-73699482D01*
X106198923Y-73512916D01*
X106121829Y-73470533D01*
X106181708Y-73438695D01*
X106406632Y-73255252D01*
X106591641Y-73031615D01*
X106729688Y-72776302D01*
X106815516Y-72499037D01*
X106845855Y-72210382D01*
X106819549Y-71921332D01*
X106737601Y-71642896D01*
X106603132Y-71385680D01*
X106421263Y-71159482D01*
X106198923Y-70972916D01*
X105944580Y-70833089D01*
X105667921Y-70745328D01*
X105379485Y-70712975D01*
X105358721Y-70712830D01*
X104341279Y-70712830D01*
X104052419Y-70741153D01*
X103774563Y-70825043D01*
X103518292Y-70961305D01*
X103293368Y-71144748D01*
X103108359Y-71368385D01*
X102970312Y-71623698D01*
X102884484Y-71900963D01*
X102854145Y-72189618D01*
X102880451Y-72478668D01*
X102962399Y-72757104D01*
X103096868Y-73014320D01*
X103278737Y-73240518D01*
X103501077Y-73427084D01*
X103578170Y-73469466D01*
X103518292Y-73501305D01*
X103293368Y-73684748D01*
X103108359Y-73908385D01*
X102970312Y-74163698D01*
X102884484Y-74440963D01*
X102854145Y-74729618D01*
X102880451Y-75018668D01*
X102962399Y-75297104D01*
X103096868Y-75554320D01*
X103278737Y-75780518D01*
X103501077Y-75967084D01*
X103755420Y-76106911D01*
X104032079Y-76194672D01*
X104320515Y-76227025D01*
X104341279Y-76227170D01*
X105358721Y-76227170D01*
X105647581Y-76198847D01*
X105925437Y-76114957D01*
X106181708Y-75978695D01*
X106406632Y-75795252D01*
X106591641Y-75571615D01*
X106729688Y-75316302D01*
X106815516Y-75039037D01*
X106845855Y-74750382D01*
X106845855Y-85598000D01*
X101606239Y-85598000D01*
X101377131Y-85575435D01*
X101162828Y-85510427D01*
X100965325Y-85404858D01*
X100792211Y-85262789D01*
X100650142Y-85089675D01*
X100544573Y-84892172D01*
X100479565Y-84677869D01*
X100457000Y-84448761D01*
X100457000Y-64141239D01*
X100479565Y-63912131D01*
X100544573Y-63697828D01*
X100650142Y-63500325D01*
X100792211Y-63327211D01*
X100965325Y-63185142D01*
X101162828Y-63079573D01*
X101377131Y-63014565D01*
X101606239Y-62992000D01*
X107943761Y-62992000D01*
X108172869Y-63014565D01*
X108387172Y-63079573D01*
X108584675Y-63185142D01*
X108757789Y-63327211D01*
X108899858Y-63500325D01*
X109005427Y-63697828D01*
X109070435Y-63912131D01*
X109093000Y-64141239D01*
X109093000Y-84448761D01*
X88796041Y-40132000D02*
X97893959Y-40132000D01*
X88144593Y-40335200D02*
X98545408Y-40335200D01*
X87911205Y-40538400D02*
X98778795Y-40538400D01*
X87708005Y-40741600D02*
X98981995Y-40741600D01*
X87504805Y-40944800D02*
X99185195Y-40944800D01*
X87301605Y-41148000D02*
X99388395Y-41148000D01*
X87098405Y-41351200D02*
X99591595Y-41351200D01*
X86895205Y-41554400D02*
X99794795Y-41554400D01*
X86692005Y-41757600D02*
X99997995Y-41757600D01*
X86488805Y-41960800D02*
X100201195Y-41960800D01*
X86285605Y-42164000D02*
X100404395Y-42164000D01*
X86082405Y-42367200D02*
X100607595Y-42367200D01*
X85879205Y-42570400D02*
X100810795Y-42570400D01*
X85676005Y-42773600D02*
X101013995Y-42773600D01*
X85472805Y-42976800D02*
X101217195Y-42976800D01*
X85269605Y-43180000D02*
X101420395Y-43180000D01*
X85066405Y-43383200D02*
X101623595Y-43383200D01*
X84863205Y-43586400D02*
X101826795Y-43586400D01*
X84660005Y-43789600D02*
X102029995Y-43789600D01*
X84456805Y-43992800D02*
X102233195Y-43992800D01*
X84253605Y-44196000D02*
X102436395Y-44196000D01*
X84050405Y-44399200D02*
X102639595Y-44399200D01*
X83847205Y-44602400D02*
X102842795Y-44602400D01*
X83644005Y-44805600D02*
X103045995Y-44805600D01*
X83377044Y-45008800D02*
X103249195Y-45008800D01*
X74318041Y-45212000D02*
X103452395Y-45212000D01*
X73666593Y-45415200D02*
X103655595Y-45415200D01*
X73433205Y-45618400D02*
X103858795Y-45618400D01*
X73230005Y-45821600D02*
X104061995Y-45821600D01*
X73026805Y-46024800D02*
X104265195Y-46024800D01*
X72823605Y-46228000D02*
X104468395Y-46228000D01*
X72620405Y-46431200D02*
X104671595Y-46431200D01*
X72417205Y-46634400D02*
X104874795Y-46634400D01*
X72214005Y-46837600D02*
X105077995Y-46837600D01*
X72010805Y-47040800D02*
X105281195Y-47040800D01*
X71807605Y-47244000D02*
X105484395Y-47244000D01*
X71604405Y-47447200D02*
X105668088Y-47447200D01*
X71401205Y-47650400D02*
X105796497Y-47650400D01*
X71198005Y-47853600D02*
X105872811Y-47853600D01*
X70994805Y-48056800D02*
X105908103Y-48056800D01*
X70791605Y-48260000D02*
X105918000Y-48260000D01*
X70588405Y-48463200D02*
X105918000Y-48463200D01*
X70385205Y-48666400D02*
X105918000Y-48666400D01*
X70182005Y-48869600D02*
X105918000Y-48869600D01*
X69978805Y-49072800D02*
X105918000Y-49072800D01*
X69775605Y-49276000D02*
X105918000Y-49276000D01*
X69572405Y-49479200D02*
X105918000Y-49479200D01*
X69369205Y-49682400D02*
X105918000Y-49682400D01*
X69166005Y-49885600D02*
X105918000Y-49885600D01*
X68962805Y-50088800D02*
X105918000Y-50088800D01*
X68759605Y-50292000D02*
X105918000Y-50292000D01*
X68556405Y-50495200D02*
X105918000Y-50495200D01*
X68353205Y-50698400D02*
X105918000Y-50698400D01*
X68150005Y-50901600D02*
X105918000Y-50901600D01*
X67946805Y-51104800D02*
X105918000Y-51104800D01*
X67743605Y-51308000D02*
X105918000Y-51308000D01*
X67540405Y-51511200D02*
X105918000Y-51511200D01*
X67337205Y-51714400D02*
X105918000Y-51714400D01*
X67134005Y-51917600D02*
X105918000Y-51917600D01*
X66930805Y-52120800D02*
X105918000Y-52120800D01*
X66727605Y-52324000D02*
X105918000Y-52324000D01*
X66524405Y-52527200D02*
X105918000Y-52527200D01*
X66321205Y-52730400D02*
X105918000Y-52730400D01*
X66118005Y-52933600D02*
X105918000Y-52933600D01*
X65914805Y-53136800D02*
X105918000Y-53136800D01*
X65739240Y-53340000D02*
X105918000Y-53340000D01*
X65628399Y-53543200D02*
X105918000Y-53543200D01*
X65562764Y-53746400D02*
X105918000Y-53746400D01*
X65535813Y-53949600D02*
X105918000Y-53949600D01*
X65532000Y-54152800D02*
X105918000Y-54152800D01*
X65532000Y-54356000D02*
X105918000Y-54356000D01*
X65532000Y-54559200D02*
X105918000Y-54559200D01*
X65532000Y-54762400D02*
X105918000Y-54762400D01*
X65532000Y-54965600D02*
X105918000Y-54965600D01*
X65532000Y-55168800D02*
X105918000Y-55168800D01*
X65532000Y-55372000D02*
X105918000Y-55372000D01*
X65532000Y-55575200D02*
X105918000Y-55575200D01*
X65532000Y-55778400D02*
X105918000Y-55778400D01*
X65532000Y-55981600D02*
X105918000Y-55981600D01*
X65532000Y-56184800D02*
X105918000Y-56184800D01*
X65532000Y-56388000D02*
X105918000Y-56388000D01*
X65532000Y-56591200D02*
X105918000Y-56591200D01*
X65532000Y-56794400D02*
X105918000Y-56794400D01*
X65532000Y-56997600D02*
X105918000Y-56997600D01*
X65532000Y-57200800D02*
X105918000Y-57200800D01*
X65532000Y-57404000D02*
X105918000Y-57404000D01*
X65532000Y-57607200D02*
X105918000Y-57607200D01*
X65532000Y-57810400D02*
X105918000Y-57810400D01*
X65532000Y-58013600D02*
X84147108Y-58013600D01*
X87257403Y-58013600D02*
X105918000Y-58013600D01*
X65532000Y-58216800D02*
X83968301Y-58216800D01*
X87435805Y-58216800D02*
X105918000Y-58216800D01*
X65532000Y-58420000D02*
X83887941Y-58420000D01*
X87518667Y-58420000D02*
X105918000Y-58420000D01*
X65532000Y-58623200D02*
X83863836Y-58623200D01*
X87544164Y-58623200D02*
X105918000Y-58623200D01*
X65532000Y-58826400D02*
X83863836Y-58826400D01*
X87544164Y-58826400D02*
X105918000Y-58826400D01*
X65532000Y-59029600D02*
X83863836Y-59029600D01*
X87544164Y-59029600D02*
X105918000Y-59029600D01*
X65532000Y-59232800D02*
X83863836Y-59232800D01*
X87544164Y-59232800D02*
X105918000Y-59232800D01*
X65532000Y-59436000D02*
X83863836Y-59436000D01*
X87544164Y-59436000D02*
X105918000Y-59436000D01*
X65532000Y-59639200D02*
X83863836Y-59639200D01*
X87544164Y-59639200D02*
X105918000Y-59639200D01*
X65532000Y-59842400D02*
X83863836Y-59842400D01*
X87544164Y-59842400D02*
X105918000Y-59842400D01*
X65532000Y-60045600D02*
X83863836Y-60045600D01*
X87544164Y-60045600D02*
X105918000Y-60045600D01*
X65532000Y-60248800D02*
X83863836Y-60248800D01*
X87544164Y-60248800D02*
X105918000Y-60248800D01*
X65532000Y-60452000D02*
X66430736Y-60452000D01*
X69197127Y-60452000D02*
X83863836Y-60452000D01*
X87544164Y-60452000D02*
X102498736Y-60452000D01*
X105265127Y-60452000D02*
X105918000Y-60452000D01*
X65532000Y-60655200D02*
X66159780Y-60655200D01*
X69482543Y-60655200D02*
X83863836Y-60655200D01*
X87544164Y-60655200D02*
X102227780Y-60655200D01*
X105550543Y-60655200D02*
X105918000Y-60655200D01*
X65532000Y-60858400D02*
X66036615Y-60858400D01*
X69600897Y-60858400D02*
X83869396Y-60858400D01*
X87534465Y-60858400D02*
X87544164Y-60858400D01*
X87544164Y-60858400D02*
X102104615Y-60858400D01*
X105668897Y-60858400D02*
X105918000Y-60858400D01*
X65532000Y-61061600D02*
X65987535Y-61061600D01*
X69652604Y-61061600D02*
X83921103Y-61061600D01*
X87485385Y-61061600D02*
X87544164Y-61061600D01*
X87544164Y-61061600D02*
X102055535Y-61061600D01*
X105720604Y-61061600D02*
X105907378Y-61061600D01*
X65532000Y-61264800D02*
X65977836Y-61264800D01*
X69658164Y-61264800D02*
X84039457Y-61264800D01*
X87362220Y-61264800D02*
X87544164Y-61264800D01*
X87544164Y-61264800D02*
X102045836Y-61264800D01*
X105726164Y-61264800D02*
X105870581Y-61264800D01*
X65532000Y-61468000D02*
X65977836Y-61468000D01*
X69658164Y-61468000D02*
X84324873Y-61468000D01*
X87091264Y-61468000D02*
X87544164Y-61468000D01*
X87544164Y-61468000D02*
X102045836Y-61468000D01*
X105726164Y-61468000D02*
X105792567Y-61468000D01*
X65532000Y-61671200D02*
X65977836Y-61671200D01*
X69658164Y-61671200D02*
X87544164Y-61671200D01*
X87544164Y-61671200D02*
X102045836Y-61671200D01*
X65532000Y-61874400D02*
X65977836Y-61874400D01*
X69658164Y-61874400D02*
X87544164Y-61874400D01*
X87544164Y-61874400D02*
X102045836Y-61874400D01*
X65532000Y-62077600D02*
X65977836Y-62077600D01*
X69658164Y-62077600D02*
X87544164Y-62077600D01*
X87544164Y-62077600D02*
X102045836Y-62077600D01*
X65532000Y-62280800D02*
X65977836Y-62280800D01*
X69658164Y-62280800D02*
X87544164Y-62280800D01*
X87544164Y-62280800D02*
X100295402Y-62280800D01*
X65532000Y-62484000D02*
X65977836Y-62484000D01*
X69658164Y-62484000D02*
X87544164Y-62484000D01*
X87544164Y-62484000D02*
X100010534Y-62484000D01*
X65532000Y-62687200D02*
X65977836Y-62687200D01*
X69658164Y-62687200D02*
X87544164Y-62687200D01*
X87544164Y-62687200D02*
X99832738Y-62687200D01*
X65532000Y-62890400D02*
X65977836Y-62890400D01*
X69658164Y-62890400D02*
X87544164Y-62890400D01*
X87544164Y-62890400D02*
X99713730Y-62890400D01*
X65532000Y-63093600D02*
X65977836Y-63093600D01*
X69658164Y-63093600D02*
X87544164Y-63093600D01*
X87544164Y-63093600D02*
X99634810Y-63093600D01*
X65532000Y-63296800D02*
X65977836Y-63296800D01*
X69658164Y-63296800D02*
X87544164Y-63296800D01*
X87544164Y-63296800D02*
X99587399Y-63296800D01*
X65532000Y-63500000D02*
X66003333Y-63500000D01*
X69634059Y-63500000D02*
X69658164Y-63500000D01*
X69658164Y-63500000D02*
X87544164Y-63500000D01*
X87544164Y-63500000D02*
X99568000Y-63500000D01*
X65532000Y-63703200D02*
X66086195Y-63703200D01*
X69553699Y-63703200D02*
X69658164Y-63703200D01*
X69658164Y-63703200D02*
X87544164Y-63703200D01*
X87544164Y-63703200D02*
X99568000Y-63703200D01*
X65532000Y-63906400D02*
X66264597Y-63906400D01*
X69374892Y-63906400D02*
X69658164Y-63906400D01*
X69658164Y-63906400D02*
X87544164Y-63906400D01*
X87544164Y-63906400D02*
X99568000Y-63906400D01*
X65532000Y-64109600D02*
X69658164Y-64109600D01*
X69658164Y-64109600D02*
X87544164Y-64109600D01*
X87544164Y-64109600D02*
X99568000Y-64109600D01*
X65550126Y-64312800D02*
X69658164Y-64312800D01*
X69658164Y-64312800D02*
X87544164Y-64312800D01*
X87544164Y-64312800D02*
X99568000Y-64312800D01*
X65602533Y-64516000D02*
X69658164Y-64516000D01*
X69658164Y-64516000D02*
X87544164Y-64516000D01*
X87544164Y-64516000D02*
X99568000Y-64516000D01*
X65698162Y-64719200D02*
X69658164Y-64719200D01*
X69658164Y-64719200D02*
X87544164Y-64719200D01*
X87544164Y-64719200D02*
X99568000Y-64719200D01*
X65850478Y-64922400D02*
X69658164Y-64922400D01*
X69658164Y-64922400D02*
X87544164Y-64922400D01*
X87544164Y-64922400D02*
X99568000Y-64922400D01*
X66116546Y-65125600D02*
X69658164Y-65125600D01*
X69658164Y-65125600D02*
X87544164Y-65125600D01*
X87544164Y-65125600D02*
X99568000Y-65125600D01*
X70838621Y-65328800D02*
X87544164Y-65328800D01*
X87544164Y-65328800D02*
X99568000Y-65328800D01*
X71284714Y-65532000D02*
X87544164Y-65532000D01*
X87544164Y-65532000D02*
X99568000Y-65532000D01*
X71513035Y-65735200D02*
X87544164Y-65735200D01*
X87544164Y-65735200D02*
X99568000Y-65735200D01*
X71668386Y-65938400D02*
X87544164Y-65938400D01*
X87544164Y-65938400D02*
X99568000Y-65938400D01*
X71776665Y-66141600D02*
X87544164Y-66141600D01*
X87544164Y-66141600D02*
X99568000Y-66141600D01*
X71838304Y-66344800D02*
X87544164Y-66344800D01*
X87544164Y-66344800D02*
X99568000Y-66344800D01*
X71870105Y-66548000D02*
X87544164Y-66548000D01*
X87544164Y-66548000D02*
X99568000Y-66548000D01*
X71882000Y-66751200D02*
X87544164Y-66751200D01*
X87544164Y-66751200D02*
X99568000Y-66751200D01*
X71882000Y-66954400D02*
X87544164Y-66954400D01*
X87544164Y-66954400D02*
X99568000Y-66954400D01*
X71882000Y-67157600D02*
X87544164Y-67157600D01*
X87544164Y-67157600D02*
X99568000Y-67157600D01*
X71882000Y-67360800D02*
X87544164Y-67360800D01*
X87544164Y-67360800D02*
X99568000Y-67360800D01*
X71882000Y-67564000D02*
X87544164Y-67564000D01*
X87544164Y-67564000D02*
X99568000Y-67564000D01*
X71882000Y-67767200D02*
X87544164Y-67767200D01*
X87544164Y-67767200D02*
X99568000Y-67767200D01*
X71882000Y-67970400D02*
X87544164Y-67970400D01*
X87544164Y-67970400D02*
X99568000Y-67970400D01*
X71882000Y-68173600D02*
X87544164Y-68173600D01*
X87544164Y-68173600D02*
X99568000Y-68173600D01*
X71882000Y-68376800D02*
X87544164Y-68376800D01*
X87544164Y-68376800D02*
X99568000Y-68376800D01*
X71882000Y-68580000D02*
X87544164Y-68580000D01*
X87544164Y-68580000D02*
X99568000Y-68580000D01*
X71882000Y-68783200D02*
X87544164Y-68783200D01*
X87544164Y-68783200D02*
X99568000Y-68783200D01*
X71882000Y-68986400D02*
X87544164Y-68986400D01*
X87544164Y-68986400D02*
X99568000Y-68986400D01*
X71882000Y-69189600D02*
X87544164Y-69189600D01*
X87544164Y-69189600D02*
X99568000Y-69189600D01*
X71882000Y-69392800D02*
X87544164Y-69392800D01*
X87544164Y-69392800D02*
X99568000Y-69392800D01*
X71882000Y-69596000D02*
X87544164Y-69596000D01*
X87544164Y-69596000D02*
X99568000Y-69596000D01*
X71882000Y-69799200D02*
X87544164Y-69799200D01*
X87544164Y-69799200D02*
X99568000Y-69799200D01*
X71882000Y-70002400D02*
X87544164Y-70002400D01*
X87544164Y-70002400D02*
X99568000Y-70002400D01*
X71882000Y-70205600D02*
X87544164Y-70205600D01*
X87544164Y-70205600D02*
X99568000Y-70205600D01*
X71882000Y-70408800D02*
X87544164Y-70408800D01*
X87544164Y-70408800D02*
X99568000Y-70408800D01*
X71882000Y-70612000D02*
X87544164Y-70612000D01*
X87544164Y-70612000D02*
X99568000Y-70612000D01*
X71882000Y-70815200D02*
X87544164Y-70815200D01*
X87544164Y-70815200D02*
X99568000Y-70815200D01*
X71882000Y-71018400D02*
X87544164Y-71018400D01*
X87544164Y-71018400D02*
X99568000Y-71018400D01*
X71882000Y-71221600D02*
X87544164Y-71221600D01*
X87544164Y-71221600D02*
X99568000Y-71221600D01*
X71882000Y-71424800D02*
X87544164Y-71424800D01*
X87544164Y-71424800D02*
X99568000Y-71424800D01*
X71882000Y-71628000D02*
X87544164Y-71628000D01*
X87544164Y-71628000D02*
X99568000Y-71628000D01*
X71882000Y-71831200D02*
X87544164Y-71831200D01*
X87544164Y-71831200D02*
X99568000Y-71831200D01*
X71882000Y-72034400D02*
X87544164Y-72034400D01*
X87544164Y-72034400D02*
X99568000Y-72034400D01*
X71882000Y-72237600D02*
X87544164Y-72237600D01*
X87544164Y-72237600D02*
X99568000Y-72237600D01*
X71882000Y-72440800D02*
X87544164Y-72440800D01*
X87544164Y-72440800D02*
X99568000Y-72440800D01*
X71882000Y-72644000D02*
X87544164Y-72644000D01*
X87544164Y-72644000D02*
X99568000Y-72644000D01*
X71882000Y-72847200D02*
X87544164Y-72847200D01*
X87544164Y-72847200D02*
X99568000Y-72847200D01*
X71882000Y-73050400D02*
X87544164Y-73050400D01*
X87544164Y-73050400D02*
X99568000Y-73050400D01*
X71882000Y-73253600D02*
X87544164Y-73253600D01*
X87544164Y-73253600D02*
X99568000Y-73253600D01*
X71882000Y-73456800D02*
X87544164Y-73456800D01*
X87544164Y-73456800D02*
X99568000Y-73456800D01*
X71882000Y-73660000D02*
X87544164Y-73660000D01*
X87544164Y-73660000D02*
X99568000Y-73660000D01*
X71882000Y-73863200D02*
X87544164Y-73863200D01*
X87544164Y-73863200D02*
X99568000Y-73863200D01*
X71882000Y-74066400D02*
X87544164Y-74066400D01*
X87544164Y-74066400D02*
X99568000Y-74066400D01*
X71882000Y-74269600D02*
X87544164Y-74269600D01*
X87544164Y-74269600D02*
X99568000Y-74269600D01*
X71882000Y-74472800D02*
X87544164Y-74472800D01*
X87544164Y-74472800D02*
X99568000Y-74472800D01*
X71882000Y-74676000D02*
X87544164Y-74676000D01*
X87544164Y-74676000D02*
X99568000Y-74676000D01*
X71882000Y-74879200D02*
X87544164Y-74879200D01*
X87544164Y-74879200D02*
X99568000Y-74879200D01*
X71882000Y-75082400D02*
X87544164Y-75082400D01*
X87544164Y-75082400D02*
X99568000Y-75082400D01*
X71882000Y-75285600D02*
X87544164Y-75285600D01*
X87544164Y-75285600D02*
X99568000Y-75285600D01*
X71882000Y-75488800D02*
X87544164Y-75488800D01*
X87544164Y-75488800D02*
X99568000Y-75488800D01*
X71882000Y-75692000D02*
X87544164Y-75692000D01*
X87544164Y-75692000D02*
X99568000Y-75692000D01*
X71882000Y-75895200D02*
X87544164Y-75895200D01*
X87544164Y-75895200D02*
X99568000Y-75895200D01*
X71882000Y-76098400D02*
X87544164Y-76098400D01*
X87544164Y-76098400D02*
X99568000Y-76098400D01*
X71882000Y-76301600D02*
X87544164Y-76301600D01*
X87544164Y-76301600D02*
X99568000Y-76301600D01*
X71882000Y-76504800D02*
X87544164Y-76504800D01*
X87544164Y-76504800D02*
X99568000Y-76504800D01*
X71882000Y-76708000D02*
X85122246Y-76708000D01*
X86382921Y-76708000D02*
X87544164Y-76708000D01*
X87544164Y-76708000D02*
X99568000Y-76708000D01*
X71882000Y-76911200D02*
X84705965Y-76911200D01*
X86795758Y-76911200D02*
X87544164Y-76911200D01*
X87544164Y-76911200D02*
X99568000Y-76911200D01*
X71882000Y-77114400D02*
X84439074Y-77114400D01*
X87063321Y-77114400D02*
X87544164Y-77114400D01*
X87544164Y-77114400D02*
X99568000Y-77114400D01*
X71882000Y-77317600D02*
X84239192Y-77317600D01*
X87264569Y-77317600D02*
X87544164Y-77317600D01*
X87544164Y-77317600D02*
X99568000Y-77317600D01*
X71882000Y-77520800D02*
X84100057Y-77520800D01*
X87399574Y-77520800D02*
X87544164Y-77520800D01*
X87544164Y-77520800D02*
X99568000Y-77520800D01*
X71882000Y-77724000D02*
X83990280Y-77724000D01*
X87511717Y-77724000D02*
X87544164Y-77724000D01*
X87544164Y-77724000D02*
X99568000Y-77724000D01*
X71882000Y-77927200D02*
X83903189Y-77927200D01*
X87595470Y-77927200D02*
X99568000Y-77927200D01*
X71882000Y-78130400D02*
X83852993Y-78130400D01*
X87648226Y-78130400D02*
X99568000Y-78130400D01*
X71882000Y-78333600D02*
X83810048Y-78333600D01*
X87688460Y-78333600D02*
X99568000Y-78333600D01*
X71882000Y-78536800D02*
X83807211Y-78536800D01*
X87691108Y-78536800D02*
X87693583Y-78536800D01*
X87693583Y-78536800D02*
X99568000Y-78536800D01*
X71882000Y-78740000D02*
X83809632Y-78740000D01*
X87688270Y-78740000D02*
X87693583Y-78740000D01*
X87693583Y-78740000D02*
X99568000Y-78740000D01*
X71882000Y-78943200D02*
X83846926Y-78943200D01*
X87653771Y-78943200D02*
X87693583Y-78943200D01*
X87693583Y-78943200D02*
X99568000Y-78943200D01*
X71882000Y-79146400D02*
X83896586Y-79146400D01*
X87607605Y-79146400D02*
X87693583Y-79146400D01*
X87693583Y-79146400D02*
X99568000Y-79146400D01*
X71882000Y-79349600D02*
X83977038Y-79349600D01*
X87521475Y-79349600D02*
X87693583Y-79349600D01*
X87693583Y-79349600D02*
X99568000Y-79349600D01*
X71882000Y-79552800D02*
X84084907Y-79552800D01*
X87421019Y-79552800D02*
X87693583Y-79552800D01*
X87693583Y-79552800D02*
X99568000Y-79552800D01*
X71882000Y-79756000D02*
X84215860Y-79756000D01*
X87277677Y-79756000D02*
X87693583Y-79756000D01*
X87693583Y-79756000D02*
X99568000Y-79756000D01*
X71882000Y-79959200D02*
X84409907Y-79959200D01*
X87088356Y-79959200D02*
X87693583Y-79959200D01*
X87693583Y-79959200D02*
X99568000Y-79959200D01*
X71882000Y-80162400D02*
X84665509Y-80162400D01*
X86836179Y-80162400D02*
X87693583Y-80162400D01*
X87693583Y-80162400D02*
X99568000Y-80162400D01*
X71882000Y-80365600D02*
X85052421Y-80365600D01*
X86442988Y-80365600D02*
X87693583Y-80365600D01*
X87693583Y-80365600D02*
X99568000Y-80365600D01*
X71882000Y-80568800D02*
X87693583Y-80568800D01*
X87693583Y-80568800D02*
X99568000Y-80568800D01*
X71882000Y-80772000D02*
X87693583Y-80772000D01*
X87693583Y-80772000D02*
X99568000Y-80772000D01*
X71882000Y-80975200D02*
X87693583Y-80975200D01*
X87693583Y-80975200D02*
X99568000Y-80975200D01*
X71882000Y-81178400D02*
X87693583Y-81178400D01*
X87693583Y-81178400D02*
X99568000Y-81178400D01*
X71882000Y-81381600D02*
X87693583Y-81381600D01*
X87693583Y-81381600D02*
X99568000Y-81381600D01*
X71882000Y-81584800D02*
X87693583Y-81584800D01*
X87693583Y-81584800D02*
X99568000Y-81584800D01*
X71882000Y-81788000D02*
X85122246Y-81788000D01*
X86382921Y-81788000D02*
X87693583Y-81788000D01*
X87693583Y-81788000D02*
X99568000Y-81788000D01*
X71882000Y-81991200D02*
X84705965Y-81991200D01*
X86795758Y-81991200D02*
X87693583Y-81991200D01*
X87693583Y-81991200D02*
X99568000Y-81991200D01*
X71882000Y-82194400D02*
X84439074Y-82194400D01*
X87063321Y-82194400D02*
X87693583Y-82194400D01*
X87693583Y-82194400D02*
X99568000Y-82194400D01*
X71882000Y-82397600D02*
X84239192Y-82397600D01*
X87264569Y-82397600D02*
X87693583Y-82397600D01*
X87693583Y-82397600D02*
X99568000Y-82397600D01*
X71882000Y-82600800D02*
X84100057Y-82600800D01*
X87399574Y-82600800D02*
X87693583Y-82600800D01*
X87693583Y-82600800D02*
X99568000Y-82600800D01*
X71882000Y-82804000D02*
X83990280Y-82804000D01*
X87511717Y-82804000D02*
X87693583Y-82804000D01*
X87693583Y-82804000D02*
X99568000Y-82804000D01*
X71882000Y-83007200D02*
X83903189Y-83007200D01*
X87595470Y-83007200D02*
X87693583Y-83007200D01*
X87693583Y-83007200D02*
X99568000Y-83007200D01*
X71882000Y-83210400D02*
X83852993Y-83210400D01*
X87648226Y-83210400D02*
X87693583Y-83210400D01*
X87693583Y-83210400D02*
X99568000Y-83210400D01*
X71882000Y-83413600D02*
X83810048Y-83413600D01*
X87688460Y-83413600D02*
X87693583Y-83413600D01*
X87693583Y-83413600D02*
X99568000Y-83413600D01*
X71882000Y-83616800D02*
X83807211Y-83616800D01*
X87691108Y-83616800D02*
X87693583Y-83616800D01*
X87693583Y-83616800D02*
X99568000Y-83616800D01*
X71882000Y-83820000D02*
X83809632Y-83820000D01*
X87688270Y-83820000D02*
X87693583Y-83820000D01*
X87693583Y-83820000D02*
X99568000Y-83820000D01*
X71882000Y-84023200D02*
X83846926Y-84023200D01*
X87653771Y-84023200D02*
X87693583Y-84023200D01*
X87693583Y-84023200D02*
X99568000Y-84023200D01*
X71882000Y-84226400D02*
X83896586Y-84226400D01*
X87607605Y-84226400D02*
X87693583Y-84226400D01*
X87693583Y-84226400D02*
X99568000Y-84226400D01*
X71882000Y-84429600D02*
X83977038Y-84429600D01*
X87521475Y-84429600D02*
X87693583Y-84429600D01*
X87693583Y-84429600D02*
X99568000Y-84429600D01*
X71882000Y-84632800D02*
X84084907Y-84632800D01*
X87421019Y-84632800D02*
X87693583Y-84632800D01*
X87693583Y-84632800D02*
X99568000Y-84632800D01*
X71882000Y-84836000D02*
X84215860Y-84836000D01*
X87277677Y-84836000D02*
X87693583Y-84836000D01*
X87693583Y-84836000D02*
X99568000Y-84836000D01*
X71882000Y-85039200D02*
X84409907Y-85039200D01*
X87088356Y-85039200D02*
X87693583Y-85039200D01*
X87693583Y-85039200D02*
X99568000Y-85039200D01*
X71882000Y-85242400D02*
X84665509Y-85242400D01*
X86836179Y-85242400D02*
X87693583Y-85242400D01*
X87693583Y-85242400D02*
X99582396Y-85242400D01*
X71882000Y-85445600D02*
X85052421Y-85445600D01*
X86442988Y-85445600D02*
X87693583Y-85445600D01*
X87693583Y-85445600D02*
X99619401Y-85445600D01*
X71882000Y-85648800D02*
X87693583Y-85648800D01*
X87693583Y-85648800D02*
X99686578Y-85648800D01*
X71882000Y-85852000D02*
X87693583Y-85852000D01*
X87693583Y-85852000D02*
X99795191Y-85852000D01*
X71882000Y-86055200D02*
X87693583Y-86055200D01*
X87693583Y-86055200D02*
X99957810Y-86055200D01*
X71882000Y-86258400D02*
X87693583Y-86258400D01*
X87693583Y-86258400D02*
X100200363Y-86258400D01*
X71882000Y-86461600D02*
X87693583Y-86461600D01*
X87693583Y-86461600D02*
X100700878Y-86461600D01*
X71882000Y-86664800D02*
X87693583Y-86664800D01*
X87693583Y-86664800D02*
X103077855Y-86664800D01*
X71882000Y-86868000D02*
X87693583Y-86868000D01*
X87693583Y-86868000D02*
X102968980Y-86868000D01*
X71882000Y-87071200D02*
X87693583Y-87071200D01*
X87693583Y-87071200D02*
X102906079Y-87071200D01*
X71882000Y-87274400D02*
X87693583Y-87274400D01*
X87693583Y-87274400D02*
X102870459Y-87274400D01*
X71882000Y-87477600D02*
X87693583Y-87477600D01*
X87693583Y-87477600D02*
X102858512Y-87477600D01*
X71882000Y-87680800D02*
X87693583Y-87680800D01*
X87693583Y-87680800D02*
X102877005Y-87680800D01*
X71882000Y-87884000D02*
X87693583Y-87884000D01*
X87693583Y-87884000D02*
X102929111Y-87884000D01*
X71882000Y-88087200D02*
X87693583Y-88087200D01*
X87693583Y-88087200D02*
X103009500Y-88087200D01*
X71882000Y-88290400D02*
X87693583Y-88290400D01*
X87693583Y-88290400D02*
X103125878Y-88290400D01*
X71882000Y-88493600D02*
X87693583Y-88493600D01*
X87693583Y-88493600D02*
X103294328Y-88493600D01*
X71882000Y-88696800D02*
X87693583Y-88696800D01*
X87693583Y-88696800D02*
X103555131Y-88696800D01*
X71882000Y-88900000D02*
X87693583Y-88900000D01*
X87693583Y-88900000D02*
X103323712Y-88900000D01*
X71882000Y-89103200D02*
X87693583Y-89103200D01*
X87693583Y-89103200D02*
X103145739Y-89103200D01*
X71882000Y-89306400D02*
X87693583Y-89306400D01*
X87693583Y-89306400D02*
X103022920Y-89306400D01*
X71882000Y-89509600D02*
X87693583Y-89509600D01*
X87693583Y-89509600D02*
X102937529Y-89509600D01*
X71882000Y-89712800D02*
X87693583Y-89712800D01*
X87693583Y-89712800D02*
X102881137Y-89712800D01*
X71882000Y-89916000D02*
X87693583Y-89916000D01*
X87693583Y-89916000D02*
X102859780Y-89916000D01*
X71882000Y-90119200D02*
X87693583Y-90119200D01*
X87693583Y-90119200D02*
X102867759Y-90119200D01*
X71882000Y-90322400D02*
X87693583Y-90322400D01*
X87693583Y-90322400D02*
X102899209Y-90322400D01*
X71882000Y-90525600D02*
X87693583Y-90525600D01*
X87693583Y-90525600D02*
X102959014Y-90525600D01*
X71882000Y-90728800D02*
X87693583Y-90728800D01*
X87693583Y-90728800D02*
X103062616Y-90728800D01*
X71882000Y-90932000D02*
X87693583Y-90932000D01*
X87693583Y-90932000D02*
X103207567Y-90932000D01*
X71882000Y-91135200D02*
X87693583Y-91135200D01*
X87693583Y-91135200D02*
X103415410Y-91135200D01*
X71882000Y-91338400D02*
X87693583Y-91338400D01*
X87693583Y-91338400D02*
X103739939Y-91338400D01*
X71872608Y-91541600D02*
X87693583Y-91541600D01*
X87693583Y-91541600D02*
X105918000Y-91541600D01*
X71846010Y-91744800D02*
X87693583Y-91744800D01*
X87693583Y-91744800D02*
X105918000Y-91744800D01*
X71784371Y-91948000D02*
X87693583Y-91948000D01*
X87693583Y-91948000D02*
X105918000Y-91948000D01*
X71681964Y-92151200D02*
X87693583Y-92151200D01*
X87693583Y-92151200D02*
X105918000Y-92151200D01*
X71533881Y-92354400D02*
X87693583Y-92354400D01*
X87693583Y-92354400D02*
X105918000Y-92354400D01*
X71315665Y-92557600D02*
X87693583Y-92557600D01*
X87693583Y-92557600D02*
X105918000Y-92557600D01*
X70922355Y-92760800D02*
X87693583Y-92760800D01*
X87693583Y-92760800D02*
X105918000Y-92760800D01*
X66164067Y-92964000D02*
X87693583Y-92964000D01*
X87693583Y-92964000D02*
X105918000Y-92964000D01*
X65873318Y-93167200D02*
X87693583Y-93167200D01*
X87693583Y-93167200D02*
X105918000Y-93167200D01*
X65711739Y-93370400D02*
X87693583Y-93370400D01*
X87693583Y-93370400D02*
X105918000Y-93370400D01*
X65610239Y-93573600D02*
X87693583Y-93573600D01*
X87693583Y-93573600D02*
X105918000Y-93573600D01*
X65552628Y-93776800D02*
X87693583Y-93776800D01*
X87693583Y-93776800D02*
X105918000Y-93776800D01*
X65532615Y-93980000D02*
X87693583Y-93980000D01*
X87693583Y-93980000D02*
X105918000Y-93980000D01*
X65532000Y-94183200D02*
X87693583Y-94183200D01*
X87693583Y-94183200D02*
X105918000Y-94183200D01*
X65532000Y-94386400D02*
X85568900Y-94386400D01*
X85697496Y-94386400D02*
X87693583Y-94386400D01*
X87693583Y-94386400D02*
X105918000Y-94386400D01*
X65532000Y-94589600D02*
X84870777Y-94589600D01*
X86624618Y-94589600D02*
X87693583Y-94589600D01*
X87693583Y-94589600D02*
X105918000Y-94589600D01*
X65532000Y-94792800D02*
X84550704Y-94792800D01*
X86946386Y-94792800D02*
X87693583Y-94792800D01*
X87693583Y-94792800D02*
X105918000Y-94792800D01*
X65532000Y-94996000D02*
X84335324Y-94996000D01*
X87164214Y-94996000D02*
X87693583Y-94996000D01*
X87693583Y-94996000D02*
X105918000Y-94996000D01*
X65532000Y-95199200D02*
X84169625Y-95199200D01*
X87332072Y-95199200D02*
X87693583Y-95199200D01*
X87693583Y-95199200D02*
X105918000Y-95199200D01*
X65532000Y-95402400D02*
X84033826Y-95402400D01*
X87467077Y-95402400D02*
X87693583Y-95402400D01*
X87693583Y-95402400D02*
X105918000Y-95402400D01*
X65532000Y-95605600D02*
X83946734Y-95605600D01*
X87553594Y-95605600D02*
X87693583Y-95605600D01*
X87693583Y-95605600D02*
X105918000Y-95605600D01*
X65532000Y-95808800D02*
X83874588Y-95808800D01*
X87628108Y-95808800D02*
X87693583Y-95808800D01*
X87693583Y-95808800D02*
X105918000Y-95808800D01*
X65532000Y-96012000D02*
X83831397Y-96012000D01*
X87668343Y-96012000D02*
X87693583Y-96012000D01*
X87693583Y-96012000D02*
X105918000Y-96012000D01*
X65532000Y-96215200D02*
X65707164Y-96215200D01*
X67788186Y-96215200D02*
X83808630Y-96215200D01*
X87692526Y-96215200D02*
X87693583Y-96215200D01*
X87693583Y-96215200D02*
X103807164Y-96215200D01*
X105888187Y-96215200D02*
X105918000Y-96215200D01*
X68153128Y-96418400D02*
X83805792Y-96418400D01*
X87689689Y-96418400D02*
X87693583Y-96418400D01*
X87693583Y-96418400D02*
X103448286Y-96418400D01*
X68371207Y-96621600D02*
X83828279Y-96621600D01*
X87676854Y-96621600D02*
X87693583Y-96621600D01*
X87693583Y-96621600D02*
X103229790Y-96621600D01*
X68523583Y-96824800D02*
X83865573Y-96824800D01*
X87630688Y-96824800D02*
X87693583Y-96824800D01*
X87693583Y-96824800D02*
X103077855Y-96824800D01*
X68629813Y-97028000D02*
X83936812Y-97028000D01*
X87566710Y-97028000D02*
X87693583Y-97028000D01*
X87693583Y-97028000D02*
X102968980Y-97028000D01*
X68693021Y-97231200D02*
X84019430Y-97231200D01*
X87476240Y-97231200D02*
X87693583Y-97231200D01*
X87693583Y-97231200D02*
X102906079Y-97231200D01*
X68729839Y-97434400D02*
X84150384Y-97434400D01*
X87349348Y-97434400D02*
X87693583Y-97434400D01*
X87693583Y-97434400D02*
X102870459Y-97434400D01*
X68742995Y-97637600D02*
X84311793Y-97637600D01*
X87195047Y-97637600D02*
X87693583Y-97637600D01*
X87693583Y-97637600D02*
X102858512Y-97637600D01*
X68721637Y-97840800D02*
X84519326Y-97840800D01*
X86981666Y-97840800D02*
X87693583Y-97840800D01*
X87693583Y-97840800D02*
X102877005Y-97840800D01*
X68670643Y-98044000D02*
X84819868Y-98044000D01*
X86676083Y-98044000D02*
X87693583Y-98044000D01*
X87693583Y-98044000D02*
X102929111Y-98044000D01*
X68591354Y-98247200D02*
X85421124Y-98247200D01*
X86067765Y-98247200D02*
X87693583Y-98247200D01*
X87693583Y-98247200D02*
X103009500Y-98247200D01*
X68476101Y-98450400D02*
X87693583Y-98450400D01*
X87693583Y-98450400D02*
X103125878Y-98450400D01*
X68307999Y-98653600D02*
X87693583Y-98653600D01*
X87693583Y-98653600D02*
X103294328Y-98653600D01*
X68047658Y-98856800D02*
X87693583Y-98856800D01*
X87693583Y-98856800D02*
X103555130Y-98856800D01*
X65532000Y-99060000D02*
X65979580Y-99060000D01*
X67535822Y-99060000D02*
X87693583Y-99060000D01*
X87693583Y-99060000D02*
X104079580Y-99060000D01*
X105635822Y-99060000D02*
X105918000Y-99060000D01*
X65532000Y-99263200D02*
X87693583Y-99263200D01*
X87693583Y-99263200D02*
X105918000Y-99263200D01*
X65532000Y-99466400D02*
X85568900Y-99466400D01*
X85697496Y-99466400D02*
X87693583Y-99466400D01*
X87693583Y-99466400D02*
X105918000Y-99466400D01*
X65532000Y-99669600D02*
X84870777Y-99669600D01*
X86624618Y-99669600D02*
X87693583Y-99669600D01*
X87693583Y-99669600D02*
X105918000Y-99669600D01*
X65532000Y-99872800D02*
X84550704Y-99872800D01*
X86946386Y-99872800D02*
X87693583Y-99872800D01*
X87693583Y-99872800D02*
X105918000Y-99872800D01*
X65532000Y-100076000D02*
X84335324Y-100076000D01*
X87164214Y-100076000D02*
X87693583Y-100076000D01*
X87693583Y-100076000D02*
X105918000Y-100076000D01*
X65532000Y-100279200D02*
X84169625Y-100279200D01*
X87332072Y-100279200D02*
X87693583Y-100279200D01*
X87693583Y-100279200D02*
X105918000Y-100279200D01*
X65532000Y-100482400D02*
X84033826Y-100482400D01*
X87467077Y-100482400D02*
X87693583Y-100482400D01*
X87693583Y-100482400D02*
X105918000Y-100482400D01*
X65532000Y-100685600D02*
X83946734Y-100685600D01*
X87553594Y-100685600D02*
X87693583Y-100685600D01*
X87693583Y-100685600D02*
X105918000Y-100685600D01*
X65532000Y-100888800D02*
X83874588Y-100888800D01*
X87628108Y-100888800D02*
X87693583Y-100888800D01*
X87693583Y-100888800D02*
X105918000Y-100888800D01*
X65532000Y-101092000D02*
X83831397Y-101092000D01*
X87668343Y-101092000D02*
X87693583Y-101092000D01*
X87693583Y-101092000D02*
X105918000Y-101092000D01*
X65532000Y-101295200D02*
X65707164Y-101295200D01*
X67788186Y-101295200D02*
X83808630Y-101295200D01*
X87692526Y-101295200D02*
X87693583Y-101295200D01*
X87693583Y-101295200D02*
X103807164Y-101295200D01*
X105888187Y-101295200D02*
X105918000Y-101295200D01*
X68153128Y-101498400D02*
X83805792Y-101498400D01*
X87689689Y-101498400D02*
X87693583Y-101498400D01*
X87693583Y-101498400D02*
X103448286Y-101498400D01*
X68371207Y-101701600D02*
X83828279Y-101701600D01*
X87676854Y-101701600D02*
X87693583Y-101701600D01*
X87693583Y-101701600D02*
X103229790Y-101701600D01*
X68523583Y-101904800D02*
X83865573Y-101904800D01*
X87630688Y-101904800D02*
X87693583Y-101904800D01*
X87693583Y-101904800D02*
X103077855Y-101904800D01*
X68629813Y-102108000D02*
X83936812Y-102108000D01*
X87566710Y-102108000D02*
X87693583Y-102108000D01*
X87693583Y-102108000D02*
X102968980Y-102108000D01*
X68693021Y-102311200D02*
X84019430Y-102311200D01*
X87476240Y-102311200D02*
X87693583Y-102311200D01*
X87693583Y-102311200D02*
X102906079Y-102311200D01*
X68729839Y-102514400D02*
X84150384Y-102514400D01*
X87349348Y-102514400D02*
X87693583Y-102514400D01*
X87693583Y-102514400D02*
X102870459Y-102514400D01*
X68742995Y-102717600D02*
X84311793Y-102717600D01*
X87195047Y-102717600D02*
X87693583Y-102717600D01*
X87693583Y-102717600D02*
X102858512Y-102717600D01*
X68721637Y-102920800D02*
X84519326Y-102920800D01*
X86981666Y-102920800D02*
X87693583Y-102920800D01*
X87693583Y-102920800D02*
X102877005Y-102920800D01*
X68670643Y-103124000D02*
X84819868Y-103124000D01*
X86676083Y-103124000D02*
X87693583Y-103124000D01*
X87693583Y-103124000D02*
X102929111Y-103124000D01*
X68591354Y-103327200D02*
X85421124Y-103327200D01*
X86067765Y-103327200D02*
X87693583Y-103327200D01*
X87693583Y-103327200D02*
X103009500Y-103327200D01*
X68476101Y-103530400D02*
X87693583Y-103530400D01*
X87693583Y-103530400D02*
X103125878Y-103530400D01*
X68307999Y-103733600D02*
X87693583Y-103733600D01*
X87693583Y-103733600D02*
X103294328Y-103733600D01*
X68047658Y-103936800D02*
X87693583Y-103936800D01*
X87693583Y-103936800D02*
X103555130Y-103936800D01*
X65532000Y-104140000D02*
X65979580Y-104140000D01*
X67535822Y-104140000D02*
X87693583Y-104140000D01*
X87693583Y-104140000D02*
X104079580Y-104140000D01*
X105635822Y-104140000D02*
X105918000Y-104140000D01*
X65532000Y-104343200D02*
X87693583Y-104343200D01*
X87693583Y-104343200D02*
X105918000Y-104343200D01*
X65532000Y-104546400D02*
X87693583Y-104546400D01*
X87693583Y-104546400D02*
X105918000Y-104546400D01*
X65532000Y-104749600D02*
X87693583Y-104749600D01*
X87693583Y-104749600D02*
X105918000Y-104749600D01*
X65532000Y-104952800D02*
X87693583Y-104952800D01*
X87693583Y-104952800D02*
X105918000Y-104952800D01*
X65532000Y-105156000D02*
X87693583Y-105156000D01*
X87693583Y-105156000D02*
X105918000Y-105156000D01*
X65532000Y-105359200D02*
X87693583Y-105359200D01*
X87693583Y-105359200D02*
X105918000Y-105359200D01*
X65532000Y-105562400D02*
X87693583Y-105562400D01*
X87693583Y-105562400D02*
X105918000Y-105562400D01*
X65532000Y-105765600D02*
X87693583Y-105765600D01*
X87693583Y-105765600D02*
X105918000Y-105765600D01*
X65532000Y-105968800D02*
X87693583Y-105968800D01*
X87693583Y-105968800D02*
X105918000Y-105968800D01*
X65532000Y-106172000D02*
X87693583Y-106172000D01*
X87693583Y-106172000D02*
X105918000Y-106172000D01*
X65532000Y-106375200D02*
X87693583Y-106375200D01*
X87693583Y-106375200D02*
X105918000Y-106375200D01*
X65532000Y-106578400D02*
X87693583Y-106578400D01*
X87693583Y-106578400D02*
X105918000Y-106578400D01*
X65532000Y-106781600D02*
X87693583Y-106781600D01*
X87693583Y-106781600D02*
X105918000Y-106781600D01*
X65532000Y-106984800D02*
X87693583Y-106984800D01*
X87693583Y-106984800D02*
X105918000Y-106984800D01*
X65532000Y-107188000D02*
X87693583Y-107188000D01*
X87693583Y-107188000D02*
X105918000Y-107188000D01*
X65532000Y-107391200D02*
X87693583Y-107391200D01*
X87693583Y-107391200D02*
X105918000Y-107391200D01*
X65532000Y-107594400D02*
X87693583Y-107594400D01*
X87693583Y-107594400D02*
X105918000Y-107594400D01*
X65532000Y-107797600D02*
X87693583Y-107797600D01*
X87693583Y-107797600D02*
X105918000Y-107797600D01*
X65532000Y-108000800D02*
X87693583Y-108000800D01*
X87693583Y-108000800D02*
X105918000Y-108000800D01*
X65532000Y-108204000D02*
X87693583Y-108204000D01*
X87693583Y-108204000D02*
X105918000Y-108204000D01*
X65532000Y-108407200D02*
X87693583Y-108407200D01*
X87693583Y-108407200D02*
X105918000Y-108407200D01*
X65532000Y-108610400D02*
X87693583Y-108610400D01*
X87693583Y-108610400D02*
X105918000Y-108610400D01*
X65532000Y-108813600D02*
X66233425Y-108813600D01*
X67285057Y-108813600D02*
X87693583Y-108813600D01*
X87693583Y-108813600D02*
X105918000Y-108813600D01*
X67996848Y-109016800D02*
X87693583Y-109016800D01*
X87693583Y-109016800D02*
X105918000Y-109016800D01*
X68274210Y-109220000D02*
X87693583Y-109220000D01*
X87693583Y-109220000D02*
X105918000Y-109220000D01*
X68452896Y-109423200D02*
X87693583Y-109423200D01*
X87693583Y-109423200D02*
X105918000Y-109423200D01*
X68576698Y-109626400D02*
X87693583Y-109626400D01*
X87693583Y-109626400D02*
X105918000Y-109626400D01*
X68663119Y-109829600D02*
X87693583Y-109829600D01*
X87693583Y-109829600D02*
X105918000Y-109829600D01*
X68720592Y-110032800D02*
X87693583Y-110032800D01*
X87693583Y-110032800D02*
X105918000Y-110032800D01*
X68739085Y-110236000D02*
X87693583Y-110236000D01*
X87693583Y-110236000D02*
X105918000Y-110236000D01*
X68732316Y-110439200D02*
X87693583Y-110439200D01*
X87693583Y-110439200D02*
X105918000Y-110439200D01*
X68702093Y-110642400D02*
X87693583Y-110642400D01*
X87693583Y-110642400D02*
X105918000Y-110642400D01*
X68639192Y-110845600D02*
X87693583Y-110845600D01*
X87693583Y-110845600D02*
X105918000Y-110845600D01*
X68536419Y-111048800D02*
X87693583Y-111048800D01*
X87693583Y-111048800D02*
X105918000Y-111048800D01*
X68392050Y-111252000D02*
X87693583Y-111252000D01*
X87693583Y-111252000D02*
X105918000Y-111252000D01*
X68184084Y-111455200D02*
X87693583Y-111455200D01*
X87693583Y-111455200D02*
X103807164Y-111455200D01*
X105888187Y-111455200D02*
X105918000Y-111455200D01*
X68153128Y-111658400D02*
X87693583Y-111658400D01*
X87693583Y-111658400D02*
X103448286Y-111658400D01*
X68371207Y-111861600D02*
X87693583Y-111861600D01*
X87693583Y-111861600D02*
X103229790Y-111861600D01*
X68523583Y-112064800D02*
X87693583Y-112064800D01*
X87693583Y-112064800D02*
X103077855Y-112064800D01*
X68629813Y-112268000D02*
X87693583Y-112268000D01*
X87693583Y-112268000D02*
X102968980Y-112268000D01*
X68693021Y-112471200D02*
X87693583Y-112471200D01*
X87693583Y-112471200D02*
X102906079Y-112471200D01*
X68729839Y-112674400D02*
X87693583Y-112674400D01*
X87693583Y-112674400D02*
X102870459Y-112674400D01*
X68742995Y-112877600D02*
X87693583Y-112877600D01*
X87693583Y-112877600D02*
X102858512Y-112877600D01*
X68721637Y-113080800D02*
X87693583Y-113080800D01*
X87693583Y-113080800D02*
X102877005Y-113080800D01*
X68670643Y-113284000D02*
X87693583Y-113284000D01*
X87693583Y-113284000D02*
X102929111Y-113284000D01*
X68591354Y-113487200D02*
X87693583Y-113487200D01*
X87693583Y-113487200D02*
X103009500Y-113487200D01*
X68476101Y-113690400D02*
X87693583Y-113690400D01*
X87693583Y-113690400D02*
X103125878Y-113690400D01*
X68307999Y-113893600D02*
X87693583Y-113893600D01*
X87693583Y-113893600D02*
X103294328Y-113893600D01*
X68047658Y-114096800D02*
X87693583Y-114096800D01*
X87693583Y-114096800D02*
X103555131Y-114096800D01*
X65532000Y-114300000D02*
X65979580Y-114300000D01*
X67535822Y-114300000D02*
X87693583Y-114300000D01*
X87693583Y-114300000D02*
X103323712Y-114300000D01*
X65532000Y-114503200D02*
X87693583Y-114503200D01*
X87693583Y-114503200D02*
X103145739Y-114503200D01*
X65532000Y-114706400D02*
X87693583Y-114706400D01*
X87693583Y-114706400D02*
X103022920Y-114706400D01*
X65532000Y-114909600D02*
X87693583Y-114909600D01*
X87693583Y-114909600D02*
X102937529Y-114909600D01*
X65532000Y-115112800D02*
X87693583Y-115112800D01*
X87693583Y-115112800D02*
X102881137Y-115112800D01*
X65532000Y-115316000D02*
X87693583Y-115316000D01*
X87693583Y-115316000D02*
X102859780Y-115316000D01*
X65532000Y-115519200D02*
X87693583Y-115519200D01*
X87693583Y-115519200D02*
X102867759Y-115519200D01*
X65547624Y-115722400D02*
X87693583Y-115722400D01*
X87693583Y-115722400D02*
X102899209Y-115722400D01*
X65594828Y-115925600D02*
X87693583Y-115925600D01*
X87693583Y-115925600D02*
X102959014Y-115925600D01*
X65684585Y-116128800D02*
X87693583Y-116128800D01*
X87693583Y-116128800D02*
X103062616Y-116128800D01*
X65829633Y-116332000D02*
X87693583Y-116332000D01*
X87693583Y-116332000D02*
X103207567Y-116332000D01*
X66069027Y-116535200D02*
X87693583Y-116535200D01*
X87693583Y-116535200D02*
X103415410Y-116535200D01*
X105918000Y-111464657D02*
X105667921Y-111385328D01*
X105379485Y-111352975D01*
X105358721Y-111352830D01*
X104341279Y-111352830D01*
X104052419Y-111381153D01*
X103774563Y-111465043D01*
X103518292Y-111601305D01*
X103293368Y-111784748D01*
X103108359Y-112008385D01*
X102970312Y-112263698D01*
X102884484Y-112540963D01*
X102854145Y-112829618D01*
X102880451Y-113118668D01*
X102962399Y-113397104D01*
X103096868Y-113654320D01*
X103278737Y-113880518D01*
X103501077Y-114067084D01*
X103578170Y-114109466D01*
X103518292Y-114141305D01*
X103293368Y-114324748D01*
X103108359Y-114548385D01*
X102970312Y-114803698D01*
X102884484Y-115080963D01*
X102854145Y-115369618D01*
X102880451Y-115658668D01*
X102962399Y-115937104D01*
X103096868Y-116194320D01*
X103278737Y-116420518D01*
X103501077Y-116607084D01*
X103693736Y-116713000D01*
X87693583Y-116713000D01*
X87693583Y-101219469D01*
X87693583Y-96139469D01*
X87693583Y-83439469D01*
X87693583Y-78359469D01*
X87619568Y-77985665D01*
X87544164Y-77802720D01*
X87544164Y-60790000D01*
X87544164Y-58590000D01*
X87534449Y-58470470D01*
X87472424Y-58272112D01*
X87357698Y-58098817D01*
X87199319Y-57964248D01*
X87009771Y-57879014D01*
X86804000Y-57849836D01*
X84604000Y-57849836D01*
X84484470Y-57859551D01*
X84286112Y-57921576D01*
X84112817Y-58036302D01*
X83978248Y-58194681D01*
X83893014Y-58384229D01*
X83863836Y-58590000D01*
X83863836Y-60790000D01*
X83873551Y-60909530D01*
X83935576Y-61107888D01*
X84050302Y-61281183D01*
X84208681Y-61415752D01*
X84398229Y-61500986D01*
X84604000Y-61530164D01*
X86804000Y-61530164D01*
X86923530Y-61520449D01*
X87121888Y-61458424D01*
X87295183Y-61343698D01*
X87429752Y-61185319D01*
X87514986Y-60995771D01*
X87544164Y-60790000D01*
X87544164Y-77802720D01*
X87474357Y-77633356D01*
X87263481Y-77315962D01*
X86994972Y-77045571D01*
X86679057Y-76832484D01*
X86327771Y-76684817D01*
X85954492Y-76608194D01*
X85573440Y-76605534D01*
X85199128Y-76676938D01*
X84845814Y-76819686D01*
X84526955Y-77028341D01*
X84254697Y-77294956D01*
X84039409Y-77609375D01*
X83889293Y-77959622D01*
X83810066Y-78332357D01*
X83804746Y-78713381D01*
X83873535Y-79088182D01*
X84013813Y-79442485D01*
X84220237Y-79762792D01*
X84484945Y-80036905D01*
X84797853Y-80254382D01*
X85147044Y-80406940D01*
X85519216Y-80488767D01*
X85900194Y-80496747D01*
X86275466Y-80430577D01*
X86630739Y-80292776D01*
X86952480Y-80088593D01*
X87228434Y-79825805D01*
X87448091Y-79514422D01*
X87603082Y-79166305D01*
X87687506Y-78794713D01*
X87693583Y-78359469D01*
X87693583Y-83439469D01*
X87619568Y-83065665D01*
X87474357Y-82713356D01*
X87263481Y-82395962D01*
X86994972Y-82125571D01*
X86679057Y-81912484D01*
X86327771Y-81764817D01*
X85954492Y-81688194D01*
X85573440Y-81685534D01*
X85199128Y-81756938D01*
X84845814Y-81899686D01*
X84526955Y-82108341D01*
X84254697Y-82374956D01*
X84039409Y-82689375D01*
X83889293Y-83039622D01*
X83810066Y-83412357D01*
X83804746Y-83793381D01*
X83873535Y-84168182D01*
X84013813Y-84522485D01*
X84220237Y-84842792D01*
X84484945Y-85116905D01*
X84797853Y-85334382D01*
X85147044Y-85486940D01*
X85519216Y-85568767D01*
X85900194Y-85576747D01*
X86275466Y-85510577D01*
X86630739Y-85372776D01*
X86952480Y-85168593D01*
X87228434Y-84905805D01*
X87448091Y-84594422D01*
X87603082Y-84246305D01*
X87687506Y-83874713D01*
X87693583Y-83439469D01*
X87693583Y-96139469D01*
X87619568Y-95765665D01*
X87474357Y-95413356D01*
X87263481Y-95095962D01*
X86994972Y-94825571D01*
X86679057Y-94612484D01*
X86327771Y-94464817D01*
X85954492Y-94388194D01*
X85573440Y-94385534D01*
X85199128Y-94456938D01*
X84845814Y-94599686D01*
X84526955Y-94808341D01*
X84254697Y-95074956D01*
X84039409Y-95389375D01*
X83889293Y-95739622D01*
X83810066Y-96112357D01*
X83804746Y-96493381D01*
X83873535Y-96868182D01*
X84013813Y-97222485D01*
X84220237Y-97542792D01*
X84484945Y-97816905D01*
X84797853Y-98034382D01*
X85147044Y-98186940D01*
X85519216Y-98268767D01*
X85900194Y-98276747D01*
X86275466Y-98210577D01*
X86630739Y-98072776D01*
X86952480Y-97868593D01*
X87228434Y-97605805D01*
X87448091Y-97294422D01*
X87603082Y-96946305D01*
X87687506Y-96574713D01*
X87693583Y-96139469D01*
X87693583Y-101219469D01*
X87619568Y-100845665D01*
X87474357Y-100493356D01*
X87263481Y-100175962D01*
X86994972Y-99905571D01*
X86679057Y-99692484D01*
X86327771Y-99544817D01*
X85954492Y-99468194D01*
X85573440Y-99465534D01*
X85199128Y-99536938D01*
X84845814Y-99679686D01*
X84526955Y-99888341D01*
X84254697Y-100154956D01*
X84039409Y-100469375D01*
X83889293Y-100819622D01*
X83810066Y-101192357D01*
X83804746Y-101573381D01*
X83873535Y-101948182D01*
X84013813Y-102302485D01*
X84220237Y-102622792D01*
X84484945Y-102896905D01*
X84797853Y-103114382D01*
X85147044Y-103266940D01*
X85519216Y-103348767D01*
X85900194Y-103356747D01*
X86275466Y-103290577D01*
X86630739Y-103152776D01*
X86952480Y-102948593D01*
X87228434Y-102685805D01*
X87448091Y-102374422D01*
X87603082Y-102026305D01*
X87687506Y-101654713D01*
X87693583Y-101219469D01*
X87693583Y-116713000D01*
X66681239Y-116713000D01*
X66452131Y-116690435D01*
X66237828Y-116625427D01*
X66040325Y-116519858D01*
X65867211Y-116377789D01*
X65725142Y-116204675D01*
X65619573Y-116007172D01*
X65554565Y-115792869D01*
X65532000Y-115563761D01*
X65532000Y-114139059D01*
X65655420Y-114206911D01*
X65932079Y-114294672D01*
X66220515Y-114327025D01*
X66241279Y-114327170D01*
X67258721Y-114327170D01*
X67547581Y-114298847D01*
X67825437Y-114214957D01*
X68081708Y-114078695D01*
X68306632Y-113895252D01*
X68491641Y-113671615D01*
X68629688Y-113416302D01*
X68715516Y-113139037D01*
X68745855Y-112850382D01*
X68719549Y-112561332D01*
X68637601Y-112282896D01*
X68503132Y-112025680D01*
X68321263Y-111799482D01*
X68098923Y-111612916D01*
X68021829Y-111570533D01*
X68081708Y-111538695D01*
X68306632Y-111355252D01*
X68491641Y-111131615D01*
X68629688Y-110876302D01*
X68715516Y-110599037D01*
X68745855Y-110310382D01*
X68719549Y-110021332D01*
X68637601Y-109742896D01*
X68503132Y-109485680D01*
X68321263Y-109259482D01*
X68098923Y-109072916D01*
X67844580Y-108933089D01*
X67567921Y-108845328D01*
X67279485Y-108812975D01*
X67258721Y-108812830D01*
X66241279Y-108812830D01*
X65952419Y-108841153D01*
X65674563Y-108925043D01*
X65532000Y-109000845D01*
X65532000Y-103979059D01*
X65655420Y-104046911D01*
X65932079Y-104134672D01*
X66220515Y-104167025D01*
X66241279Y-104167170D01*
X67258721Y-104167170D01*
X67547581Y-104138847D01*
X67825437Y-104054957D01*
X68081708Y-103918695D01*
X68306632Y-103735252D01*
X68491641Y-103511615D01*
X68629688Y-103256302D01*
X68715516Y-102979037D01*
X68745855Y-102690382D01*
X68719549Y-102401332D01*
X68637601Y-102122896D01*
X68503132Y-101865680D01*
X68321263Y-101639482D01*
X68098923Y-101452916D01*
X67844580Y-101313089D01*
X67567921Y-101225328D01*
X67279485Y-101192975D01*
X67258721Y-101192830D01*
X66241279Y-101192830D01*
X65952419Y-101221153D01*
X65674563Y-101305043D01*
X65532000Y-101380845D01*
X65532000Y-98899059D01*
X65655420Y-98966911D01*
X65932079Y-99054672D01*
X66220515Y-99087025D01*
X66241279Y-99087170D01*
X67258721Y-99087170D01*
X67547581Y-99058847D01*
X67825437Y-98974957D01*
X68081708Y-98838695D01*
X68306632Y-98655252D01*
X68491641Y-98431615D01*
X68629688Y-98176302D01*
X68715516Y-97899037D01*
X68745855Y-97610382D01*
X68719549Y-97321332D01*
X68637601Y-97042896D01*
X68503132Y-96785680D01*
X68321263Y-96559482D01*
X68098923Y-96372916D01*
X67844580Y-96233089D01*
X67567921Y-96145328D01*
X67279485Y-96112975D01*
X67258721Y-96112830D01*
X66241279Y-96112830D01*
X65952419Y-96141153D01*
X65674563Y-96225043D01*
X65532000Y-96300845D01*
X65532000Y-93986239D01*
X65554565Y-93757131D01*
X65619573Y-93542828D01*
X65725142Y-93345325D01*
X65867211Y-93172211D01*
X66040325Y-93030142D01*
X66237828Y-92924573D01*
X66452131Y-92859565D01*
X66681239Y-92837000D01*
X70491239Y-92837000D01*
X70757661Y-92810759D01*
X71019844Y-92731227D01*
X71261473Y-92602074D01*
X71473263Y-92428263D01*
X71647074Y-92216473D01*
X71776227Y-91974844D01*
X71855759Y-91712661D01*
X71882000Y-91446239D01*
X71882000Y-66668761D01*
X71855759Y-66402339D01*
X71776227Y-66140156D01*
X71647074Y-65898527D01*
X71473263Y-65686737D01*
X71261473Y-65512926D01*
X71019844Y-65383773D01*
X70757661Y-65304241D01*
X70491239Y-65278000D01*
X69658164Y-65278000D01*
X69658164Y-63330000D01*
X69658164Y-61130000D01*
X69648449Y-61010470D01*
X69586424Y-60812112D01*
X69471698Y-60638817D01*
X69313319Y-60504248D01*
X69123771Y-60419014D01*
X68918000Y-60389836D01*
X66718000Y-60389836D01*
X66598470Y-60399551D01*
X66400112Y-60461576D01*
X66226817Y-60576302D01*
X66092248Y-60734681D01*
X66007014Y-60924229D01*
X65977836Y-61130000D01*
X65977836Y-63330000D01*
X65987551Y-63449530D01*
X66049576Y-63647888D01*
X66164302Y-63821183D01*
X66322681Y-63955752D01*
X66512229Y-64040986D01*
X66718000Y-64070164D01*
X68918000Y-64070164D01*
X69037530Y-64060449D01*
X69235888Y-63998424D01*
X69409183Y-63883698D01*
X69543752Y-63725319D01*
X69628986Y-63535771D01*
X69658164Y-63330000D01*
X69658164Y-65278000D01*
X66681239Y-65278000D01*
X66452131Y-65255435D01*
X66237828Y-65190427D01*
X66040325Y-65084858D01*
X65867211Y-64942789D01*
X65725142Y-64769675D01*
X65619573Y-64572172D01*
X65554565Y-64357869D01*
X65532000Y-64128761D01*
X65532000Y-53998041D01*
X65546460Y-53814308D01*
X65588316Y-53639967D01*
X65656930Y-53474318D01*
X65750611Y-53321444D01*
X65870305Y-53181300D01*
X73501300Y-45550305D01*
X73641444Y-45430611D01*
X73794318Y-45336930D01*
X73959967Y-45268316D01*
X74134308Y-45226460D01*
X74318041Y-45212000D01*
X82663939Y-45212000D01*
X82877550Y-45195188D01*
X83090767Y-45144000D01*
X83293352Y-45060086D01*
X83480316Y-44945515D01*
X83643248Y-44806357D01*
X87979300Y-40470305D01*
X88119444Y-40350611D01*
X88272318Y-40256930D01*
X88437967Y-40188316D01*
X88612308Y-40146460D01*
X88796041Y-40132000D01*
X97893959Y-40132000D01*
X98077692Y-40146460D01*
X98252033Y-40188316D01*
X98417682Y-40256930D01*
X98570556Y-40350611D01*
X98710700Y-40470305D01*
X105578812Y-47338417D01*
X105724858Y-47516376D01*
X105830427Y-47713879D01*
X105895435Y-47928183D01*
X105918000Y-48157290D01*
X105918000Y-60953761D01*
X105895435Y-61182869D01*
X105830427Y-61397172D01*
X105726164Y-61592231D01*
X105726164Y-61130000D01*
X105716449Y-61010470D01*
X105654424Y-60812112D01*
X105539698Y-60638817D01*
X105381319Y-60504248D01*
X105191771Y-60419014D01*
X104986000Y-60389836D01*
X102786000Y-60389836D01*
X102666470Y-60399551D01*
X102468112Y-60461576D01*
X102294817Y-60576302D01*
X102160248Y-60734681D01*
X102075014Y-60924229D01*
X102045836Y-61130000D01*
X102045836Y-62103000D01*
X100958761Y-62103000D01*
X100692339Y-62129241D01*
X100430156Y-62208773D01*
X100188527Y-62337926D01*
X99976737Y-62511737D01*
X99802926Y-62723527D01*
X99673773Y-62965156D01*
X99594241Y-63227339D01*
X99568000Y-63493761D01*
X99568000Y-85096239D01*
X99594241Y-85362661D01*
X99673773Y-85624844D01*
X99802926Y-85866473D01*
X99976737Y-86078263D01*
X100188527Y-86252074D01*
X100430156Y-86381227D01*
X100692339Y-86460759D01*
X100958761Y-86487000D01*
X103208777Y-86487000D01*
X103108359Y-86608385D01*
X102970312Y-86863698D01*
X102884484Y-87140963D01*
X102854145Y-87429618D01*
X102880451Y-87718668D01*
X102962399Y-87997104D01*
X103096868Y-88254320D01*
X103278737Y-88480518D01*
X103501077Y-88667084D01*
X103578170Y-88709466D01*
X103518292Y-88741305D01*
X103293368Y-88924748D01*
X103108359Y-89148385D01*
X102970312Y-89403698D01*
X102884484Y-89680963D01*
X102854145Y-89969618D01*
X102880451Y-90258668D01*
X102962399Y-90537104D01*
X103096868Y-90794320D01*
X103278737Y-91020518D01*
X103501077Y-91207084D01*
X103755420Y-91346911D01*
X104032079Y-91434672D01*
X104320515Y-91467025D01*
X104341279Y-91467170D01*
X105358721Y-91467170D01*
X105647581Y-91438847D01*
X105918000Y-91357202D01*
X105918000Y-96224657D01*
X105667921Y-96145328D01*
X105379485Y-96112975D01*
X105358721Y-96112830D01*
X104341279Y-96112830D01*
X104052419Y-96141153D01*
X103774563Y-96225043D01*
X103518292Y-96361305D01*
X103293368Y-96544748D01*
X103108359Y-96768385D01*
X102970312Y-97023698D01*
X102884484Y-97300963D01*
X102854145Y-97589618D01*
X102880451Y-97878668D01*
X102962399Y-98157104D01*
X103096868Y-98414320D01*
X103278737Y-98640518D01*
X103501077Y-98827084D01*
X103755420Y-98966911D01*
X104032079Y-99054672D01*
X104320515Y-99087025D01*
X104341279Y-99087170D01*
X105358721Y-99087170D01*
X105647581Y-99058847D01*
X105918000Y-98977202D01*
X105918000Y-101304657D01*
X105667921Y-101225328D01*
X105379485Y-101192975D01*
X105358721Y-101192830D01*
X104341279Y-101192830D01*
X104052419Y-101221153D01*
X103774563Y-101305043D01*
X103518292Y-101441305D01*
X103293368Y-101624748D01*
X103108359Y-101848385D01*
X102970312Y-102103698D01*
X102884484Y-102380963D01*
X102854145Y-102669618D01*
X102880451Y-102958668D01*
X102962399Y-103237104D01*
X103096868Y-103494320D01*
X103278737Y-103720518D01*
X103501077Y-103907084D01*
X103755420Y-104046911D01*
X104032079Y-104134672D01*
X104320515Y-104167025D01*
X104341279Y-104167170D01*
X105358721Y-104167170D01*
X105647581Y-104138847D01*
X105918000Y-104057202D01*
X105918000Y-111464657D01*
X125736239Y-76327000D02*
X133713400Y-76327000D01*
X125083070Y-76530200D02*
X133713400Y-76530200D01*
X124863789Y-76733400D02*
X133713400Y-76733400D01*
X124726009Y-76936600D02*
X133713400Y-76936600D01*
X124642124Y-77139800D02*
X133713400Y-77139800D01*
X124600123Y-77343000D02*
X133713400Y-77343000D01*
X124587000Y-77546200D02*
X133713400Y-77546200D01*
X37786600Y-77749400D02*
X47548454Y-77749400D01*
X124587000Y-77749400D02*
X133713400Y-77749400D01*
X37786600Y-77952600D02*
X47814522Y-77952600D01*
X124587000Y-77952600D02*
X133713400Y-77952600D01*
X37786600Y-78155800D02*
X47966838Y-78155800D01*
X124587000Y-78155800D02*
X133713400Y-78155800D01*
X37786600Y-78359000D02*
X48062467Y-78359000D01*
X124587000Y-78359000D02*
X133713400Y-78359000D01*
X37786600Y-78562200D02*
X48114874Y-78562200D01*
X124587000Y-78562200D02*
X133713400Y-78562200D01*
X37786600Y-78765400D02*
X48133000Y-78765400D01*
X124587000Y-78765400D02*
X133713400Y-78765400D01*
X37786600Y-78968600D02*
X48133000Y-78968600D01*
X124587000Y-78968600D02*
X133713400Y-78968600D01*
X37786600Y-79171800D02*
X48133000Y-79171800D01*
X124587000Y-79171800D02*
X133713400Y-79171800D01*
X37786600Y-79375000D02*
X48133000Y-79375000D01*
X124587000Y-79375000D02*
X133713400Y-79375000D01*
X37786600Y-79578200D02*
X48133000Y-79578200D01*
X124587000Y-79578200D02*
X133713400Y-79578200D01*
X37786600Y-79781400D02*
X48133000Y-79781400D01*
X124587000Y-79781400D02*
X133713400Y-79781400D01*
X37786600Y-79984600D02*
X48133000Y-79984600D01*
X124587000Y-79984600D02*
X133713400Y-79984600D01*
X37786600Y-80187800D02*
X48133000Y-80187800D01*
X124587000Y-80187800D02*
X133713400Y-80187800D01*
X37786600Y-80391000D02*
X48133000Y-80391000D01*
X124587000Y-80391000D02*
X133713400Y-80391000D01*
X37786600Y-80594200D02*
X48133000Y-80594200D01*
X124587000Y-80594200D02*
X133713400Y-80594200D01*
X37786600Y-80797400D02*
X48133000Y-80797400D01*
X124587000Y-80797400D02*
X133713400Y-80797400D01*
X37786600Y-81000600D02*
X48133000Y-81000600D01*
X124587000Y-81000600D02*
X133713400Y-81000600D01*
X37786600Y-81203800D02*
X48133000Y-81203800D01*
X124587000Y-81203800D02*
X133713400Y-81203800D01*
X37786600Y-81407000D02*
X48133000Y-81407000D01*
X124587000Y-81407000D02*
X133713400Y-81407000D01*
X37786600Y-81610200D02*
X48133000Y-81610200D01*
X124587000Y-81610200D02*
X133713400Y-81610200D01*
X37786600Y-81813400D02*
X48133000Y-81813400D01*
X124587000Y-81813400D02*
X133713400Y-81813400D01*
X37786600Y-82016600D02*
X48133000Y-82016600D01*
X124587000Y-82016600D02*
X133713400Y-82016600D01*
X37786600Y-82219800D02*
X48133000Y-82219800D01*
X124587000Y-82219800D02*
X133713400Y-82219800D01*
X37786600Y-82423000D02*
X48133000Y-82423000D01*
X124587000Y-82423000D02*
X133713400Y-82423000D01*
X37786600Y-82626200D02*
X48133000Y-82626200D01*
X124587000Y-82626200D02*
X133713400Y-82626200D01*
X37786600Y-82829400D02*
X48133000Y-82829400D01*
X124587000Y-82829400D02*
X133713400Y-82829400D01*
X37786600Y-83032600D02*
X48133000Y-83032600D01*
X124587000Y-83032600D02*
X133713400Y-83032600D01*
X37786600Y-83235800D02*
X48133000Y-83235800D01*
X124587000Y-83235800D02*
X133713400Y-83235800D01*
X37786600Y-83439000D02*
X48133000Y-83439000D01*
X124587000Y-83439000D02*
X133713400Y-83439000D01*
X37786600Y-83642200D02*
X48133000Y-83642200D01*
X124587000Y-83642200D02*
X133713400Y-83642200D01*
X37786600Y-83845400D02*
X48133000Y-83845400D01*
X124587000Y-83845400D02*
X133713400Y-83845400D01*
X37786600Y-84048600D02*
X48133000Y-84048600D01*
X124587000Y-84048600D02*
X133713400Y-84048600D01*
X37786600Y-84251800D02*
X48133000Y-84251800D01*
X124587000Y-84251800D02*
X133713400Y-84251800D01*
X37786600Y-84455000D02*
X48133000Y-84455000D01*
X124587000Y-84455000D02*
X133713400Y-84455000D01*
X37786600Y-84658200D02*
X48133000Y-84658200D01*
X124587000Y-84658200D02*
X133713400Y-84658200D01*
X37786600Y-84861400D02*
X48133000Y-84861400D01*
X124587000Y-84861400D02*
X133713400Y-84861400D01*
X37786600Y-85064600D02*
X48133000Y-85064600D01*
X124587000Y-85064600D02*
X133713400Y-85064600D01*
X37786600Y-85267800D02*
X48133000Y-85267800D01*
X124587000Y-85267800D02*
X133713400Y-85267800D01*
X37786600Y-85471000D02*
X47833684Y-85471000D01*
X124587000Y-85471000D02*
X133713400Y-85471000D01*
X37786600Y-85674200D02*
X47456357Y-85674200D01*
X124587000Y-85674200D02*
X133713400Y-85674200D01*
X37786600Y-85877400D02*
X47272826Y-85877400D01*
X124587000Y-85877400D02*
X133713400Y-85877400D01*
X37786600Y-86080600D02*
X47160295Y-86080600D01*
X124587000Y-86080600D02*
X133713400Y-86080600D01*
X37786600Y-86283800D02*
X47098496Y-86283800D01*
X124587000Y-86283800D02*
X133713400Y-86283800D01*
X37786600Y-86487000D02*
X47078752Y-86487000D01*
X124587000Y-86487000D02*
X133713400Y-86487000D01*
X37786600Y-86690200D02*
X47098543Y-86690200D01*
X124587000Y-86690200D02*
X133713400Y-86690200D01*
X37786600Y-86893400D02*
X47160144Y-86893400D01*
X124587000Y-86893400D02*
X133713400Y-86893400D01*
X37786600Y-87096600D02*
X47271772Y-87096600D01*
X124587000Y-87096600D02*
X133713400Y-87096600D01*
X37786600Y-87299800D02*
X47455402Y-87299800D01*
X124587000Y-87299800D02*
X133713400Y-87299800D01*
X37786600Y-87503000D02*
X47844992Y-87503000D01*
X124587000Y-87503000D02*
X133713400Y-87503000D01*
X37786600Y-87706200D02*
X48130886Y-87706200D01*
X124587000Y-87706200D02*
X133713400Y-87706200D01*
X37786600Y-87909400D02*
X48081955Y-87909400D01*
X124587000Y-87909400D02*
X133713400Y-87909400D01*
X37786600Y-88112600D02*
X48003692Y-88112600D01*
X124587000Y-88112600D02*
X133713400Y-88112600D01*
X37786600Y-88315800D02*
X47968816Y-88315800D01*
X124587000Y-88315800D02*
X133713400Y-88315800D01*
X37786600Y-88519000D02*
X47973557Y-88519000D01*
X124587000Y-88519000D02*
X133713400Y-88519000D01*
X37786600Y-88722200D02*
X48018975Y-88722200D01*
X124587000Y-88722200D02*
X133713400Y-88722200D01*
X37786600Y-88925400D02*
X48111665Y-88925400D01*
X124587000Y-88925400D02*
X133713400Y-88925400D01*
X37786600Y-89128600D02*
X48133000Y-89128600D01*
X124587000Y-89128600D02*
X133713400Y-89128600D01*
X37786600Y-89331800D02*
X48133000Y-89331800D01*
X124587000Y-89331800D02*
X133713400Y-89331800D01*
X37786600Y-89535000D02*
X48133000Y-89535000D01*
X124587000Y-89535000D02*
X133713400Y-89535000D01*
X37786600Y-89738200D02*
X48133000Y-89738200D01*
X124587000Y-89738200D02*
X133713400Y-89738200D01*
X37786600Y-89941400D02*
X48133000Y-89941400D01*
X124587000Y-89941400D02*
X133713400Y-89941400D01*
X37786600Y-90144600D02*
X48133000Y-90144600D01*
X124587000Y-90144600D02*
X133713400Y-90144600D01*
X37786600Y-90347800D02*
X48133000Y-90347800D01*
X124587000Y-90347800D02*
X133713400Y-90347800D01*
X37786600Y-90551000D02*
X48133000Y-90551000D01*
X124587000Y-90551000D02*
X133713400Y-90551000D01*
X37786600Y-90754200D02*
X48133000Y-90754200D01*
X124587000Y-90754200D02*
X133713400Y-90754200D01*
X37786600Y-90957400D02*
X48133000Y-90957400D01*
X124587000Y-90957400D02*
X133713400Y-90957400D01*
X37786600Y-91160600D02*
X48133000Y-91160600D01*
X124587000Y-91160600D02*
X133713400Y-91160600D01*
X37786600Y-91363800D02*
X48133000Y-91363800D01*
X124587000Y-91363800D02*
X133713400Y-91363800D01*
X37786600Y-91567000D02*
X48133000Y-91567000D01*
X124587000Y-91567000D02*
X133713400Y-91567000D01*
X37786600Y-91770200D02*
X48133000Y-91770200D01*
X124587000Y-91770200D02*
X133713400Y-91770200D01*
X37786600Y-91973400D02*
X48133000Y-91973400D01*
X124587000Y-91973400D02*
X133713400Y-91973400D01*
X37786600Y-92176600D02*
X48133000Y-92176600D01*
X124587000Y-92176600D02*
X133713400Y-92176600D01*
X37786600Y-92379800D02*
X48133000Y-92379800D01*
X124587000Y-92379800D02*
X133713400Y-92379800D01*
X37786600Y-92583000D02*
X48133000Y-92583000D01*
X124587000Y-92583000D02*
X133713400Y-92583000D01*
X37786600Y-92786200D02*
X48133000Y-92786200D01*
X124587000Y-92786200D02*
X133713400Y-92786200D01*
X37786600Y-92989400D02*
X48133000Y-92989400D01*
X124587000Y-92989400D02*
X133713400Y-92989400D01*
X37786600Y-93192600D02*
X48133000Y-93192600D01*
X124587000Y-93192600D02*
X133713400Y-93192600D01*
X37786600Y-93395800D02*
X48133000Y-93395800D01*
X124587000Y-93395800D02*
X133713400Y-93395800D01*
X37786600Y-93599000D02*
X48133000Y-93599000D01*
X124587000Y-93599000D02*
X133713400Y-93599000D01*
X37786600Y-93802200D02*
X48133000Y-93802200D01*
X124587000Y-93802200D02*
X133713400Y-93802200D01*
X37786600Y-94005400D02*
X48133000Y-94005400D01*
X124587000Y-94005400D02*
X133713400Y-94005400D01*
X37786600Y-94208600D02*
X48133000Y-94208600D01*
X124587000Y-94208600D02*
X133713400Y-94208600D01*
X37786600Y-94411800D02*
X48133000Y-94411800D01*
X124587000Y-94411800D02*
X133713400Y-94411800D01*
X37786600Y-94615000D02*
X48133000Y-94615000D01*
X124587000Y-94615000D02*
X133713400Y-94615000D01*
X37847805Y-94818200D02*
X48133000Y-94818200D01*
X124587000Y-94818200D02*
X133602195Y-94818200D01*
X38051005Y-95021400D02*
X48133000Y-95021400D01*
X124587000Y-95021400D02*
X133398995Y-95021400D01*
X38254205Y-95224600D02*
X48049295Y-95224600D01*
X124587000Y-95224600D02*
X133195795Y-95224600D01*
X38457405Y-95427800D02*
X47987496Y-95427800D01*
X124587000Y-95427800D02*
X132992595Y-95427800D01*
X38660605Y-95631000D02*
X47967752Y-95631000D01*
X124587000Y-95631000D02*
X132789395Y-95631000D01*
X38863805Y-95834200D02*
X47987543Y-95834200D01*
X124587000Y-95834200D02*
X132586195Y-95834200D01*
X39067005Y-96037400D02*
X48049144Y-96037400D01*
X124587000Y-96037400D02*
X132382995Y-96037400D01*
X39270205Y-96240600D02*
X48133000Y-96240600D01*
X124587000Y-96240600D02*
X132179795Y-96240600D01*
X39473405Y-96443800D02*
X48133000Y-96443800D01*
X124587000Y-96443800D02*
X131976595Y-96443800D01*
X39676605Y-96647000D02*
X48133000Y-96647000D01*
X124587000Y-96647000D02*
X131773395Y-96647000D01*
X39879805Y-96850200D02*
X48133000Y-96850200D01*
X124587000Y-96850200D02*
X131570195Y-96850200D01*
X40083005Y-97053400D02*
X48133000Y-97053400D01*
X124587000Y-97053400D02*
X131366995Y-97053400D01*
X40286205Y-97256600D02*
X48133000Y-97256600D01*
X124587000Y-97256600D02*
X131163795Y-97256600D01*
X40489405Y-97459800D02*
X48133000Y-97459800D01*
X124587000Y-97459800D02*
X130960595Y-97459800D01*
X40692605Y-97663000D02*
X48133000Y-97663000D01*
X124587000Y-97663000D02*
X130757395Y-97663000D01*
X40895805Y-97866200D02*
X48133000Y-97866200D01*
X124587000Y-97866200D02*
X130554195Y-97866200D01*
X41099005Y-98069400D02*
X48133000Y-98069400D01*
X124587000Y-98069400D02*
X130350995Y-98069400D01*
X41302205Y-98272600D02*
X48133000Y-98272600D01*
X124587000Y-98272600D02*
X130147795Y-98272600D01*
X41505405Y-98475800D02*
X48133000Y-98475800D01*
X124587000Y-98475800D02*
X129944595Y-98475800D01*
X41708605Y-98679000D02*
X48133000Y-98679000D01*
X124587000Y-98679000D02*
X129741395Y-98679000D01*
X41911805Y-98882200D02*
X48133000Y-98882200D01*
X124587000Y-98882200D02*
X129538195Y-98882200D01*
X42115005Y-99085400D02*
X48133000Y-99085400D01*
X124587000Y-99085400D02*
X129334995Y-99085400D01*
X42318205Y-99288600D02*
X48133000Y-99288600D01*
X124575830Y-99288600D02*
X129131795Y-99288600D01*
X42521405Y-99491800D02*
X48133000Y-99491800D01*
X124545534Y-99491800D02*
X128928595Y-99491800D01*
X42724605Y-99695000D02*
X48133000Y-99695000D01*
X124483895Y-99695000D02*
X128725395Y-99695000D01*
X42927805Y-99898200D02*
X48133000Y-99898200D01*
X124377315Y-99898200D02*
X128522195Y-99898200D01*
X43131005Y-100101400D02*
X48133000Y-100101400D01*
X124224066Y-100101400D02*
X128318995Y-100101400D01*
X43334205Y-100304600D02*
X48133000Y-100304600D01*
X124030005Y-100304600D02*
X128115795Y-100304600D01*
X43537405Y-100507800D02*
X48138027Y-100507800D01*
X123826805Y-100507800D02*
X127912595Y-100507800D01*
X43740605Y-100711000D02*
X48162644Y-100711000D01*
X123623605Y-100711000D02*
X127709395Y-100711000D01*
X43943805Y-100914200D02*
X48218991Y-100914200D01*
X123420405Y-100914200D02*
X127506195Y-100914200D01*
X44147005Y-101117400D02*
X48311907Y-101117400D01*
X123217205Y-101117400D02*
X127302995Y-101117400D01*
X44350205Y-101320600D02*
X48450973Y-101320600D01*
X123014005Y-101320600D02*
X127099795Y-101320600D01*
X44553405Y-101523800D02*
X48639195Y-101523800D01*
X122810805Y-101523800D02*
X126896595Y-101523800D01*
X44756605Y-101727000D02*
X48842395Y-101727000D01*
X122607605Y-101727000D02*
X126693395Y-101727000D01*
X44959805Y-101930200D02*
X49045595Y-101930200D01*
X122404405Y-101930200D02*
X126490195Y-101930200D01*
X45163005Y-102133400D02*
X49248795Y-102133400D01*
X122201205Y-102133400D02*
X126286995Y-102133400D01*
X45366205Y-102336600D02*
X49451995Y-102336600D01*
X121998005Y-102336600D02*
X126083795Y-102336600D01*
X45569405Y-102539800D02*
X49655195Y-102539800D01*
X121794805Y-102539800D02*
X125880595Y-102539800D01*
X45772605Y-102743000D02*
X49858395Y-102743000D01*
X121591605Y-102743000D02*
X125677395Y-102743000D01*
X45975805Y-102946200D02*
X50061595Y-102946200D01*
X121388405Y-102946200D02*
X125474195Y-102946200D01*
X46179005Y-103149400D02*
X50264795Y-103149400D01*
X121185205Y-103149400D02*
X125270995Y-103149400D01*
X46382205Y-103352600D02*
X50467995Y-103352600D01*
X120982005Y-103352600D02*
X125067795Y-103352600D01*
X46585405Y-103555800D02*
X50671195Y-103555800D01*
X120778805Y-103555800D02*
X124864595Y-103555800D01*
X46788605Y-103759000D02*
X50874395Y-103759000D01*
X120575605Y-103759000D02*
X124661395Y-103759000D01*
X46991805Y-103962200D02*
X51077595Y-103962200D01*
X120372405Y-103962200D02*
X124458195Y-103962200D01*
X47195005Y-104165400D02*
X51280795Y-104165400D01*
X120169205Y-104165400D02*
X124254995Y-104165400D01*
X47398205Y-104368600D02*
X51483995Y-104368600D01*
X119966005Y-104368600D02*
X124051795Y-104368600D01*
X47601405Y-104571800D02*
X51687195Y-104571800D01*
X119762805Y-104571800D02*
X123848595Y-104571800D01*
X47804605Y-104775000D02*
X51890395Y-104775000D01*
X119559605Y-104775000D02*
X123645395Y-104775000D01*
X48007805Y-104978200D02*
X52093595Y-104978200D01*
X119356405Y-104978200D02*
X123442195Y-104978200D01*
X48211005Y-105181400D02*
X52296795Y-105181400D01*
X119153205Y-105181400D02*
X123238995Y-105181400D01*
X48414205Y-105384600D02*
X52499995Y-105384600D01*
X118950005Y-105384600D02*
X123035795Y-105384600D01*
X48617405Y-105587800D02*
X52703195Y-105587800D01*
X118746805Y-105587800D02*
X122832595Y-105587800D01*
X48820605Y-105791000D02*
X52906395Y-105791000D01*
X118543605Y-105791000D02*
X122629395Y-105791000D01*
X49023805Y-105994200D02*
X53109595Y-105994200D01*
X118340405Y-105994200D02*
X122426195Y-105994200D01*
X49227005Y-106197400D02*
X53312795Y-106197400D01*
X118137205Y-106197400D02*
X122222995Y-106197400D01*
X49430205Y-106400600D02*
X53515995Y-106400600D01*
X117934005Y-106400600D02*
X122019795Y-106400600D01*
X49633405Y-106603800D02*
X53719195Y-106603800D01*
X117730805Y-106603800D02*
X121816595Y-106603800D01*
X49836605Y-106807000D02*
X53922395Y-106807000D01*
X117527605Y-106807000D02*
X121613395Y-106807000D01*
X50039805Y-107010200D02*
X54125595Y-107010200D01*
X117324405Y-107010200D02*
X121410195Y-107010200D01*
X50243005Y-107213400D02*
X54328795Y-107213400D01*
X117121205Y-107213400D02*
X121206995Y-107213400D01*
X50446205Y-107416600D02*
X54531995Y-107416600D01*
X116918005Y-107416600D02*
X121003795Y-107416600D01*
X50649405Y-107619800D02*
X54735195Y-107619800D01*
X116714805Y-107619800D02*
X120800595Y-107619800D01*
X50852605Y-107823000D02*
X54938395Y-107823000D01*
X116511605Y-107823000D02*
X120597395Y-107823000D01*
X51055805Y-108026200D02*
X55141595Y-108026200D01*
X116308405Y-108026200D02*
X120394195Y-108026200D01*
X51259005Y-108229400D02*
X55344795Y-108229400D01*
X116105205Y-108229400D02*
X120190995Y-108229400D01*
X51462205Y-108432600D02*
X55547995Y-108432600D01*
X115902005Y-108432600D02*
X119987795Y-108432600D01*
X51665405Y-108635800D02*
X55751195Y-108635800D01*
X115698805Y-108635800D02*
X119784595Y-108635800D01*
X51868605Y-108839000D02*
X55954395Y-108839000D01*
X115495605Y-108839000D02*
X119581395Y-108839000D01*
X52071805Y-109042200D02*
X56157595Y-109042200D01*
X115292405Y-109042200D02*
X119378195Y-109042200D01*
X52275005Y-109245400D02*
X56360795Y-109245400D01*
X115089205Y-109245400D02*
X119174995Y-109245400D01*
X52478205Y-109448600D02*
X56563995Y-109448600D01*
X114886005Y-109448600D02*
X118971795Y-109448600D01*
X52681405Y-109651800D02*
X56767195Y-109651800D01*
X114682805Y-109651800D02*
X118768595Y-109651800D01*
X52884605Y-109855000D02*
X56970395Y-109855000D01*
X114479605Y-109855000D02*
X118565395Y-109855000D01*
X53087805Y-110058200D02*
X57173595Y-110058200D01*
X114276405Y-110058200D02*
X118362195Y-110058200D01*
X53291005Y-110261400D02*
X57376795Y-110261400D01*
X114073205Y-110261400D02*
X118158995Y-110261400D01*
X53494205Y-110464600D02*
X57579995Y-110464600D01*
X113870005Y-110464600D02*
X117955795Y-110464600D01*
X53697405Y-110667800D02*
X57783195Y-110667800D01*
X113666805Y-110667800D02*
X117752595Y-110667800D01*
X53900605Y-110871000D02*
X57986395Y-110871000D01*
X113463605Y-110871000D02*
X117549395Y-110871000D01*
X54103805Y-111074200D02*
X58189595Y-111074200D01*
X113260405Y-111074200D02*
X117346195Y-111074200D01*
X54307005Y-111277400D02*
X58392795Y-111277400D01*
X113057205Y-111277400D02*
X117142995Y-111277400D01*
X54510205Y-111480600D02*
X58595995Y-111480600D01*
X112854005Y-111480600D02*
X116939795Y-111480600D01*
X54713405Y-111683800D02*
X58799195Y-111683800D01*
X112650805Y-111683800D02*
X116736595Y-111683800D01*
X54916605Y-111887000D02*
X59002395Y-111887000D01*
X112447605Y-111887000D02*
X116533395Y-111887000D01*
X55119805Y-112090200D02*
X59205595Y-112090200D01*
X112244405Y-112090200D02*
X116330195Y-112090200D01*
X55323005Y-112293400D02*
X59408795Y-112293400D01*
X112041205Y-112293400D02*
X116126995Y-112293400D01*
X55526205Y-112496600D02*
X59611995Y-112496600D01*
X111838005Y-112496600D02*
X115923795Y-112496600D01*
X55729405Y-112699800D02*
X59815195Y-112699800D01*
X111634805Y-112699800D02*
X115720595Y-112699800D01*
X55932605Y-112903000D02*
X60018395Y-112903000D01*
X111431605Y-112903000D02*
X115517395Y-112903000D01*
X56135805Y-113106200D02*
X60221595Y-113106200D01*
X111228405Y-113106200D02*
X115314195Y-113106200D01*
X56339005Y-113309400D02*
X60424795Y-113309400D01*
X111025205Y-113309400D02*
X115110995Y-113309400D01*
X56542205Y-113512600D02*
X60627995Y-113512600D01*
X110822005Y-113512600D02*
X114907795Y-113512600D01*
X56745405Y-113715800D02*
X60831195Y-113715800D01*
X110618805Y-113715800D02*
X114704595Y-113715800D01*
X56948605Y-113919000D02*
X61034395Y-113919000D01*
X110415605Y-113919000D02*
X114501395Y-113919000D01*
X57151805Y-114122200D02*
X61237595Y-114122200D01*
X110212405Y-114122200D02*
X114298195Y-114122200D01*
X57355005Y-114325400D02*
X61440795Y-114325400D01*
X110009205Y-114325400D02*
X114094995Y-114325400D01*
X57558205Y-114528600D02*
X61643995Y-114528600D01*
X109806005Y-114528600D02*
X113891795Y-114528600D01*
X57761405Y-114731800D02*
X61847195Y-114731800D01*
X109602805Y-114731800D02*
X113688595Y-114731800D01*
X57964605Y-114935000D02*
X62050395Y-114935000D01*
X109399605Y-114935000D02*
X113485395Y-114935000D01*
X58167805Y-115138200D02*
X62253595Y-115138200D01*
X109196405Y-115138200D02*
X113282195Y-115138200D01*
X58371005Y-115341400D02*
X62456795Y-115341400D01*
X108993205Y-115341400D02*
X113078995Y-115341400D01*
X58574205Y-115544600D02*
X62659995Y-115544600D01*
X108790005Y-115544600D02*
X112875795Y-115544600D01*
X58777405Y-115747800D02*
X62863195Y-115747800D01*
X108586805Y-115747800D02*
X112672595Y-115747800D01*
X58980605Y-115951000D02*
X63066395Y-115951000D01*
X108383605Y-115951000D02*
X112469395Y-115951000D01*
X59183805Y-116154200D02*
X63269595Y-116154200D01*
X108180405Y-116154200D02*
X112266195Y-116154200D01*
X59387005Y-116357400D02*
X63472795Y-116357400D01*
X107977205Y-116357400D02*
X112062995Y-116357400D01*
X59590205Y-116560600D02*
X63675995Y-116560600D01*
X107774005Y-116560600D02*
X111859795Y-116560600D01*
X59793405Y-116763800D02*
X63879195Y-116763800D01*
X107570805Y-116763800D02*
X111656595Y-116763800D01*
X59996605Y-116967000D02*
X64082395Y-116967000D01*
X107367605Y-116967000D02*
X111453395Y-116967000D01*
X60199805Y-117170200D02*
X64285595Y-117170200D01*
X107164405Y-117170200D02*
X111250195Y-117170200D01*
X60403005Y-117373400D02*
X64531414Y-117373400D01*
X106918587Y-117373400D02*
X111046995Y-117373400D01*
X60606205Y-117576600D02*
X65031930Y-117576600D01*
X106418071Y-117576600D02*
X110843795Y-117576600D01*
X60809405Y-117779800D02*
X110640595Y-117779800D01*
X61012605Y-117983000D02*
X110437395Y-117983000D01*
X61215805Y-118186200D02*
X110234195Y-118186200D01*
X61419005Y-118389400D02*
X110030995Y-118389400D01*
X61622205Y-118592600D02*
X109827795Y-118592600D01*
X61825405Y-118795800D02*
X109624595Y-118795800D01*
X62028605Y-118999000D02*
X109421395Y-118999000D01*
X62231805Y-119202200D02*
X109218195Y-119202200D01*
X62435005Y-119405400D02*
X109014995Y-119405400D01*
X62638205Y-119608600D02*
X108811795Y-119608600D01*
X62841405Y-119811800D02*
X108608595Y-119811800D01*
X63044605Y-120015000D02*
X108405395Y-120015000D01*
X63247805Y-120218200D02*
X108202195Y-120218200D01*
X63451005Y-120421400D02*
X107998995Y-120421400D01*
X63654205Y-120624600D02*
X107795795Y-120624600D01*
X63857405Y-120827800D02*
X107592595Y-120827800D01*
X64060605Y-121031000D02*
X107389395Y-121031000D01*
X64263805Y-121234200D02*
X107186195Y-121234200D01*
X64467005Y-121437400D02*
X106982995Y-121437400D01*
X64670205Y-121640600D02*
X106779795Y-121640600D01*
X64873405Y-121843800D02*
X106576595Y-121843800D01*
X65076605Y-122047000D02*
X106373395Y-122047000D01*
X65279805Y-122250200D02*
X106170195Y-122250200D01*
X65483005Y-122453400D02*
X105966995Y-122453400D01*
X65686205Y-122656600D02*
X76587140Y-122656600D01*
X77738537Y-122656600D02*
X80087140Y-122656600D01*
X81238537Y-122656600D02*
X83587140Y-122656600D01*
X84738537Y-122656600D02*
X87087140Y-122656600D01*
X88238537Y-122656600D02*
X90587140Y-122656600D01*
X91738537Y-122656600D02*
X94087140Y-122656600D01*
X95238537Y-122656600D02*
X97587140Y-122656600D01*
X98738537Y-122656600D02*
X105763795Y-122656600D01*
X65889405Y-122859800D02*
X72062174Y-122859800D01*
X73533000Y-122859800D02*
X73787000Y-122859800D01*
X75257826Y-122859800D02*
X76159768Y-122859800D01*
X78161540Y-122859800D02*
X79659768Y-122859800D01*
X81661540Y-122859800D02*
X83159768Y-122859800D01*
X85161540Y-122859800D02*
X86659768Y-122859800D01*
X88661540Y-122859800D02*
X90159768Y-122859800D01*
X92161540Y-122859800D02*
X93659768Y-122859800D01*
X95661540Y-122859800D02*
X97159768Y-122859800D01*
X99161540Y-122859800D02*
X105560595Y-122859800D01*
X66092605Y-123063000D02*
X71924991Y-123063000D01*
X73533000Y-123063000D02*
X73787000Y-123063000D01*
X75395008Y-123063000D02*
X75890015Y-123063000D01*
X78431623Y-123063000D02*
X79390015Y-123063000D01*
X81931623Y-123063000D02*
X82890015Y-123063000D01*
X85431623Y-123063000D02*
X86390015Y-123063000D01*
X88931623Y-123063000D02*
X89890015Y-123063000D01*
X92431623Y-123063000D02*
X93390015Y-123063000D01*
X95931623Y-123063000D02*
X96890015Y-123063000D01*
X99431623Y-123063000D02*
X105357395Y-123063000D01*
X66295805Y-123266200D02*
X71875000Y-123266200D01*
X73533000Y-123266200D02*
X73787000Y-123266200D01*
X75445000Y-123266200D02*
X75690841Y-123266200D01*
X78631978Y-123266200D02*
X79190841Y-123266200D01*
X82131978Y-123266200D02*
X82690841Y-123266200D01*
X85631978Y-123266200D02*
X86190841Y-123266200D01*
X89131978Y-123266200D02*
X89690841Y-123266200D01*
X92631978Y-123266200D02*
X93190841Y-123266200D01*
X96131978Y-123266200D02*
X96690841Y-123266200D01*
X99631978Y-123266200D02*
X105154195Y-123266200D01*
X66499005Y-123469400D02*
X71875000Y-123469400D01*
X73533000Y-123469400D02*
X73787000Y-123469400D01*
X75445000Y-123469400D02*
X75551707Y-123469400D01*
X78766983Y-123469400D02*
X79051707Y-123469400D01*
X82266983Y-123469400D02*
X82551707Y-123469400D01*
X85766983Y-123469400D02*
X86051707Y-123469400D01*
X89266983Y-123469400D02*
X89551707Y-123469400D01*
X92766983Y-123469400D02*
X93051707Y-123469400D01*
X96266983Y-123469400D02*
X96551707Y-123469400D01*
X99766983Y-123469400D02*
X104950995Y-123469400D01*
X66702205Y-123672600D02*
X71875000Y-123672600D01*
X73533000Y-123672600D02*
X73787000Y-123672600D01*
X78876112Y-123672600D02*
X78944810Y-123672600D01*
X82376112Y-123672600D02*
X82444810Y-123672600D01*
X85876112Y-123672600D02*
X85944810Y-123672600D01*
X89376112Y-123672600D02*
X89444810Y-123672600D01*
X92876112Y-123672600D02*
X92944810Y-123672600D01*
X96376112Y-123672600D02*
X96444810Y-123672600D01*
X99876112Y-123672600D02*
X104747795Y-123672600D01*
X66905405Y-123875800D02*
X71875000Y-123875800D01*
X73533000Y-123875800D02*
X73787000Y-123875800D01*
X99959865Y-123875800D02*
X104544595Y-123875800D01*
X67108605Y-124079000D02*
X71875000Y-124079000D01*
X73533000Y-124079000D02*
X73787000Y-124079000D01*
X100007869Y-124079000D02*
X104341395Y-124079000D01*
X67311805Y-124282200D02*
X71982950Y-124282200D01*
X73533000Y-124282200D02*
X73787000Y-124282200D01*
X100046580Y-124282200D02*
X100046680Y-124282200D01*
X100046680Y-124282200D02*
X104138195Y-124282200D01*
X67515005Y-124485400D02*
X73533000Y-124485400D01*
X73533000Y-124485400D02*
X73807000Y-124485400D01*
X100043743Y-124485400D02*
X100046680Y-124485400D01*
X100046680Y-124485400D02*
X103934995Y-124485400D01*
X67718205Y-124688600D02*
X71932150Y-124688600D01*
X73533000Y-124688600D02*
X73787000Y-124688600D01*
X100040906Y-124688600D02*
X100046680Y-124688600D01*
X100046680Y-124688600D02*
X103731795Y-124688600D01*
X67921405Y-124891800D02*
X71875000Y-124891800D01*
X73533000Y-124891800D02*
X73787000Y-124891800D01*
X99996659Y-124891800D02*
X100046680Y-124891800D01*
X100046680Y-124891800D02*
X103528595Y-124891800D01*
X68124605Y-125095000D02*
X71875000Y-125095000D01*
X73533000Y-125095000D02*
X73787000Y-125095000D01*
X99942509Y-125095000D02*
X100046680Y-125095000D01*
X100046680Y-125095000D02*
X103325395Y-125095000D01*
X68327805Y-125298200D02*
X71875000Y-125298200D01*
X73533000Y-125298200D02*
X73787000Y-125298200D01*
X75445000Y-125298200D02*
X75462691Y-125298200D01*
X78852039Y-125298200D02*
X78962691Y-125298200D01*
X82352039Y-125298200D02*
X82462691Y-125298200D01*
X85852039Y-125298200D02*
X85962691Y-125298200D01*
X89352039Y-125298200D02*
X89462691Y-125298200D01*
X92852039Y-125298200D02*
X92962691Y-125298200D01*
X96352039Y-125298200D02*
X96462691Y-125298200D01*
X99852039Y-125298200D02*
X100046680Y-125298200D01*
X100046680Y-125298200D02*
X103122195Y-125298200D01*
X68531005Y-125501400D02*
X71875000Y-125501400D01*
X73533000Y-125501400D02*
X73787000Y-125501400D01*
X75445000Y-125501400D02*
X75586603Y-125501400D01*
X78734243Y-125501400D02*
X79086603Y-125501400D01*
X82234243Y-125501400D02*
X82586603Y-125501400D01*
X85734243Y-125501400D02*
X86086603Y-125501400D01*
X89234243Y-125501400D02*
X89586603Y-125501400D01*
X92734243Y-125501400D02*
X93086603Y-125501400D01*
X96234243Y-125501400D02*
X96586603Y-125501400D01*
X99734243Y-125501400D02*
X100046680Y-125501400D01*
X100046680Y-125501400D02*
X102918995Y-125501400D01*
X68734205Y-125704600D02*
X71881377Y-125704600D01*
X73533000Y-125704600D02*
X73787000Y-125704600D01*
X75438624Y-125704600D02*
X75739102Y-125704600D01*
X78588870Y-125704600D02*
X79239102Y-125704600D01*
X82088870Y-125704600D02*
X82739102Y-125704600D01*
X85588870Y-125704600D02*
X86239102Y-125704600D01*
X89088870Y-125704600D02*
X89739102Y-125704600D01*
X92588870Y-125704600D02*
X93239102Y-125704600D01*
X96088870Y-125704600D02*
X96739102Y-125704600D01*
X99588870Y-125704600D02*
X100046680Y-125704600D01*
X100046680Y-125704600D02*
X102715795Y-125704600D01*
X68937405Y-125907800D02*
X71946034Y-125907800D01*
X73533000Y-125907800D02*
X73787000Y-125907800D01*
X75373967Y-125907800D02*
X75937285Y-125907800D01*
X78375489Y-125907800D02*
X79437285Y-125907800D01*
X81875489Y-125907800D02*
X82937285Y-125907800D01*
X85375489Y-125907800D02*
X86437285Y-125907800D01*
X88875489Y-125907800D02*
X89937285Y-125907800D01*
X92375489Y-125907800D02*
X93437285Y-125907800D01*
X95875489Y-125907800D02*
X96937285Y-125907800D01*
X99375489Y-125907800D02*
X100046680Y-125907800D01*
X100046680Y-125907800D02*
X102512595Y-125907800D01*
X69140605Y-126111000D02*
X72116830Y-126111000D01*
X73508250Y-126111000D02*
X73533000Y-126111000D01*
X73533000Y-126111000D02*
X73811750Y-126111000D01*
X75203171Y-126111000D02*
X76229651Y-126111000D01*
X78079505Y-126111000D02*
X79729651Y-126111000D01*
X81579505Y-126111000D02*
X83229651Y-126111000D01*
X85079505Y-126111000D02*
X86729651Y-126111000D01*
X88579505Y-126111000D02*
X90229651Y-126111000D01*
X92079505Y-126111000D02*
X93729651Y-126111000D01*
X95579505Y-126111000D02*
X97229651Y-126111000D01*
X99079505Y-126111000D02*
X100046680Y-126111000D01*
X100046680Y-126111000D02*
X102309395Y-126111000D01*
X69343805Y-126314200D02*
X73533000Y-126314200D01*
X73533000Y-126314200D02*
X76807311Y-126314200D01*
X77509269Y-126314200D02*
X80307311Y-126314200D01*
X81009269Y-126314200D02*
X83807311Y-126314200D01*
X84509269Y-126314200D02*
X87307311Y-126314200D01*
X88009269Y-126314200D02*
X90807311Y-126314200D01*
X91509269Y-126314200D02*
X94307311Y-126314200D01*
X95009269Y-126314200D02*
X97807311Y-126314200D01*
X98509269Y-126314200D02*
X100046680Y-126314200D01*
X100046680Y-126314200D02*
X102106195Y-126314200D01*
X69547005Y-126517400D02*
X73533000Y-126517400D01*
X73533000Y-126517400D02*
X100046680Y-126517400D01*
X100046680Y-126517400D02*
X101902995Y-126517400D01*
X69750205Y-126720600D02*
X73533000Y-126720600D01*
X73533000Y-126720600D02*
X100046680Y-126720600D01*
X100046680Y-126720600D02*
X101699795Y-126720600D01*
X69953405Y-126923800D02*
X73533000Y-126923800D01*
X73533000Y-126923800D02*
X100046680Y-126923800D01*
X100046680Y-126923800D02*
X101496595Y-126923800D01*
X70156605Y-127127000D02*
X73533000Y-127127000D01*
X73533000Y-127127000D02*
X100046680Y-127127000D01*
X100046680Y-127127000D02*
X101293395Y-127127000D01*
X70359805Y-127330200D02*
X73533000Y-127330200D01*
X73533000Y-127330200D02*
X100046680Y-127330200D01*
X100046680Y-127330200D02*
X101090195Y-127330200D01*
X70563005Y-127533400D02*
X73533000Y-127533400D01*
X73533000Y-127533400D02*
X100046680Y-127533400D01*
X100046680Y-127533400D02*
X100886995Y-127533400D01*
X70766205Y-127736600D02*
X73533000Y-127736600D01*
X73533000Y-127736600D02*
X100046680Y-127736600D01*
X100046680Y-127736600D02*
X100683795Y-127736600D01*
X70969405Y-127939800D02*
X73533000Y-127939800D01*
X73533000Y-127939800D02*
X100046680Y-127939800D01*
X100046680Y-127939800D02*
X100480595Y-127939800D01*
X71172605Y-128143000D02*
X73533000Y-128143000D01*
X73533000Y-128143000D02*
X100046680Y-128143000D01*
X100046680Y-128143000D02*
X100277395Y-128143000D01*
X71375805Y-128346200D02*
X73533000Y-128346200D01*
X73533000Y-128346200D02*
X100046680Y-128346200D01*
X100046680Y-128346200D02*
X100074195Y-128346200D01*
X71579005Y-128549400D02*
X73533000Y-128549400D01*
X73533000Y-128549400D02*
X99870995Y-128549400D01*
X71782205Y-128752600D02*
X73533000Y-128752600D01*
X73533000Y-128752600D02*
X99667795Y-128752600D01*
X71985405Y-128955800D02*
X73533000Y-128955800D01*
X73533000Y-128955800D02*
X99464595Y-128955800D01*
X72207219Y-129159000D02*
X73533000Y-129159000D01*
X73533000Y-129159000D02*
X99242780Y-129159000D01*
X72600104Y-129362200D02*
X73533000Y-129362200D01*
X73533000Y-129362200D02*
X98849895Y-129362200D01*
X133713400Y-94706995D02*
X100046680Y-128373715D01*
X100046680Y-124275009D01*
X99974817Y-123912074D01*
X99833828Y-123570010D01*
X99629084Y-123261844D01*
X99368383Y-122999316D01*
X99061654Y-122792426D01*
X98720582Y-122649052D01*
X98358158Y-122574657D01*
X97988185Y-122572074D01*
X97624757Y-122641402D01*
X97281717Y-122779999D01*
X96972130Y-122982587D01*
X96707788Y-123241450D01*
X96498761Y-123546726D01*
X96409790Y-123754309D01*
X96333828Y-123570010D01*
X96129084Y-123261844D01*
X95868383Y-122999316D01*
X95561654Y-122792426D01*
X95220582Y-122649052D01*
X94858158Y-122574657D01*
X94488185Y-122572074D01*
X94124757Y-122641402D01*
X93781717Y-122779999D01*
X93472130Y-122982587D01*
X93207788Y-123241450D01*
X92998761Y-123546726D01*
X92909790Y-123754309D01*
X92833828Y-123570010D01*
X92629084Y-123261844D01*
X92368383Y-122999316D01*
X92061654Y-122792426D01*
X91720582Y-122649052D01*
X91358158Y-122574657D01*
X90988185Y-122572074D01*
X90624757Y-122641402D01*
X90281717Y-122779999D01*
X89972130Y-122982587D01*
X89707788Y-123241450D01*
X89498761Y-123546726D01*
X89409790Y-123754309D01*
X89333828Y-123570010D01*
X89129084Y-123261844D01*
X88868383Y-122999316D01*
X88561654Y-122792426D01*
X88220582Y-122649052D01*
X87858158Y-122574657D01*
X87488185Y-122572074D01*
X87124757Y-122641402D01*
X86781717Y-122779999D01*
X86472130Y-122982587D01*
X86207788Y-123241450D01*
X85998761Y-123546726D01*
X85909790Y-123754309D01*
X85833828Y-123570010D01*
X85629084Y-123261844D01*
X85368383Y-122999316D01*
X85061654Y-122792426D01*
X84720582Y-122649052D01*
X84358158Y-122574657D01*
X83988185Y-122572074D01*
X83624757Y-122641402D01*
X83281717Y-122779999D01*
X82972130Y-122982587D01*
X82707788Y-123241450D01*
X82498761Y-123546726D01*
X82409790Y-123754309D01*
X82333828Y-123570010D01*
X82129084Y-123261844D01*
X81868383Y-122999316D01*
X81561654Y-122792426D01*
X81220582Y-122649052D01*
X80858158Y-122574657D01*
X80488185Y-122572074D01*
X80124757Y-122641402D01*
X79781717Y-122779999D01*
X79472130Y-122982587D01*
X79207788Y-123241450D01*
X78998761Y-123546726D01*
X78909790Y-123754309D01*
X78833828Y-123570010D01*
X78629084Y-123261844D01*
X78368383Y-122999316D01*
X78061654Y-122792426D01*
X77720582Y-122649052D01*
X77358158Y-122574657D01*
X76988185Y-122572074D01*
X76624757Y-122641402D01*
X76281717Y-122779999D01*
X75972130Y-122982587D01*
X75707788Y-123241450D01*
X75498761Y-123546726D01*
X75445000Y-123672159D01*
X75445000Y-123372542D01*
X75445000Y-123247458D01*
X75420597Y-123124777D01*
X75372730Y-123009215D01*
X75303237Y-122905211D01*
X75214789Y-122816763D01*
X75110785Y-122747270D01*
X74995223Y-122699403D01*
X74872542Y-122675000D01*
X73945750Y-122675000D01*
X73787000Y-122833750D01*
X73787000Y-124333000D01*
X73807000Y-124333000D01*
X73807000Y-124587000D01*
X73787000Y-124587000D01*
X73787000Y-126086250D01*
X73945750Y-126245000D01*
X74872542Y-126245000D01*
X74995223Y-126220597D01*
X75110785Y-126172730D01*
X75214789Y-126103237D01*
X75303237Y-126014789D01*
X75372730Y-125910785D01*
X75420597Y-125795223D01*
X75445000Y-125672542D01*
X75445000Y-125547458D01*
X75445000Y-125253519D01*
X75473908Y-125326533D01*
X75674330Y-125637527D01*
X75931341Y-125903669D01*
X76235151Y-126114823D01*
X76574188Y-126262944D01*
X76935538Y-126342393D01*
X77305438Y-126350141D01*
X77669799Y-126285894D01*
X78014741Y-126152100D01*
X78327127Y-125953854D01*
X78595057Y-125698708D01*
X78808326Y-125396379D01*
X78910607Y-125166652D01*
X78973908Y-125326533D01*
X79174330Y-125637527D01*
X79431341Y-125903669D01*
X79735151Y-126114823D01*
X80074188Y-126262944D01*
X80435538Y-126342393D01*
X80805438Y-126350141D01*
X81169799Y-126285894D01*
X81514741Y-126152100D01*
X81827127Y-125953854D01*
X82095057Y-125698708D01*
X82308326Y-125396379D01*
X82410607Y-125166652D01*
X82473908Y-125326533D01*
X82674330Y-125637527D01*
X82931341Y-125903669D01*
X83235151Y-126114823D01*
X83574188Y-126262944D01*
X83935538Y-126342393D01*
X84305438Y-126350141D01*
X84669799Y-126285894D01*
X85014741Y-126152100D01*
X85327127Y-125953854D01*
X85595057Y-125698708D01*
X85808326Y-125396379D01*
X85910607Y-125166652D01*
X85973908Y-125326533D01*
X86174330Y-125637527D01*
X86431341Y-125903669D01*
X86735151Y-126114823D01*
X87074188Y-126262944D01*
X87435538Y-126342393D01*
X87805438Y-126350141D01*
X88169799Y-126285894D01*
X88514741Y-126152100D01*
X88827127Y-125953854D01*
X89095057Y-125698708D01*
X89308326Y-125396379D01*
X89410607Y-125166652D01*
X89473908Y-125326533D01*
X89674330Y-125637527D01*
X89931341Y-125903669D01*
X90235151Y-126114823D01*
X90574188Y-126262944D01*
X90935538Y-126342393D01*
X91305438Y-126350141D01*
X91669799Y-126285894D01*
X92014741Y-126152100D01*
X92327127Y-125953854D01*
X92595057Y-125698708D01*
X92808326Y-125396379D01*
X92910607Y-125166652D01*
X92973908Y-125326533D01*
X93174330Y-125637527D01*
X93431341Y-125903669D01*
X93735151Y-126114823D01*
X94074188Y-126262944D01*
X94435538Y-126342393D01*
X94805438Y-126350141D01*
X95169799Y-126285894D01*
X95514741Y-126152100D01*
X95827127Y-125953854D01*
X96095057Y-125698708D01*
X96308326Y-125396379D01*
X96410607Y-125166652D01*
X96473908Y-125326533D01*
X96674330Y-125637527D01*
X96931341Y-125903669D01*
X97235151Y-126114823D01*
X97574188Y-126262944D01*
X97935538Y-126342393D01*
X98305438Y-126350141D01*
X98669799Y-126285894D01*
X99014741Y-126152100D01*
X99327127Y-125953854D01*
X99595057Y-125698708D01*
X99808326Y-125396379D01*
X99958811Y-125058385D01*
X100040780Y-124697598D01*
X100046680Y-124275009D01*
X100046680Y-128373715D01*
X99346583Y-129073812D01*
X99168624Y-129219858D01*
X98971121Y-129325427D01*
X98756817Y-129390435D01*
X98527710Y-129413000D01*
X73533000Y-129413000D01*
X73533000Y-126086250D01*
X73533000Y-124587000D01*
X73533000Y-124333000D01*
X73533000Y-122833750D01*
X73374250Y-122675000D01*
X72447458Y-122675000D01*
X72324777Y-122699403D01*
X72209215Y-122747270D01*
X72105211Y-122816763D01*
X72016763Y-122905211D01*
X71947270Y-123009215D01*
X71899403Y-123124777D01*
X71875000Y-123247458D01*
X71875000Y-123372542D01*
X71875000Y-124174250D01*
X72033750Y-124333000D01*
X73533000Y-124333000D01*
X73533000Y-124587000D01*
X72033750Y-124587000D01*
X71875000Y-124745750D01*
X71875000Y-125547458D01*
X71875000Y-125672542D01*
X71899403Y-125795223D01*
X71947270Y-125910785D01*
X72016763Y-126014789D01*
X72105211Y-126103237D01*
X72209215Y-126172730D01*
X72324777Y-126220597D01*
X72447458Y-126245000D01*
X73374250Y-126245000D01*
X73533000Y-126086250D01*
X73533000Y-129413000D01*
X72922290Y-129413000D01*
X72693183Y-129390435D01*
X72478879Y-129325427D01*
X72281376Y-129219858D01*
X72103417Y-129073812D01*
X37786600Y-94756995D01*
X37786600Y-77597000D01*
X46983761Y-77597000D01*
X47212869Y-77619565D01*
X47427172Y-77684573D01*
X47624675Y-77790142D01*
X47797789Y-77932211D01*
X47939858Y-78105325D01*
X48045427Y-78302828D01*
X48110435Y-78517131D01*
X48133000Y-78746239D01*
X48133000Y-85432829D01*
X48037002Y-85432159D01*
X47833944Y-85470895D01*
X47642277Y-85548333D01*
X47469301Y-85661525D01*
X47321606Y-85806159D01*
X47204816Y-85976727D01*
X47123380Y-86166730D01*
X47080401Y-86368932D01*
X47077515Y-86575632D01*
X47114832Y-86778955D01*
X47190930Y-86971158D01*
X47302912Y-87144920D01*
X47446511Y-87293621D01*
X47616259Y-87411599D01*
X47805689Y-87494359D01*
X47950991Y-87526305D01*
X48133000Y-87708314D01*
X48133000Y-87824500D01*
X48093816Y-87881727D01*
X48012380Y-88071730D01*
X47969401Y-88273932D01*
X47966515Y-88480632D01*
X48003832Y-88683955D01*
X48079930Y-88876158D01*
X48133000Y-88958506D01*
X48133000Y-95063500D01*
X48093816Y-95120727D01*
X48012380Y-95310730D01*
X47969401Y-95512932D01*
X47966515Y-95719632D01*
X48003832Y-95922955D01*
X48079930Y-96115158D01*
X48133000Y-96197506D01*
X48133000Y-100443939D01*
X48149812Y-100657550D01*
X48201000Y-100870767D01*
X48284914Y-101073352D01*
X48399485Y-101260316D01*
X48538643Y-101423248D01*
X64312635Y-117197240D01*
X64519578Y-117367074D01*
X64761207Y-117496227D01*
X65023391Y-117575759D01*
X65289812Y-117602000D01*
X106160188Y-117602000D01*
X106426609Y-117575759D01*
X106688793Y-117496227D01*
X106930422Y-117367074D01*
X107137365Y-117197240D01*
X124182240Y-100152365D01*
X124352074Y-99945422D01*
X124481227Y-99703793D01*
X124560759Y-99441609D01*
X124587000Y-99175188D01*
X124587000Y-77476239D01*
X124609565Y-77247131D01*
X124674573Y-77032828D01*
X124780142Y-76835325D01*
X124922211Y-76662211D01*
X125095325Y-76520142D01*
X125292828Y-76414573D01*
X125507131Y-76349565D01*
X125736239Y-76327000D01*
X133713400Y-76327000D01*
X133713400Y-94706995D01*
M02*
