G04 #@! TF.FileFunction,Copper,L1,Top,Signal*
%FSLAX46Y46*%
G04 Gerber Fmt 4.6, Leading zero omitted, Abs format (unit mm)*
G04 Created by KiCad (PCBNEW 0.201502111101+5414~21~ubuntu14.04.1-product) date Fri 13 Feb 2015 01:12:51 AM CST*
%MOMM*%
G01*
G04 APERTURE LIST*
%ADD10C,0.100000*%
%ADD11R,0.700000X1.300000*%
%ADD12R,2.499360X2.301240*%
%ADD13C,8.255000*%
%ADD14R,1.600000X1.000000*%
%ADD15R,1.000000X1.250000*%
%ADD16R,5.000000X1.000000*%
%ADD17O,2.499360X1.501140*%
%ADD18R,1.000760X0.599440*%
%ADD19C,2.413000*%
%ADD20R,0.900000X1.700000*%
%ADD21R,1.500000X0.600000*%
%ADD22R,0.800100X1.000760*%
%ADD23R,1.300000X0.700000*%
%ADD24R,2.300000X2.300000*%
%ADD25C,2.300000*%
%ADD26R,0.599440X1.000760*%
%ADD27R,2.200000X2.200000*%
%ADD28C,2.200000*%
%ADD29C,1.143000*%
%ADD30C,0.508000*%
%ADD31C,0.635000*%
%ADD32C,0.254000*%
%ADD33C,0.508000*%
%ADD34C,1.270000*%
%ADD35C,0.762000*%
G04 APERTURE END LIST*
D10*
X34686666Y-139700000D02*
G75*
G03X34686666Y-139700000I-1666666J0D01*
G01*
X30520000Y-139700000D02*
X35520000Y-139700000D01*
X33020000Y-137200000D02*
X33020000Y-142200000D01*
X121500000Y-134500000D02*
X50000000Y-134500000D01*
X134500000Y-50000000D02*
X134500000Y-121500000D01*
X50000000Y-37000000D02*
X121500000Y-37000000D01*
X37000000Y-121500000D02*
X37000000Y-50000000D01*
X121500000Y-134500000D02*
G75*
G03X134500000Y-121500000I0J13000000D01*
G01*
X134500000Y-50000000D02*
G75*
G03X121500000Y-37000000I-13000000J0D01*
G01*
X50000000Y-37000000D02*
G75*
G03X37000000Y-50000000I0J-13000000D01*
G01*
X37000000Y-121500000D02*
G75*
G03X50000000Y-134500000I13000000J0D01*
G01*
D11*
X41976000Y-87757000D03*
X43876000Y-87757000D03*
X127447000Y-89027000D03*
X129347000Y-89027000D03*
D12*
X125846840Y-79248000D03*
X121549160Y-79248000D03*
D13*
X50000000Y-50000000D03*
D14*
X85750000Y-91480000D03*
X85750000Y-88480000D03*
D15*
X41799000Y-91567000D03*
X43799000Y-91567000D03*
D16*
X56261000Y-90049000D03*
X56261000Y-84449000D03*
X115570000Y-90430000D03*
X115570000Y-84830000D03*
D15*
X127524000Y-82296000D03*
X129524000Y-82296000D03*
D17*
X66750000Y-74740000D03*
X66750000Y-72200000D03*
X66750000Y-77280000D03*
X66750000Y-112840000D03*
X66750000Y-110300000D03*
X66750000Y-115380000D03*
X104850000Y-74740000D03*
X104850000Y-77280000D03*
X104850000Y-72200000D03*
X104850000Y-112840000D03*
X104850000Y-115380000D03*
X104850000Y-110300000D03*
D18*
X60613360Y-87757500D03*
X62726640Y-88710000D03*
X60613360Y-89662500D03*
X60613360Y-100457500D03*
X62726640Y-101410000D03*
X60613360Y-102362500D03*
X110784640Y-94170500D03*
X108671360Y-93218000D03*
X110784640Y-92265500D03*
X110986640Y-99822500D03*
X108873360Y-98870000D03*
X110986640Y-97917500D03*
D12*
X46746160Y-80264000D03*
X51043840Y-80264000D03*
D13*
X50000000Y-121500000D03*
X121500000Y-50000000D03*
X121500000Y-121500000D03*
D19*
X75710000Y-42500000D03*
X80790000Y-42500000D03*
X95790000Y-42500000D03*
X90710000Y-42500000D03*
X85750400Y-83630000D03*
X85750400Y-78550000D03*
X85750400Y-101410000D03*
X85750400Y-96330000D03*
D17*
X66750000Y-87440000D03*
X66750000Y-84900000D03*
X66750000Y-89980000D03*
X66750000Y-100140000D03*
X66750000Y-97600000D03*
X66750000Y-102680000D03*
X104850000Y-87440000D03*
X104850000Y-89980000D03*
X104850000Y-84900000D03*
X104850000Y-100140000D03*
X104850000Y-102680000D03*
X104850000Y-97600000D03*
D20*
X63120000Y-84900000D03*
X60220000Y-84900000D03*
X63120000Y-97600000D03*
X60220000Y-97600000D03*
X111380000Y-89980000D03*
X108480000Y-89980000D03*
X111380000Y-102680000D03*
X108480000Y-102680000D03*
D11*
X43876000Y-85217000D03*
X41976000Y-85217000D03*
X48580000Y-76200000D03*
X50480000Y-76200000D03*
X127447000Y-86233000D03*
X129347000Y-86233000D03*
D21*
X46322000Y-83947000D03*
X46322000Y-85217000D03*
X46322000Y-86487000D03*
X46322000Y-87757000D03*
X46322000Y-89027000D03*
X46322000Y-90297000D03*
X46322000Y-91567000D03*
X51722000Y-91567000D03*
X51722000Y-90297000D03*
X51722000Y-89027000D03*
X51722000Y-87757000D03*
X51722000Y-86487000D03*
X51722000Y-85217000D03*
X51722000Y-83947000D03*
X125330000Y-89980000D03*
X125330000Y-88710000D03*
X125330000Y-87440000D03*
X125330000Y-86170000D03*
X125330000Y-84900000D03*
X125330000Y-83630000D03*
X125330000Y-82360000D03*
X119930000Y-82360000D03*
X119930000Y-83630000D03*
X119930000Y-84900000D03*
X119930000Y-86170000D03*
X119930000Y-87440000D03*
X119930000Y-88710000D03*
X119930000Y-89980000D03*
D22*
X94488000Y-117772180D03*
X95440500Y-119971820D03*
X93535500Y-119971820D03*
D23*
X91186000Y-120076000D03*
X91186000Y-118176000D03*
D24*
X73660000Y-124460000D03*
D25*
X77160000Y-124460000D03*
X80660000Y-124460000D03*
X84160000Y-124460000D03*
X87660000Y-124460000D03*
X91160000Y-124460000D03*
X94660000Y-124460000D03*
X98160000Y-124460000D03*
D26*
X97091500Y-119928640D03*
X98044000Y-117815360D03*
X98996500Y-119928640D03*
D27*
X67818000Y-62230000D03*
D28*
X67818000Y-54610000D03*
D27*
X85704000Y-59690000D03*
D28*
X85704000Y-67310000D03*
D27*
X103886000Y-62230000D03*
D28*
X103886000Y-54610000D03*
D29*
X63500000Y-67310000D03*
X63500000Y-69850000D03*
X63500000Y-72390000D03*
X66675000Y-69850000D03*
X66675000Y-67310000D03*
X69850000Y-67310000D03*
X69850000Y-69850000D03*
X69850000Y-72390000D03*
X107950000Y-69215000D03*
X104775000Y-69215000D03*
X101600000Y-69215000D03*
X101600000Y-66675000D03*
X104775000Y-66675000D03*
X107950000Y-66675000D03*
X107950000Y-64135000D03*
X101600000Y-64135000D03*
D30*
X92964000Y-118745000D03*
D31*
X129413000Y-84201000D03*
X41910000Y-89916000D03*
D30*
X47498000Y-78232000D03*
D31*
X48133000Y-86487000D03*
X50165000Y-95631000D03*
X49022000Y-88392000D03*
X49022000Y-95631000D03*
D32*
X85704000Y-59690000D02*
X102700000Y-59690000D01*
X102700000Y-59690000D02*
X103886000Y-60876000D01*
X103886000Y-60876000D02*
X103886000Y-62230000D01*
X67818000Y-62230000D02*
X84518000Y-62230000D01*
X84518000Y-62230000D02*
X85704000Y-61044000D01*
X85704000Y-61044000D02*
X85704000Y-59690000D01*
X84396000Y-57785000D02*
X85750000Y-57785000D01*
X85750000Y-57785000D02*
X102920800Y-57785000D01*
D33*
X63500000Y-69850000D02*
X63500000Y-67310000D01*
X66675000Y-69850000D02*
X66040000Y-69850000D01*
X66040000Y-69850000D02*
X63500000Y-72390000D01*
X69850000Y-67310000D02*
X66675000Y-67310000D01*
X69850000Y-72390000D02*
X69850000Y-69850000D01*
D34*
X107950000Y-69850000D02*
X104775000Y-69850000D01*
X101600000Y-69850000D02*
X101600000Y-67310000D01*
X104775000Y-67310000D02*
X107950000Y-67310000D01*
X107950000Y-64770000D02*
X104775000Y-64770000D01*
D32*
X69850000Y-59055000D02*
X68580000Y-57785000D01*
X69850000Y-67310000D02*
X69850000Y-59055000D01*
X75710000Y-44206248D02*
X75710000Y-42500000D01*
X69934000Y-57785000D02*
X75710000Y-52009000D01*
X75710000Y-52009000D02*
X75710000Y-44206248D01*
X68580000Y-57785000D02*
X69934000Y-57785000D01*
X75710000Y-42500000D02*
X80790000Y-42500000D01*
X80790000Y-54179000D02*
X84396000Y-57785000D01*
X80790000Y-42500000D02*
X80790000Y-54179000D01*
X102920800Y-62814200D02*
X102171499Y-63563501D01*
X102171499Y-63563501D02*
X101600000Y-64135000D01*
X102920800Y-57785000D02*
X102920800Y-62814200D01*
X61194741Y-66089259D02*
X61194741Y-61233259D01*
X61194741Y-61233259D02*
X67818000Y-54610000D01*
D35*
X66750000Y-115380000D02*
X67249110Y-115380000D01*
D33*
X124142000Y-84900000D02*
X125330000Y-84900000D01*
X123716399Y-85325601D02*
X124142000Y-84900000D01*
X104850000Y-110300000D02*
X106607680Y-110300000D01*
X113175168Y-100292985D02*
X123716399Y-89751754D01*
X113175168Y-103732512D02*
X113175168Y-100292985D01*
X123716399Y-89751754D02*
X123716399Y-85325601D01*
X106607680Y-110300000D02*
X113175168Y-103732512D01*
X67249110Y-100140000D02*
X66750000Y-100140000D01*
X68863290Y-98525820D02*
X67249110Y-100140000D01*
X68863290Y-96931385D02*
X68863290Y-98525820D01*
X67818304Y-95886399D02*
X68863290Y-96931385D01*
X53436917Y-95886399D02*
X67818304Y-95886399D01*
X50108399Y-92557881D02*
X53436917Y-95886399D01*
X50108399Y-91555399D02*
X50108399Y-92557881D01*
X46322000Y-89027000D02*
X47580000Y-89027000D01*
X47580000Y-89027000D02*
X50108399Y-91555399D01*
D32*
X50480000Y-76200000D02*
X51084000Y-76200000D01*
X51084000Y-76200000D02*
X61194741Y-66089259D01*
D35*
X85750000Y-91480000D02*
X85750000Y-96329600D01*
X85750000Y-96329600D02*
X85750400Y-96330000D01*
D33*
X104850000Y-87440000D02*
X110960000Y-87440000D01*
X110960000Y-87440000D02*
X113570000Y-84830000D01*
X113570000Y-84830000D02*
X115570000Y-84830000D01*
X118672000Y-86170000D02*
X119930000Y-86170000D01*
X117332000Y-84830000D02*
X118672000Y-86170000D01*
X115570000Y-84830000D02*
X117332000Y-84830000D01*
D34*
X102680000Y-87440000D02*
X104850000Y-87440000D01*
X101155000Y-87440000D02*
X104850000Y-87440000D01*
X100965000Y-87630000D02*
X101155000Y-87440000D01*
D35*
X85750000Y-88480000D02*
X85750000Y-83630400D01*
X85750000Y-83630400D02*
X85750400Y-83630000D01*
D33*
X56261000Y-89041000D02*
X56261000Y-90049000D01*
X54977000Y-87757000D02*
X56261000Y-89041000D01*
X51722000Y-87757000D02*
X54977000Y-87757000D01*
X66250890Y-87440000D02*
X66750000Y-87440000D01*
X62865069Y-90825821D02*
X66250890Y-87440000D01*
X59037821Y-90825821D02*
X62865069Y-90825821D01*
X58261000Y-90049000D02*
X59037821Y-90825821D01*
X56261000Y-90049000D02*
X58261000Y-90049000D01*
X92964000Y-118745000D02*
X93645988Y-118745000D01*
X94349571Y-118780561D02*
X95440500Y-119871490D01*
X93645988Y-118745000D02*
X93681549Y-118780561D01*
X93681549Y-118780561D02*
X94349571Y-118780561D01*
X95440500Y-119871490D02*
X95440500Y-119971820D01*
X91186000Y-118176000D02*
X92395000Y-118176000D01*
X92395000Y-118176000D02*
X92964000Y-118745000D01*
D32*
X91186000Y-118176000D02*
X91486000Y-118176000D01*
D33*
X129524000Y-84090000D02*
X129413000Y-84201000D01*
X129524000Y-82296000D02*
X129524000Y-84090000D01*
X129347000Y-84267000D02*
X129413000Y-84201000D01*
X129347000Y-86233000D02*
X129347000Y-84267000D01*
X128140000Y-87440000D02*
X129347000Y-86233000D01*
X125330000Y-87440000D02*
X128140000Y-87440000D01*
X129347000Y-89027000D02*
X129347000Y-86233000D01*
X41799000Y-90027000D02*
X41910000Y-89916000D01*
X41799000Y-91567000D02*
X41799000Y-90027000D01*
X41976000Y-89850000D02*
X41910000Y-89916000D01*
X41976000Y-87757000D02*
X41976000Y-89850000D01*
X41976000Y-85217000D02*
X41976000Y-87757000D01*
X43246000Y-86487000D02*
X41976000Y-87757000D01*
X46322000Y-86487000D02*
X43246000Y-86487000D01*
D32*
X48580000Y-77150000D02*
X47498000Y-78232000D01*
X48580000Y-76200000D02*
X48580000Y-77150000D01*
D33*
X94660000Y-124460000D02*
X97091500Y-122028500D01*
X97091500Y-122028500D02*
X97091500Y-119928640D01*
X43799000Y-91567000D02*
X43799000Y-92600566D01*
X43799000Y-92600566D02*
X43799000Y-97796011D01*
X46746160Y-80264000D02*
X44988480Y-80264000D01*
X44988480Y-80264000D02*
X40790999Y-84461481D01*
X40790999Y-92598401D02*
X40892599Y-92700001D01*
X40892599Y-92700001D02*
X43699565Y-92700001D01*
X40790999Y-84461481D02*
X40790999Y-92598401D01*
X43699565Y-92700001D02*
X43799000Y-92600566D01*
X76010001Y-123310001D02*
X77160000Y-124460000D01*
X43799000Y-97796011D02*
X68176989Y-122174000D01*
X68176989Y-122174000D02*
X74874000Y-122174000D01*
X74874000Y-122174000D02*
X76010001Y-123310001D01*
X125846840Y-79248000D02*
X125846840Y-80618840D01*
X126641130Y-81498870D02*
X126726870Y-81498870D01*
X125780000Y-82360000D02*
X126641130Y-81498870D01*
X125330000Y-82360000D02*
X125780000Y-82360000D01*
X126726870Y-81498870D02*
X127524000Y-82296000D01*
X125846840Y-80618840D02*
X126726870Y-81498870D01*
X92493989Y-126626011D02*
X79326011Y-126626011D01*
X94660000Y-124460000D02*
X92493989Y-126626011D01*
X79326011Y-126626011D02*
X78309999Y-125609999D01*
X78309999Y-125609999D02*
X77160000Y-124460000D01*
X128657001Y-81162999D02*
X127524000Y-82296000D01*
X130822401Y-81162999D02*
X128657001Y-81162999D01*
X130822401Y-95403709D02*
X130822401Y-81162999D01*
X100108109Y-126118001D02*
X130822401Y-95403709D01*
X96318001Y-126118001D02*
X100108109Y-126118001D01*
X94660000Y-124460000D02*
X96318001Y-126118001D01*
X43799000Y-91567000D02*
X46322000Y-91567000D01*
X56261000Y-84449000D02*
X54235000Y-84449000D01*
X53467000Y-85217000D02*
X51722000Y-85217000D01*
X54235000Y-84449000D02*
X53467000Y-85217000D01*
X51142900Y-80264000D02*
X52920900Y-82042000D01*
X51043840Y-80264000D02*
X51142900Y-80264000D01*
X52920900Y-82042000D02*
X52920900Y-83146900D01*
X54261000Y-84449000D02*
X56261000Y-84449000D01*
X52958900Y-83146900D02*
X54261000Y-84449000D01*
X52920900Y-83146900D02*
X52958900Y-83146900D01*
X120624402Y-88710000D02*
X119930000Y-88710000D01*
X121543601Y-87790801D02*
X120624402Y-88710000D01*
X121549160Y-80906620D02*
X121549160Y-79248000D01*
X121543601Y-80912179D02*
X121549160Y-80906620D01*
X121543601Y-87790801D02*
X121543601Y-80912179D01*
X119290000Y-88710000D02*
X119930000Y-88710000D01*
X117570000Y-90430000D02*
X119290000Y-88710000D01*
X115570000Y-90430000D02*
X117570000Y-90430000D01*
X60412700Y-87757500D02*
X60613360Y-87757500D01*
X60220000Y-85300000D02*
X60220000Y-84900000D01*
X51722000Y-86487000D02*
X59033000Y-86487000D01*
X59033000Y-86487000D02*
X60220000Y-85300000D01*
X60613360Y-87757500D02*
X60452500Y-87757500D01*
X59182000Y-86487000D02*
X59033000Y-86487000D01*
X60452500Y-87757500D02*
X59182000Y-86487000D01*
X66750000Y-84900000D02*
X63120000Y-84900000D01*
X63120000Y-88316640D02*
X62726640Y-88710000D01*
X63120000Y-84900000D02*
X63120000Y-88316640D01*
X60220000Y-100064140D02*
X60613360Y-100457500D01*
X60220000Y-97600000D02*
X60220000Y-100064140D01*
X48990789Y-93020810D02*
X53569979Y-97600000D01*
X46322000Y-90297000D02*
X47269462Y-90297000D01*
X48990789Y-92018327D02*
X48990789Y-93020810D01*
X59262000Y-97600000D02*
X60220000Y-97600000D01*
X47269462Y-90297000D02*
X48990789Y-92018327D01*
X53569979Y-97600000D02*
X59262000Y-97600000D01*
X62726640Y-97993360D02*
X63120000Y-97600000D01*
X62726640Y-101410000D02*
X62726640Y-97993360D01*
X63120000Y-97600000D02*
X66750000Y-97600000D01*
X111380000Y-89980000D02*
X111380000Y-91338000D01*
X111380000Y-91338000D02*
X111793021Y-91751021D01*
X111793021Y-91751021D02*
X111793020Y-93362780D01*
X111793020Y-93362780D02*
X110985300Y-94170500D01*
X110985300Y-94170500D02*
X110784640Y-94170500D01*
X118672000Y-87440000D02*
X119930000Y-87440000D01*
X111380000Y-89980000D02*
X111380000Y-89580000D01*
X111380000Y-89580000D02*
X112338000Y-88622000D01*
X112338000Y-88622000D02*
X117490000Y-88622000D01*
X117490000Y-88622000D02*
X118672000Y-87440000D01*
X108480000Y-89980000D02*
X108480000Y-93026640D01*
X108480000Y-93026640D02*
X108671360Y-93218000D01*
X104850000Y-89980000D02*
X108480000Y-89980000D01*
X110986640Y-102286640D02*
X111380000Y-102680000D01*
X110986640Y-99822500D02*
X110986640Y-102286640D01*
X122598789Y-89218731D02*
X122598789Y-84862672D01*
X110986640Y-99822500D02*
X111995020Y-99822500D01*
X111995020Y-99822500D02*
X122598789Y-89218731D01*
X122598789Y-84862672D02*
X123831461Y-83630000D01*
X124072000Y-83630000D02*
X125330000Y-83630000D01*
X123831461Y-83630000D02*
X124072000Y-83630000D01*
X108873360Y-102286640D02*
X108480000Y-102680000D01*
X108873360Y-98870000D02*
X108873360Y-102286640D01*
X108480000Y-102680000D02*
X104850000Y-102680000D01*
D32*
X84160000Y-124460000D02*
X85691001Y-125991001D01*
X90785399Y-116890799D02*
X98605341Y-116890799D01*
X85691001Y-125991001D02*
X88394881Y-125991001D01*
X88394881Y-125991001D02*
X89191001Y-125194881D01*
X89191001Y-125194881D02*
X89191001Y-118485197D01*
X100332551Y-118618009D02*
X106710063Y-118618009D01*
X89191001Y-118485197D02*
X90785399Y-116890799D01*
X98605341Y-116890799D02*
X100332551Y-118618009D01*
X106710063Y-118618009D02*
X127447000Y-97881072D01*
X127447000Y-97881072D02*
X127447000Y-89027000D01*
X50165000Y-101397300D02*
X50165000Y-102545539D01*
X50165000Y-102545539D02*
X50973133Y-103353672D01*
X50165000Y-95631000D02*
X50165000Y-101273376D01*
X50165000Y-101397300D02*
X50165000Y-101273376D01*
X83010001Y-123310001D02*
X84160000Y-124460000D01*
X80451610Y-120751610D02*
X83010001Y-123310001D01*
X50973133Y-103353672D02*
X68371071Y-120751610D01*
X68371071Y-120751610D02*
X80451610Y-120751610D01*
X127130000Y-88710000D02*
X127447000Y-89027000D01*
X125330000Y-88710000D02*
X127130000Y-88710000D01*
X43876000Y-85217000D02*
X46322000Y-85217000D01*
X46863000Y-85217000D02*
X48133000Y-86487000D01*
X46322000Y-85217000D02*
X46863000Y-85217000D01*
X87660000Y-124460000D02*
X87660000Y-119297764D01*
X100542976Y-118110000D02*
X106499638Y-118110000D01*
X87660000Y-119297764D02*
X90598594Y-116359170D01*
X90598594Y-116359170D02*
X98792146Y-116359170D01*
X98792146Y-116359170D02*
X100542976Y-118110000D01*
X106499638Y-118110000D02*
X125330000Y-99279638D01*
X125330000Y-99279638D02*
X125330000Y-89980000D01*
X49022000Y-95631000D02*
X49022000Y-102120972D01*
X68193762Y-121292734D02*
X69615056Y-121292734D01*
X49022000Y-102120972D02*
X68193762Y-121292734D01*
X80660000Y-124460000D02*
X77492734Y-121292734D01*
X49022000Y-86197000D02*
X49022000Y-88392000D01*
X46772000Y-83947000D02*
X49022000Y-86197000D01*
X46322000Y-83947000D02*
X46772000Y-83947000D01*
X69615056Y-121292734D02*
X69327723Y-121292734D01*
X77492734Y-121292734D02*
X69615056Y-121292734D01*
X43876000Y-87757000D02*
X46322000Y-87757000D01*
X127384000Y-86170000D02*
X127447000Y-86233000D01*
X125330000Y-86170000D02*
X127384000Y-86170000D01*
X91160000Y-120102000D02*
X91186000Y-120076000D01*
X91160000Y-124460000D02*
X91160000Y-120102000D01*
X91290180Y-119971820D02*
X91186000Y-120076000D01*
X93535500Y-119971820D02*
X91290180Y-119971820D01*
X94488000Y-117772180D02*
X98000820Y-117772180D01*
X98000820Y-117772180D02*
X98044000Y-117815360D01*
X98160000Y-124460000D02*
X98160000Y-120790130D01*
X98160000Y-120790130D02*
X98044000Y-120674130D01*
X98044000Y-120674130D02*
X98044000Y-117815360D01*
X66681239Y-76327000D02*
X86988761Y-76327000D01*
X66028070Y-76530200D02*
X87641931Y-76530200D01*
X65808789Y-76733400D02*
X87861212Y-76733400D01*
X65671009Y-76936600D02*
X87998992Y-76936600D01*
X65587124Y-77139800D02*
X88082877Y-77139800D01*
X65545123Y-77343000D02*
X88124878Y-77343000D01*
X65532000Y-77546200D02*
X88138000Y-77546200D01*
X65532000Y-77749400D02*
X88138000Y-77749400D01*
X65532000Y-77952600D02*
X88138000Y-77952600D01*
X65532000Y-78155800D02*
X88138000Y-78155800D01*
X65532000Y-78359000D02*
X88138000Y-78359000D01*
X65532000Y-78562200D02*
X88138000Y-78562200D01*
X65532000Y-78765400D02*
X88138000Y-78765400D01*
X65532000Y-78968600D02*
X88138000Y-78968600D01*
X65532000Y-79171800D02*
X88138000Y-79171800D01*
X65532000Y-79375000D02*
X88138000Y-79375000D01*
X65532000Y-79578200D02*
X88138000Y-79578200D01*
X65532000Y-79781400D02*
X88138000Y-79781400D01*
X65532000Y-79984600D02*
X88138000Y-79984600D01*
X65532000Y-80187800D02*
X88138000Y-80187800D01*
X65532000Y-80391000D02*
X88138000Y-80391000D01*
X65532000Y-80594200D02*
X88138000Y-80594200D01*
X65532000Y-80797400D02*
X88138000Y-80797400D01*
X65532000Y-81000600D02*
X88138000Y-81000600D01*
X65532000Y-81203800D02*
X88138000Y-81203800D01*
X65532000Y-81407000D02*
X88138000Y-81407000D01*
X65532000Y-81610200D02*
X88138000Y-81610200D01*
X65532000Y-81813400D02*
X88138000Y-81813400D01*
X65532000Y-82016600D02*
X88138000Y-82016600D01*
X65532000Y-82219800D02*
X88138000Y-82219800D01*
X65532000Y-82423000D02*
X88138000Y-82423000D01*
X65532000Y-82626200D02*
X88138000Y-82626200D01*
X65532000Y-82829400D02*
X88138000Y-82829400D01*
X65532000Y-83032600D02*
X88138000Y-83032600D01*
X65532000Y-83235800D02*
X88138000Y-83235800D01*
X65532000Y-83439000D02*
X65974376Y-83439000D01*
X67511505Y-83439000D02*
X88138000Y-83439000D01*
X68043051Y-83642200D02*
X88138000Y-83642200D01*
X68304480Y-83845400D02*
X88138000Y-83845400D01*
X68473318Y-84048600D02*
X88138000Y-84048600D01*
X68589977Y-84251800D02*
X88138000Y-84251800D01*
X68670594Y-84455000D02*
X88138000Y-84455000D01*
X68722904Y-84658200D02*
X88138000Y-84658200D01*
X68741397Y-84861400D02*
X88138000Y-84861400D01*
X68729646Y-85064600D02*
X88138000Y-85064600D01*
X68694231Y-85267800D02*
X88119873Y-85267800D01*
X68631330Y-85471000D02*
X88067466Y-85471000D01*
X68522686Y-85674200D02*
X87971837Y-85674200D01*
X68371037Y-85877400D02*
X87819521Y-85877400D01*
X68152940Y-86080600D02*
X87553453Y-86080600D01*
X65532000Y-86283800D02*
X65708662Y-86283800D01*
X67796148Y-86283800D02*
X83992430Y-86283800D01*
X65532000Y-86487000D02*
X83546336Y-86487000D01*
X65532000Y-86690200D02*
X83310195Y-86690200D01*
X65532000Y-86893400D02*
X83106995Y-86893400D01*
X65532000Y-87096600D02*
X82903795Y-87096600D01*
X65532000Y-87299800D02*
X82700595Y-87299800D01*
X65532000Y-87503000D02*
X82497395Y-87503000D01*
X65532000Y-87706200D02*
X82294195Y-87706200D01*
X65532000Y-87909400D02*
X82090995Y-87909400D01*
X65532000Y-88112600D02*
X81887795Y-88112600D01*
X65532000Y-88315800D02*
X81684595Y-88315800D01*
X65532000Y-88519000D02*
X65974376Y-88519000D01*
X67511505Y-88519000D02*
X81481395Y-88519000D01*
X68043051Y-88722200D02*
X81278195Y-88722200D01*
X68304480Y-88925400D02*
X81074995Y-88925400D01*
X68473318Y-89128600D02*
X80871795Y-89128600D01*
X68589977Y-89331800D02*
X80668595Y-89331800D01*
X68670594Y-89535000D02*
X80465395Y-89535000D01*
X68722904Y-89738200D02*
X80262195Y-89738200D01*
X68741397Y-89941400D02*
X80058995Y-89941400D01*
X68729646Y-90144600D02*
X79855795Y-90144600D01*
X68694231Y-90347800D02*
X79652595Y-90347800D01*
X68631330Y-90551000D02*
X79449395Y-90551000D01*
X68522686Y-90754200D02*
X79246195Y-90754200D01*
X68371037Y-90957400D02*
X79042995Y-90957400D01*
X68152940Y-91160600D02*
X78839795Y-91160600D01*
X65532000Y-91363800D02*
X65708662Y-91363800D01*
X67796148Y-91363800D02*
X78636595Y-91363800D01*
X65532000Y-91567000D02*
X78433395Y-91567000D01*
X65532000Y-91770200D02*
X78230195Y-91770200D01*
X65532000Y-91973400D02*
X78026995Y-91973400D01*
X65532000Y-92176600D02*
X77823795Y-92176600D01*
X65532000Y-92379800D02*
X77620595Y-92379800D01*
X65532000Y-92583000D02*
X77417395Y-92583000D01*
X65532000Y-92786200D02*
X77214195Y-92786200D01*
X65532000Y-92989400D02*
X77010995Y-92989400D01*
X65532000Y-93192600D02*
X76807795Y-93192600D01*
X65532000Y-93395800D02*
X76604595Y-93395800D01*
X65532000Y-93599000D02*
X76401395Y-93599000D01*
X65532000Y-93802200D02*
X76198195Y-93802200D01*
X65532000Y-94005400D02*
X75994995Y-94005400D01*
X65532000Y-94208600D02*
X75800934Y-94208600D01*
X65532000Y-94411800D02*
X75647685Y-94411800D01*
X65532000Y-94615000D02*
X75541105Y-94615000D01*
X65532000Y-94818200D02*
X75479466Y-94818200D01*
X68291364Y-95021400D02*
X75449170Y-95021400D01*
X68557425Y-95224600D02*
X75438000Y-95224600D01*
X68760625Y-95427800D02*
X75438000Y-95427800D01*
X68963825Y-95631000D02*
X75438000Y-95631000D01*
X69167025Y-95834200D02*
X75438000Y-95834200D01*
X69370225Y-96037400D02*
X75438000Y-96037400D01*
X69573290Y-96240600D02*
X75438000Y-96240600D01*
X69720997Y-96443800D02*
X75438000Y-96443800D01*
X69807304Y-96647000D02*
X75438000Y-96647000D01*
X69845929Y-96850200D02*
X75438000Y-96850200D01*
X69853890Y-97053400D02*
X75438000Y-97053400D01*
X69853890Y-97256600D02*
X75438000Y-97256600D01*
X69853890Y-97459800D02*
X75438000Y-97459800D01*
X69853890Y-97663000D02*
X75438000Y-97663000D01*
X69853890Y-97866200D02*
X75438000Y-97866200D01*
X69853890Y-98069400D02*
X75438000Y-98069400D01*
X69853890Y-98272600D02*
X75438000Y-98272600D01*
X69853890Y-98475800D02*
X75438000Y-98475800D01*
X69838676Y-98679000D02*
X75438000Y-98679000D01*
X69785252Y-98882200D02*
X75438000Y-98882200D01*
X69680689Y-99085400D02*
X75438000Y-99085400D01*
X69501430Y-99288600D02*
X75438000Y-99288600D01*
X69298230Y-99491800D02*
X75438000Y-99491800D01*
X69095030Y-99695000D02*
X75438000Y-99695000D01*
X68891830Y-99898200D02*
X75438000Y-99898200D01*
X68741396Y-100101400D02*
X75438000Y-100101400D01*
X68729646Y-100304600D02*
X75438000Y-100304600D01*
X68694231Y-100507800D02*
X75438000Y-100507800D01*
X68631330Y-100711000D02*
X75438000Y-100711000D01*
X68522686Y-100914200D02*
X75438000Y-100914200D01*
X68371037Y-101117400D02*
X75438000Y-101117400D01*
X68152940Y-101320600D02*
X75438000Y-101320600D01*
X65532000Y-101523800D02*
X65708662Y-101523800D01*
X67796148Y-101523800D02*
X75438000Y-101523800D01*
X65532000Y-101727000D02*
X75438000Y-101727000D01*
X65532000Y-101930200D02*
X75438000Y-101930200D01*
X65532000Y-102133400D02*
X75438000Y-102133400D01*
X65532000Y-102336600D02*
X75438000Y-102336600D01*
X65532000Y-102539800D02*
X75438000Y-102539800D01*
X65532000Y-102743000D02*
X75438000Y-102743000D01*
X65532000Y-102946200D02*
X75438000Y-102946200D01*
X65532000Y-103149400D02*
X75438000Y-103149400D01*
X65532000Y-103352600D02*
X75438000Y-103352600D01*
X65532000Y-103555800D02*
X75438000Y-103555800D01*
X65532000Y-103759000D02*
X75438000Y-103759000D01*
X65532000Y-103962200D02*
X75438000Y-103962200D01*
X65532000Y-104165400D02*
X75438000Y-104165400D01*
X65532000Y-104368600D02*
X75438000Y-104368600D01*
X65532000Y-104571800D02*
X75438000Y-104571800D01*
X65532000Y-104775000D02*
X75438000Y-104775000D01*
X65532000Y-104978200D02*
X75438000Y-104978200D01*
X65532000Y-105181400D02*
X75438000Y-105181400D01*
X65532000Y-105384600D02*
X75438000Y-105384600D01*
X65532000Y-105587800D02*
X75430604Y-105587800D01*
X65532000Y-105791000D02*
X75400515Y-105791000D01*
X65532000Y-105994200D02*
X75330073Y-105994200D01*
X65532000Y-106197400D02*
X75208932Y-106197400D01*
X65532000Y-106400600D02*
X75029795Y-106400600D01*
X65532000Y-106603800D02*
X74826595Y-106603800D01*
X65532000Y-106807000D02*
X74623395Y-106807000D01*
X65532000Y-107010200D02*
X74420195Y-107010200D01*
X65532000Y-107213400D02*
X74216995Y-107213400D01*
X65532000Y-107416600D02*
X74013795Y-107416600D01*
X65532000Y-107619800D02*
X73810595Y-107619800D01*
X65532000Y-107823000D02*
X73607395Y-107823000D01*
X65532000Y-108026200D02*
X73404195Y-108026200D01*
X65532000Y-108229400D02*
X73200995Y-108229400D01*
X65532000Y-108432600D02*
X72997795Y-108432600D01*
X65532000Y-108635800D02*
X72794595Y-108635800D01*
X65532000Y-108839000D02*
X72591395Y-108839000D01*
X65532000Y-109042200D02*
X72388195Y-109042200D01*
X65532000Y-109245400D02*
X72184995Y-109245400D01*
X65532000Y-109448600D02*
X71981795Y-109448600D01*
X65532000Y-109651800D02*
X71778595Y-109651800D01*
X65532000Y-109855000D02*
X71575395Y-109855000D01*
X65532000Y-110058200D02*
X71372195Y-110058200D01*
X65547624Y-110261400D02*
X71168995Y-110261400D01*
X65594828Y-110464600D02*
X70965795Y-110464600D01*
X65684585Y-110667800D02*
X70762595Y-110667800D01*
X65829633Y-110871000D02*
X70559395Y-110871000D01*
X66069027Y-111074200D02*
X70310921Y-111074200D01*
X88138000Y-85083761D02*
X88115435Y-85312869D01*
X88050427Y-85527172D01*
X87944858Y-85724675D01*
X87802789Y-85897789D01*
X87629675Y-86039858D01*
X87432172Y-86145427D01*
X87217869Y-86210435D01*
X86988761Y-86233000D01*
X84339812Y-86233000D01*
X84073391Y-86259241D01*
X83811207Y-86338773D01*
X83569578Y-86467926D01*
X83362635Y-86637760D01*
X75842760Y-94157635D01*
X75672926Y-94364578D01*
X75543773Y-94606207D01*
X75464241Y-94868391D01*
X75438000Y-95134812D01*
X75438000Y-105512710D01*
X75415435Y-105741817D01*
X75350427Y-105956121D01*
X75244858Y-106153624D01*
X75098812Y-106331583D01*
X70517583Y-110912812D01*
X70339624Y-111058858D01*
X70142121Y-111164427D01*
X69927817Y-111229435D01*
X69698710Y-111252000D01*
X66681239Y-111252000D01*
X66452131Y-111229435D01*
X66237828Y-111164427D01*
X66040325Y-111058858D01*
X65867211Y-110916789D01*
X65725142Y-110743675D01*
X65619573Y-110546172D01*
X65554565Y-110331869D01*
X65532000Y-110102761D01*
X65532000Y-101439059D01*
X65655420Y-101506911D01*
X65932079Y-101594672D01*
X66220515Y-101627025D01*
X66241279Y-101627170D01*
X67258721Y-101627170D01*
X67547581Y-101598847D01*
X67825437Y-101514957D01*
X68081708Y-101378695D01*
X68306632Y-101195252D01*
X68491641Y-100971615D01*
X68629688Y-100716302D01*
X68715516Y-100439037D01*
X68745855Y-100150382D01*
X68736995Y-100053034D01*
X69563750Y-99226280D01*
X69621817Y-99155586D01*
X69680647Y-99085476D01*
X69683156Y-99080911D01*
X69686463Y-99076886D01*
X69729693Y-98996260D01*
X69773785Y-98916059D01*
X69775360Y-98911091D01*
X69777821Y-98906503D01*
X69804570Y-98819011D01*
X69832243Y-98731777D01*
X69832823Y-98726602D01*
X69834347Y-98721619D01*
X69843598Y-98630541D01*
X69853793Y-98539651D01*
X69853864Y-98529471D01*
X69853884Y-98529278D01*
X69853867Y-98529098D01*
X69853890Y-98525820D01*
X69853890Y-96931385D01*
X69844959Y-96840300D01*
X69836985Y-96749163D01*
X69835532Y-96744164D01*
X69835024Y-96738976D01*
X69808571Y-96651360D01*
X69783048Y-96563508D01*
X69780650Y-96558881D01*
X69779145Y-96553897D01*
X69736193Y-96473115D01*
X69694077Y-96391865D01*
X69690827Y-96387794D01*
X69688382Y-96383195D01*
X69630523Y-96312253D01*
X69573461Y-96240773D01*
X69566315Y-96233526D01*
X69566191Y-96233374D01*
X69566049Y-96233256D01*
X69563750Y-96230925D01*
X68518764Y-95185939D01*
X68448070Y-95127871D01*
X68377960Y-95069042D01*
X68373395Y-95066532D01*
X68369370Y-95063226D01*
X68288709Y-95019976D01*
X68208543Y-94975904D01*
X68203579Y-94974329D01*
X68198987Y-94971867D01*
X68111449Y-94945103D01*
X68024261Y-94917446D01*
X68019086Y-94916865D01*
X68014103Y-94915342D01*
X67923025Y-94906090D01*
X67832135Y-94895896D01*
X67821955Y-94895824D01*
X67821762Y-94895805D01*
X67821582Y-94895821D01*
X67818304Y-94895799D01*
X65532000Y-94895799D01*
X65532000Y-91279059D01*
X65655420Y-91346911D01*
X65932079Y-91434672D01*
X66220515Y-91467025D01*
X66241279Y-91467170D01*
X67258721Y-91467170D01*
X67547581Y-91438847D01*
X67825437Y-91354957D01*
X68081708Y-91218695D01*
X68306632Y-91035252D01*
X68491641Y-90811615D01*
X68629688Y-90556302D01*
X68715516Y-90279037D01*
X68745855Y-89990382D01*
X68719549Y-89701332D01*
X68637601Y-89422896D01*
X68503132Y-89165680D01*
X68321263Y-88939482D01*
X68098923Y-88752916D01*
X67844580Y-88613089D01*
X67567921Y-88525328D01*
X67279485Y-88492975D01*
X67258721Y-88492830D01*
X66241279Y-88492830D01*
X65952419Y-88521153D01*
X65674563Y-88605043D01*
X65532000Y-88680845D01*
X65532000Y-86199059D01*
X65655420Y-86266911D01*
X65932079Y-86354672D01*
X66220515Y-86387025D01*
X66241279Y-86387170D01*
X67258721Y-86387170D01*
X67547581Y-86358847D01*
X67825437Y-86274957D01*
X68081708Y-86138695D01*
X68306632Y-85955252D01*
X68491641Y-85731615D01*
X68629688Y-85476302D01*
X68715516Y-85199037D01*
X68745855Y-84910382D01*
X68719549Y-84621332D01*
X68637601Y-84342896D01*
X68503132Y-84085680D01*
X68321263Y-83859482D01*
X68098923Y-83672916D01*
X67844580Y-83533089D01*
X67567921Y-83445328D01*
X67279485Y-83412975D01*
X67258721Y-83412830D01*
X66241279Y-83412830D01*
X65952419Y-83441153D01*
X65674563Y-83525043D01*
X65532000Y-83600845D01*
X65532000Y-77476239D01*
X65554565Y-77247131D01*
X65619573Y-77032828D01*
X65725142Y-76835325D01*
X65867211Y-76662211D01*
X66040325Y-76520142D01*
X66237828Y-76414573D01*
X66452131Y-76349565D01*
X66681239Y-76327000D01*
X86988761Y-76327000D01*
X87217869Y-76349565D01*
X87432172Y-76414573D01*
X87629675Y-76520142D01*
X87802789Y-76662211D01*
X87944858Y-76835325D01*
X88050427Y-77032828D01*
X88115435Y-77247131D01*
X88138000Y-77476239D01*
X88138000Y-85083761D01*
X74301239Y-40132000D02*
X82653959Y-40132000D01*
X73648070Y-40335200D02*
X83305408Y-40335200D01*
X73428789Y-40538400D02*
X83538795Y-40538400D01*
X73291009Y-40741600D02*
X83741995Y-40741600D01*
X73207124Y-40944800D02*
X83945195Y-40944800D01*
X73165123Y-41148000D02*
X84148395Y-41148000D01*
X73152000Y-41351200D02*
X84351595Y-41351200D01*
X73152000Y-41554400D02*
X84554795Y-41554400D01*
X73152000Y-41757600D02*
X84757995Y-41757600D01*
X73152000Y-41960800D02*
X84961195Y-41960800D01*
X73152000Y-42164000D02*
X85164395Y-42164000D01*
X73152000Y-42367200D02*
X85367595Y-42367200D01*
X73152000Y-42570400D02*
X85570795Y-42570400D01*
X73152000Y-42773600D02*
X85773995Y-42773600D01*
X73152000Y-42976800D02*
X85977195Y-42976800D01*
X73152000Y-43180000D02*
X86180395Y-43180000D01*
X73152000Y-43383200D02*
X86383595Y-43383200D01*
X73152000Y-43586400D02*
X86586795Y-43586400D01*
X73152000Y-43789600D02*
X86789995Y-43789600D01*
X73152000Y-43992800D02*
X86993195Y-43992800D01*
X73152000Y-44196000D02*
X87196395Y-44196000D01*
X73152000Y-44399200D02*
X87399595Y-44399200D01*
X73152000Y-44602400D02*
X87602795Y-44602400D01*
X73152000Y-44805600D02*
X87805995Y-44805600D01*
X73152000Y-45008800D02*
X88072957Y-45008800D01*
X73152000Y-45212000D02*
X91035959Y-45212000D01*
X73152000Y-45415200D02*
X91687408Y-45415200D01*
X73152000Y-45618400D02*
X91920795Y-45618400D01*
X73152000Y-45821600D02*
X92123995Y-45821600D01*
X73152000Y-46024800D02*
X92327195Y-46024800D01*
X73152000Y-46228000D02*
X92530395Y-46228000D01*
X73152000Y-46431200D02*
X92733595Y-46431200D01*
X73152000Y-46634400D02*
X92936795Y-46634400D01*
X73152000Y-46837600D02*
X93139995Y-46837600D01*
X73152000Y-47040800D02*
X93343195Y-47040800D01*
X73152000Y-47244000D02*
X93546395Y-47244000D01*
X73152000Y-47447200D02*
X93749595Y-47447200D01*
X73152000Y-47650400D02*
X93952795Y-47650400D01*
X73152000Y-47853600D02*
X94155995Y-47853600D01*
X73152000Y-48056800D02*
X94359195Y-48056800D01*
X73152000Y-48260000D02*
X94562395Y-48260000D01*
X73152000Y-48463200D02*
X94765595Y-48463200D01*
X73152000Y-48666400D02*
X94968795Y-48666400D01*
X73152000Y-48869600D02*
X95171995Y-48869600D01*
X73152000Y-49072800D02*
X95375195Y-49072800D01*
X73152000Y-49276000D02*
X95578395Y-49276000D01*
X73152000Y-49479200D02*
X95781595Y-49479200D01*
X73152000Y-49682400D02*
X95984795Y-49682400D01*
X73152000Y-49885600D02*
X96187995Y-49885600D01*
X73152000Y-50088800D02*
X96391195Y-50088800D01*
X73152000Y-50292000D02*
X96594395Y-50292000D01*
X73152000Y-50495200D02*
X96797595Y-50495200D01*
X73152000Y-50698400D02*
X97000795Y-50698400D01*
X73152000Y-50901600D02*
X97203995Y-50901600D01*
X73152000Y-51104800D02*
X97407195Y-51104800D01*
X73152000Y-51308000D02*
X97610395Y-51308000D01*
X73143332Y-51511200D02*
X97813595Y-51511200D01*
X73118239Y-51714400D02*
X98016795Y-51714400D01*
X73056600Y-51917600D02*
X98219995Y-51917600D01*
X72955892Y-52120800D02*
X98423195Y-52120800D01*
X72809912Y-52324000D02*
X98626395Y-52324000D01*
X72620405Y-52527200D02*
X98829595Y-52527200D01*
X72417205Y-52730400D02*
X99032795Y-52730400D01*
X72214005Y-52933600D02*
X99235995Y-52933600D01*
X72010805Y-53136800D02*
X99439195Y-53136800D01*
X71807605Y-53340000D02*
X99642395Y-53340000D01*
X71604405Y-53543200D02*
X99845595Y-53543200D01*
X71401205Y-53746400D02*
X100048795Y-53746400D01*
X71198005Y-53949600D02*
X100251995Y-53949600D01*
X70994805Y-54152800D02*
X100455195Y-54152800D01*
X70791605Y-54356000D02*
X100658395Y-54356000D01*
X70588405Y-54559200D02*
X100861595Y-54559200D01*
X70385205Y-54762400D02*
X101064795Y-54762400D01*
X70182005Y-54965600D02*
X101267995Y-54965600D01*
X69978805Y-55168800D02*
X101471195Y-55168800D01*
X69775605Y-55372000D02*
X101674395Y-55372000D01*
X69572405Y-55575200D02*
X101877595Y-55575200D01*
X69369205Y-55778400D02*
X102080795Y-55778400D01*
X69166005Y-55981600D02*
X102283995Y-55981600D01*
X68962805Y-56184800D02*
X102487195Y-56184800D01*
X68759605Y-56388000D02*
X102690395Y-56388000D01*
X68556405Y-56591200D02*
X102893595Y-56591200D01*
X68353205Y-56794400D02*
X103096795Y-56794400D01*
X68150005Y-56997600D02*
X103299995Y-56997600D01*
X67946805Y-57200800D02*
X103503195Y-57200800D01*
X67743605Y-57404000D02*
X103706395Y-57404000D01*
X67540405Y-57607200D02*
X103909595Y-57607200D01*
X67337205Y-57810400D02*
X104112795Y-57810400D01*
X67134005Y-58013600D02*
X104315995Y-58013600D01*
X66930805Y-58216800D02*
X104519195Y-58216800D01*
X66727605Y-58420000D02*
X104722395Y-58420000D01*
X66524405Y-58623200D02*
X104925595Y-58623200D01*
X66321205Y-58826400D02*
X105128795Y-58826400D01*
X66118005Y-59029600D02*
X105331995Y-59029600D01*
X65914805Y-59232800D02*
X105535195Y-59232800D01*
X65711605Y-59436000D02*
X105738395Y-59436000D01*
X65508405Y-59639200D02*
X105941595Y-59639200D01*
X65305205Y-59842400D02*
X106144795Y-59842400D01*
X65102005Y-60045600D02*
X106347995Y-60045600D01*
X64898805Y-60248800D02*
X106551195Y-60248800D01*
X64695605Y-60452000D02*
X106754395Y-60452000D01*
X64492405Y-60655200D02*
X106957595Y-60655200D01*
X64289205Y-60858400D02*
X107160795Y-60858400D01*
X64086005Y-61061600D02*
X107363995Y-61061600D01*
X63882805Y-61264800D02*
X107567195Y-61264800D01*
X63679605Y-61468000D02*
X107770395Y-61468000D01*
X63476405Y-61671200D02*
X107973595Y-61671200D01*
X63273205Y-61874400D02*
X108176795Y-61874400D01*
X63070005Y-62077600D02*
X108379995Y-62077600D01*
X62866805Y-62280800D02*
X108583195Y-62280800D01*
X62668231Y-62484000D02*
X108780552Y-62484000D01*
X62517545Y-62687200D02*
X108930766Y-62687200D01*
X62421836Y-62890400D02*
X109024696Y-62890400D01*
X62370808Y-63093600D02*
X109075598Y-63093600D01*
X62357000Y-63296800D02*
X109093000Y-63296800D01*
X62357000Y-63500000D02*
X109093000Y-63500000D01*
X62357000Y-63703200D02*
X109093000Y-63703200D01*
X62357000Y-63906400D02*
X109093000Y-63906400D01*
X62357000Y-64109600D02*
X109093000Y-64109600D01*
X62357000Y-64312800D02*
X109093000Y-64312800D01*
X62357000Y-64516000D02*
X80658061Y-64516000D01*
X93966939Y-64516000D02*
X109093000Y-64516000D01*
X62357000Y-64719200D02*
X79944956Y-64719200D01*
X94680043Y-64719200D02*
X109093000Y-64719200D01*
X62357000Y-64922400D02*
X79677995Y-64922400D01*
X94947005Y-64922400D02*
X109093000Y-64922400D01*
X62357000Y-65125600D02*
X79474795Y-65125600D01*
X95150205Y-65125600D02*
X109093000Y-65125600D01*
X62357000Y-65328800D02*
X79271595Y-65328800D01*
X95353405Y-65328800D02*
X109093000Y-65328800D01*
X62357000Y-65532000D02*
X79068395Y-65532000D01*
X95556605Y-65532000D02*
X109093000Y-65532000D01*
X62357000Y-65735200D02*
X78865195Y-65735200D01*
X95759805Y-65735200D02*
X109093000Y-65735200D01*
X62357000Y-65938400D02*
X78661995Y-65938400D01*
X95963005Y-65938400D02*
X109093000Y-65938400D01*
X62357000Y-66141600D02*
X78458795Y-66141600D01*
X96166205Y-66141600D02*
X109093000Y-66141600D01*
X62357000Y-66344800D02*
X78255595Y-66344800D01*
X96369405Y-66344800D02*
X109093000Y-66344800D01*
X62357000Y-66548000D02*
X78052395Y-66548000D01*
X96572605Y-66548000D02*
X109093000Y-66548000D01*
X62357000Y-66751200D02*
X77849195Y-66751200D01*
X96775805Y-66751200D02*
X109093000Y-66751200D01*
X62357000Y-66954400D02*
X77645995Y-66954400D01*
X96979005Y-66954400D02*
X109093000Y-66954400D01*
X62357000Y-67157600D02*
X77442795Y-67157600D01*
X97182205Y-67157600D02*
X109093000Y-67157600D01*
X62357000Y-67360800D02*
X77239595Y-67360800D01*
X97385405Y-67360800D02*
X109093000Y-67360800D01*
X62357000Y-67564000D02*
X77036395Y-67564000D01*
X97588605Y-67564000D02*
X109093000Y-67564000D01*
X62357000Y-67767200D02*
X76833195Y-67767200D01*
X97791805Y-67767200D02*
X109093000Y-67767200D01*
X62357000Y-67970400D02*
X76629995Y-67970400D01*
X97995005Y-67970400D02*
X109093000Y-67970400D01*
X62357000Y-68173600D02*
X76426795Y-68173600D01*
X98198205Y-68173600D02*
X109093000Y-68173600D01*
X62357000Y-68376800D02*
X76223595Y-68376800D01*
X98401405Y-68376800D02*
X109093000Y-68376800D01*
X62357000Y-68580000D02*
X76020395Y-68580000D01*
X98604605Y-68580000D02*
X109093000Y-68580000D01*
X62357000Y-68783200D02*
X75817195Y-68783200D01*
X98807805Y-68783200D02*
X109093000Y-68783200D01*
X62357000Y-68986400D02*
X75613995Y-68986400D01*
X99011005Y-68986400D02*
X109093000Y-68986400D01*
X62357000Y-69189600D02*
X75410795Y-69189600D01*
X99214205Y-69189600D02*
X109093000Y-69189600D01*
X62357000Y-69392800D02*
X75207595Y-69392800D01*
X99417405Y-69392800D02*
X109074873Y-69392800D01*
X62357000Y-69596000D02*
X75004395Y-69596000D01*
X99620605Y-69596000D02*
X109022466Y-69596000D01*
X62357000Y-69799200D02*
X74801195Y-69799200D01*
X99823805Y-69799200D02*
X108926837Y-69799200D01*
X62357000Y-70002400D02*
X74597995Y-70002400D01*
X100027005Y-70002400D02*
X108774521Y-70002400D01*
X62357000Y-70205600D02*
X74394795Y-70205600D01*
X100297597Y-70205600D02*
X108508453Y-70205600D01*
X62357000Y-70408800D02*
X74191595Y-70408800D01*
X62357000Y-70612000D02*
X73988395Y-70612000D01*
X62357000Y-70815200D02*
X73785195Y-70815200D01*
X62357000Y-71018400D02*
X73581995Y-71018400D01*
X62357000Y-71221600D02*
X73378795Y-71221600D01*
X62357000Y-71424800D02*
X73175595Y-71424800D01*
X62357000Y-71628000D02*
X72972395Y-71628000D01*
X62357000Y-71831200D02*
X72769195Y-71831200D01*
X62357000Y-72034400D02*
X72565995Y-72034400D01*
X62357000Y-72237600D02*
X72362795Y-72237600D01*
X62362617Y-72440800D02*
X72159595Y-72440800D01*
X62389008Y-72644000D02*
X71956395Y-72644000D01*
X62455278Y-72847200D02*
X71753195Y-72847200D01*
X62571253Y-73050400D02*
X71549995Y-73050400D01*
X62760217Y-73253600D02*
X66233425Y-73253600D01*
X67285057Y-73253600D02*
X71346795Y-73253600D01*
X63100319Y-73456800D02*
X65501993Y-73456800D01*
X67996848Y-73456800D02*
X71097421Y-73456800D01*
X109093000Y-69208761D02*
X109070435Y-69437869D01*
X109005427Y-69652172D01*
X108899858Y-69849675D01*
X108757789Y-70022789D01*
X108584675Y-70164858D01*
X108387172Y-70270427D01*
X108172869Y-70335435D01*
X107943761Y-70358000D01*
X100862290Y-70358000D01*
X100633183Y-70335435D01*
X100418879Y-70270427D01*
X100221376Y-70164858D01*
X100043417Y-70018812D01*
X94946248Y-64921643D01*
X94783316Y-64782485D01*
X94596352Y-64667914D01*
X94393767Y-64584000D01*
X94180550Y-64532812D01*
X93966939Y-64516000D01*
X80658061Y-64516000D01*
X80444450Y-64532812D01*
X80231233Y-64584000D01*
X80028648Y-64667914D01*
X79841684Y-64782485D01*
X79678752Y-64921643D01*
X71259115Y-73341280D01*
X71157453Y-73424712D01*
X71046996Y-73483753D01*
X70927143Y-73520110D01*
X70796261Y-73533000D01*
X68122858Y-73533000D01*
X68098923Y-73512916D01*
X67844580Y-73373089D01*
X67567921Y-73285328D01*
X67279485Y-73252975D01*
X67258721Y-73252830D01*
X66241279Y-73252830D01*
X65952419Y-73281153D01*
X65674563Y-73365043D01*
X65418292Y-73501305D01*
X65379429Y-73533000D01*
X63506239Y-73533000D01*
X63277131Y-73510435D01*
X63062828Y-73445427D01*
X62865325Y-73339858D01*
X62692211Y-73197789D01*
X62550142Y-73024675D01*
X62444573Y-72827172D01*
X62379565Y-72612869D01*
X62357000Y-72383761D01*
X62357000Y-63269041D01*
X62371460Y-63085308D01*
X62413316Y-62910967D01*
X62481930Y-62745318D01*
X62575611Y-62592444D01*
X62695305Y-62452300D01*
X72747240Y-52400365D01*
X72917074Y-52193422D01*
X73046227Y-51951793D01*
X73125759Y-51689609D01*
X73152000Y-51423188D01*
X73152000Y-41281239D01*
X73174565Y-41052131D01*
X73239573Y-40837828D01*
X73345142Y-40640325D01*
X73487211Y-40467211D01*
X73660325Y-40325142D01*
X73857828Y-40219573D01*
X74072131Y-40154565D01*
X74301239Y-40132000D01*
X82653959Y-40132000D01*
X82837692Y-40146460D01*
X83012033Y-40188316D01*
X83177682Y-40256930D01*
X83330556Y-40350611D01*
X83470700Y-40470305D01*
X87806752Y-44806357D01*
X87969684Y-44945515D01*
X88156648Y-45060086D01*
X88359233Y-45144000D01*
X88572450Y-45195188D01*
X88786061Y-45212000D01*
X91035959Y-45212000D01*
X91219692Y-45226460D01*
X91394033Y-45268316D01*
X91559682Y-45336930D01*
X91712556Y-45430611D01*
X91852700Y-45550305D01*
X108753812Y-62451417D01*
X108899858Y-62629376D01*
X109005427Y-62826879D01*
X109070435Y-63041183D01*
X109093000Y-63270290D01*
X109093000Y-69208761D01*
X101606239Y-71247000D02*
X104895761Y-71247000D01*
X100953070Y-71450200D02*
X105548931Y-71450200D01*
X100733789Y-71653400D02*
X105768212Y-71653400D01*
X100596009Y-71856600D02*
X105905992Y-71856600D01*
X100512124Y-72059800D02*
X105989877Y-72059800D01*
X100470123Y-72263000D02*
X106031878Y-72263000D01*
X100457000Y-72466200D02*
X106045000Y-72466200D01*
X100457000Y-72669400D02*
X106045000Y-72669400D01*
X100457000Y-72872600D02*
X106045000Y-72872600D01*
X100457000Y-73075800D02*
X106045000Y-73075800D01*
X100457000Y-73279000D02*
X104074376Y-73279000D01*
X105611505Y-73279000D02*
X106045000Y-73279000D01*
X100457000Y-73482200D02*
X103554223Y-73482200D01*
X100457000Y-73685400D02*
X103292828Y-73685400D01*
X100457000Y-73888600D02*
X103124726Y-73888600D01*
X100457000Y-74091800D02*
X103009187Y-74091800D01*
X100457000Y-74295000D02*
X102929667Y-74295000D01*
X100457000Y-74498200D02*
X102878468Y-74498200D01*
X100457000Y-74701400D02*
X102857110Y-74701400D01*
X100457000Y-74904600D02*
X102870070Y-74904600D01*
X100457000Y-75107800D02*
X102906684Y-75107800D01*
X100457000Y-75311000D02*
X102969664Y-75311000D01*
X100457000Y-75514200D02*
X103075894Y-75514200D01*
X100457000Y-75717400D02*
X103227989Y-75717400D01*
X100457000Y-75920600D02*
X103445680Y-75920600D01*
X100457000Y-76123800D02*
X103417142Y-76123800D01*
X100457000Y-76327000D02*
X103208777Y-76327000D01*
X100457000Y-76530200D02*
X103064121Y-76530200D01*
X100457000Y-76733400D02*
X102961117Y-76733400D01*
X100457000Y-76936600D02*
X102898216Y-76936600D01*
X100457000Y-77139800D02*
X102867789Y-77139800D01*
X100457000Y-77343000D02*
X102860824Y-77343000D01*
X100457000Y-77546200D02*
X102879317Y-77546200D01*
X100457000Y-77749400D02*
X102936587Y-77749400D01*
X100457000Y-77952600D02*
X103022779Y-77952600D01*
X100457000Y-78155800D02*
X103146300Y-78155800D01*
X100457000Y-78359000D02*
X103324598Y-78359000D01*
X100457000Y-78562200D02*
X103601333Y-78562200D01*
X100457000Y-78765400D02*
X104306028Y-78765400D01*
X105376773Y-78765400D02*
X106045000Y-78765400D01*
X100457000Y-78968600D02*
X106045000Y-78968600D01*
X100457000Y-79171800D02*
X106045000Y-79171800D01*
X100457000Y-79375000D02*
X106045000Y-79375000D01*
X100457000Y-79578200D02*
X106045000Y-79578200D01*
X100457000Y-79781400D02*
X106045000Y-79781400D01*
X100457000Y-79984600D02*
X106045000Y-79984600D01*
X100457000Y-80187800D02*
X106045000Y-80187800D01*
X100457000Y-80391000D02*
X106045000Y-80391000D01*
X100457000Y-80594200D02*
X106045000Y-80594200D01*
X100457000Y-80797400D02*
X106045000Y-80797400D01*
X100457000Y-81000600D02*
X106045000Y-81000600D01*
X100457000Y-81203800D02*
X106045000Y-81203800D01*
X100457000Y-81407000D02*
X106045000Y-81407000D01*
X100457000Y-81610200D02*
X106045000Y-81610200D01*
X100457000Y-81813400D02*
X106045000Y-81813400D01*
X100457000Y-82016600D02*
X106045000Y-82016600D01*
X100457000Y-82219800D02*
X106045000Y-82219800D01*
X100457000Y-82423000D02*
X106045000Y-82423000D01*
X100457000Y-82626200D02*
X106045000Y-82626200D01*
X100457000Y-82829400D02*
X106045000Y-82829400D01*
X100457000Y-83032600D02*
X106045000Y-83032600D01*
X100457000Y-83235800D02*
X106045000Y-83235800D01*
X100457000Y-83439000D02*
X104074376Y-83439000D01*
X105611505Y-83439000D02*
X106045000Y-83439000D01*
X100457000Y-83642200D02*
X103554223Y-83642200D01*
X100457000Y-83845400D02*
X103292828Y-83845400D01*
X100457000Y-84048600D02*
X103124726Y-84048600D01*
X100457000Y-84251800D02*
X103009187Y-84251800D01*
X100457000Y-84455000D02*
X102929667Y-84455000D01*
X100448332Y-84658200D02*
X102878468Y-84658200D01*
X100423239Y-84861400D02*
X102857110Y-84861400D01*
X100361600Y-85064600D02*
X102870070Y-85064600D01*
X100260892Y-85267800D02*
X102906684Y-85267800D01*
X100114912Y-85471000D02*
X102969664Y-85471000D01*
X99925405Y-85674200D02*
X103075894Y-85674200D01*
X99722205Y-85877400D02*
X103227989Y-85877400D01*
X99519005Y-86080600D02*
X103445680Y-86080600D01*
X99315805Y-86283800D02*
X103808662Y-86283800D01*
X105896148Y-86283800D02*
X106045000Y-86283800D01*
X99112605Y-86487000D02*
X106045000Y-86487000D01*
X98909405Y-86690200D02*
X106045000Y-86690200D01*
X98706205Y-86893400D02*
X106045000Y-86893400D01*
X98503005Y-87096600D02*
X106045000Y-87096600D01*
X98299805Y-87299800D02*
X106045000Y-87299800D01*
X98096605Y-87503000D02*
X106045000Y-87503000D01*
X97893405Y-87706200D02*
X106045000Y-87706200D01*
X97690205Y-87909400D02*
X106045000Y-87909400D01*
X97487005Y-88112600D02*
X106045000Y-88112600D01*
X97283805Y-88315800D02*
X106045000Y-88315800D01*
X97080605Y-88519000D02*
X104074376Y-88519000D01*
X105611505Y-88519000D02*
X106045000Y-88519000D01*
X96877405Y-88722200D02*
X103554223Y-88722200D01*
X96674205Y-88925400D02*
X103292828Y-88925400D01*
X96471005Y-89128600D02*
X103124726Y-89128600D01*
X96267805Y-89331800D02*
X103009187Y-89331800D01*
X96064605Y-89535000D02*
X102929667Y-89535000D01*
X95861405Y-89738200D02*
X102878468Y-89738200D01*
X95658205Y-89941400D02*
X102857110Y-89941400D01*
X95455005Y-90144600D02*
X102870070Y-90144600D01*
X95251805Y-90347800D02*
X102906684Y-90347800D01*
X95048605Y-90551000D02*
X102969664Y-90551000D01*
X94845405Y-90754200D02*
X103075894Y-90754200D01*
X94642205Y-90957400D02*
X103227989Y-90957400D01*
X94439005Y-91160600D02*
X103445680Y-91160600D01*
X94235805Y-91363800D02*
X103808662Y-91363800D01*
X105896148Y-91363800D02*
X106045000Y-91363800D01*
X94032605Y-91567000D02*
X106045000Y-91567000D01*
X93829405Y-91770200D02*
X106045000Y-91770200D01*
X93626205Y-91973400D02*
X106045000Y-91973400D01*
X93423005Y-92176600D02*
X106045000Y-92176600D01*
X93219805Y-92379800D02*
X106045000Y-92379800D01*
X93016605Y-92583000D02*
X106045000Y-92583000D01*
X92813405Y-92786200D02*
X106045000Y-92786200D01*
X92610205Y-92989400D02*
X106045000Y-92989400D01*
X92407005Y-93192600D02*
X106045000Y-93192600D01*
X92203805Y-93395800D02*
X106045000Y-93395800D01*
X92000605Y-93599000D02*
X106045000Y-93599000D01*
X91775564Y-93802200D02*
X106045000Y-93802200D01*
X91435037Y-94005400D02*
X106045000Y-94005400D01*
X83991586Y-94208600D02*
X106045000Y-94208600D01*
X83684268Y-94411800D02*
X106045000Y-94411800D01*
X83505409Y-94615000D02*
X106045000Y-94615000D01*
X83397944Y-94818200D02*
X106045000Y-94818200D01*
X83336304Y-95021400D02*
X106045000Y-95021400D01*
X83315117Y-95224600D02*
X106045000Y-95224600D01*
X83312000Y-95427800D02*
X106045000Y-95427800D01*
X83312000Y-95631000D02*
X106045000Y-95631000D01*
X83312000Y-95834200D02*
X106045000Y-95834200D01*
X83312000Y-96037400D02*
X106045000Y-96037400D01*
X83312000Y-96240600D02*
X106045000Y-96240600D01*
X83312000Y-96443800D02*
X106045000Y-96443800D01*
X83312000Y-96647000D02*
X106045000Y-96647000D01*
X83312000Y-96850200D02*
X106045000Y-96850200D01*
X83312000Y-97053400D02*
X106045000Y-97053400D01*
X83312000Y-97256600D02*
X106045000Y-97256600D01*
X83312000Y-97459800D02*
X106045000Y-97459800D01*
X83312000Y-97663000D02*
X106045000Y-97663000D01*
X83312000Y-97866200D02*
X106045000Y-97866200D01*
X83312000Y-98069400D02*
X106045000Y-98069400D01*
X83312000Y-98272600D02*
X106045000Y-98272600D01*
X83312000Y-98475800D02*
X106045000Y-98475800D01*
X83312000Y-98679000D02*
X104074376Y-98679000D01*
X105611505Y-98679000D02*
X106045000Y-98679000D01*
X83312000Y-98882200D02*
X103554223Y-98882200D01*
X83312000Y-99085400D02*
X103292828Y-99085400D01*
X83312000Y-99288600D02*
X103124726Y-99288600D01*
X83312000Y-99491800D02*
X103009187Y-99491800D01*
X83312000Y-99695000D02*
X102929667Y-99695000D01*
X83312000Y-99898200D02*
X102878468Y-99898200D01*
X83312000Y-100101400D02*
X102857110Y-100101400D01*
X83312000Y-100304600D02*
X102870070Y-100304600D01*
X83312000Y-100507800D02*
X102906684Y-100507800D01*
X83312000Y-100711000D02*
X102969664Y-100711000D01*
X83312000Y-100914200D02*
X103075894Y-100914200D01*
X83312000Y-101117400D02*
X103227989Y-101117400D01*
X83312000Y-101320600D02*
X103445680Y-101320600D01*
X83312000Y-101523800D02*
X103417142Y-101523800D01*
X83314392Y-101727000D02*
X103208777Y-101727000D01*
X83334405Y-101930200D02*
X103064121Y-101930200D01*
X83395714Y-102133400D02*
X102961117Y-102133400D01*
X83501387Y-102336600D02*
X102898216Y-102336600D01*
X83669405Y-102539800D02*
X102867789Y-102539800D01*
X83872605Y-102743000D02*
X102860824Y-102743000D01*
X84075805Y-102946200D02*
X102879317Y-102946200D01*
X84279005Y-103149400D02*
X102936587Y-103149400D01*
X84482205Y-103352600D02*
X103022779Y-103352600D01*
X84685405Y-103555800D02*
X103146300Y-103555800D01*
X84888605Y-103759000D02*
X103324598Y-103759000D01*
X85091805Y-103962200D02*
X103601333Y-103962200D01*
X85295005Y-104165400D02*
X104306028Y-104165400D01*
X105376773Y-104165400D02*
X106045000Y-104165400D01*
X85498205Y-104368600D02*
X106045000Y-104368600D01*
X85701405Y-104571800D02*
X106045000Y-104571800D01*
X85904605Y-104775000D02*
X106045000Y-104775000D01*
X86107805Y-104978200D02*
X106045000Y-104978200D01*
X86311005Y-105181400D02*
X106045000Y-105181400D01*
X86514205Y-105384600D02*
X106045000Y-105384600D01*
X86717405Y-105587800D02*
X106045000Y-105587800D01*
X86920605Y-105791000D02*
X106045000Y-105791000D01*
X87123805Y-105994200D02*
X106045000Y-105994200D01*
X87327005Y-106197400D02*
X106045000Y-106197400D01*
X87530205Y-106400600D02*
X106045000Y-106400600D01*
X87733405Y-106603800D02*
X106045000Y-106603800D01*
X87936605Y-106807000D02*
X106045000Y-106807000D01*
X88139805Y-107010200D02*
X106045000Y-107010200D01*
X88343005Y-107213400D02*
X106045000Y-107213400D01*
X88546205Y-107416600D02*
X106045000Y-107416600D01*
X88749405Y-107619800D02*
X106045000Y-107619800D01*
X88952605Y-107823000D02*
X106045000Y-107823000D01*
X89155805Y-108026200D02*
X106045000Y-108026200D01*
X89359005Y-108229400D02*
X106045000Y-108229400D01*
X89562205Y-108432600D02*
X106045000Y-108432600D01*
X89765405Y-108635800D02*
X106045000Y-108635800D01*
X89968605Y-108839000D02*
X104074376Y-108839000D01*
X105611505Y-108839000D02*
X106045000Y-108839000D01*
X90171805Y-109042200D02*
X103554223Y-109042200D01*
X90375005Y-109245400D02*
X103292828Y-109245400D01*
X90578205Y-109448600D02*
X103124726Y-109448600D01*
X90781405Y-109651800D02*
X103009187Y-109651800D01*
X90984605Y-109855000D02*
X102929667Y-109855000D01*
X91187805Y-110058200D02*
X102878468Y-110058200D01*
X91391005Y-110261400D02*
X102857110Y-110261400D01*
X91594205Y-110464600D02*
X102870070Y-110464600D01*
X91797405Y-110667800D02*
X102906684Y-110667800D01*
X92000605Y-110871000D02*
X102969664Y-110871000D01*
X92203805Y-111074200D02*
X103075894Y-111074200D01*
X92407005Y-111277400D02*
X103227989Y-111277400D01*
X92610205Y-111480600D02*
X103445680Y-111480600D01*
X92813405Y-111683800D02*
X103417142Y-111683800D01*
X93016605Y-111887000D02*
X103208777Y-111887000D01*
X93219805Y-112090200D02*
X103064121Y-112090200D01*
X93423005Y-112293400D02*
X102961117Y-112293400D01*
X93626205Y-112496600D02*
X102898216Y-112496600D01*
X93829405Y-112699800D02*
X102867789Y-112699800D01*
X94032605Y-112903000D02*
X102860824Y-112903000D01*
X94235805Y-113106200D02*
X102879317Y-113106200D01*
X94439005Y-113309400D02*
X102936587Y-113309400D01*
X94642205Y-113512600D02*
X103022779Y-113512600D01*
X94845405Y-113715800D02*
X103146300Y-113715800D01*
X95048605Y-113919000D02*
X103324598Y-113919000D01*
X95251805Y-114122200D02*
X103601333Y-114122200D01*
X95455005Y-114325400D02*
X104306028Y-114325400D01*
X105376773Y-114325400D02*
X106045000Y-114325400D01*
X95658205Y-114528600D02*
X106045000Y-114528600D01*
X95861405Y-114731800D02*
X106045000Y-114731800D01*
X96064605Y-114935000D02*
X106045000Y-114935000D01*
X96267805Y-115138200D02*
X106045000Y-115138200D01*
X96471005Y-115341400D02*
X106045000Y-115341400D01*
X99067485Y-115544600D02*
X106045000Y-115544600D01*
X99401934Y-115747800D02*
X106026873Y-115747800D01*
X99605290Y-115951000D02*
X105974466Y-115951000D01*
X99808490Y-116154200D02*
X105878837Y-116154200D01*
X100011690Y-116357400D02*
X105726521Y-116357400D01*
X100214890Y-116560600D02*
X105460453Y-116560600D01*
X106045000Y-115563761D02*
X106022435Y-115792869D01*
X105957427Y-116007172D01*
X105851858Y-116204675D01*
X105709789Y-116377789D01*
X105536675Y-116519858D01*
X105339172Y-116625427D01*
X105124869Y-116690435D01*
X104895761Y-116713000D01*
X100367290Y-116713000D01*
X99402803Y-115748513D01*
X99341199Y-115697911D01*
X99280052Y-115646602D01*
X99276070Y-115644413D01*
X99272563Y-115641532D01*
X99202258Y-115603835D01*
X99132354Y-115565405D01*
X99128026Y-115564032D01*
X99124024Y-115561886D01*
X99047730Y-115538560D01*
X98971699Y-115514442D01*
X98967185Y-115513935D01*
X98962843Y-115512608D01*
X98883523Y-115504551D01*
X98804204Y-115495654D01*
X98795318Y-115495592D01*
X98795160Y-115495576D01*
X98795012Y-115495589D01*
X98792146Y-115495570D01*
X96625175Y-115495570D01*
X83651188Y-102521583D01*
X83505142Y-102343624D01*
X83399573Y-102146121D01*
X83334565Y-101931817D01*
X83312000Y-101702710D01*
X83312000Y-95256239D01*
X83334565Y-95027131D01*
X83399573Y-94812828D01*
X83505142Y-94615325D01*
X83647211Y-94442211D01*
X83820325Y-94300142D01*
X84017828Y-94194573D01*
X84232131Y-94129565D01*
X84461239Y-94107000D01*
X90920188Y-94107000D01*
X91186609Y-94080759D01*
X91448793Y-94001227D01*
X91690422Y-93872074D01*
X91897365Y-93702240D01*
X100052240Y-85547365D01*
X100222074Y-85340422D01*
X100351227Y-85098793D01*
X100430759Y-84836609D01*
X100457000Y-84570188D01*
X100457000Y-72396239D01*
X100479565Y-72167131D01*
X100544573Y-71952828D01*
X100650142Y-71755325D01*
X100792211Y-71582211D01*
X100965325Y-71440142D01*
X101162828Y-71334573D01*
X101377131Y-71269565D01*
X101606239Y-71247000D01*
X104895761Y-71247000D01*
X105124869Y-71269565D01*
X105339172Y-71334573D01*
X105536675Y-71440142D01*
X105709789Y-71582211D01*
X105851858Y-71755325D01*
X105957427Y-71952828D01*
X106022435Y-72167131D01*
X106045000Y-72396239D01*
X106045000Y-73428295D01*
X105944580Y-73373089D01*
X105667921Y-73285328D01*
X105379485Y-73252975D01*
X105358721Y-73252830D01*
X104341279Y-73252830D01*
X104052419Y-73281153D01*
X103774563Y-73365043D01*
X103518292Y-73501305D01*
X103293368Y-73684748D01*
X103108359Y-73908385D01*
X102970312Y-74163698D01*
X102884484Y-74440963D01*
X102854145Y-74729618D01*
X102880451Y-75018668D01*
X102962399Y-75297104D01*
X103096868Y-75554320D01*
X103278737Y-75780518D01*
X103501077Y-75967084D01*
X103578170Y-76009466D01*
X103518292Y-76041305D01*
X103293368Y-76224748D01*
X103108359Y-76448385D01*
X102970312Y-76703698D01*
X102884484Y-76980963D01*
X102854145Y-77269618D01*
X102880451Y-77558668D01*
X102962399Y-77837104D01*
X103096868Y-78094320D01*
X103278737Y-78320518D01*
X103501077Y-78507084D01*
X103755420Y-78646911D01*
X104032079Y-78734672D01*
X104320515Y-78767025D01*
X104341279Y-78767170D01*
X105358721Y-78767170D01*
X105647581Y-78738847D01*
X105925437Y-78654957D01*
X106045000Y-78591384D01*
X106045000Y-83588295D01*
X105944580Y-83533089D01*
X105667921Y-83445328D01*
X105379485Y-83412975D01*
X105358721Y-83412830D01*
X104341279Y-83412830D01*
X104052419Y-83441153D01*
X103774563Y-83525043D01*
X103518292Y-83661305D01*
X103293368Y-83844748D01*
X103108359Y-84068385D01*
X102970312Y-84323698D01*
X102884484Y-84600963D01*
X102854145Y-84889618D01*
X102880451Y-85178668D01*
X102962399Y-85457104D01*
X103096868Y-85714320D01*
X103278737Y-85940518D01*
X103501077Y-86127084D01*
X103755420Y-86266911D01*
X104032079Y-86354672D01*
X104320515Y-86387025D01*
X104341279Y-86387170D01*
X105358721Y-86387170D01*
X105647581Y-86358847D01*
X105925437Y-86274957D01*
X106045000Y-86211384D01*
X106045000Y-88668295D01*
X105944580Y-88613089D01*
X105667921Y-88525328D01*
X105379485Y-88492975D01*
X105358721Y-88492830D01*
X104341279Y-88492830D01*
X104052419Y-88521153D01*
X103774563Y-88605043D01*
X103518292Y-88741305D01*
X103293368Y-88924748D01*
X103108359Y-89148385D01*
X102970312Y-89403698D01*
X102884484Y-89680963D01*
X102854145Y-89969618D01*
X102880451Y-90258668D01*
X102962399Y-90537104D01*
X103096868Y-90794320D01*
X103278737Y-91020518D01*
X103501077Y-91207084D01*
X103755420Y-91346911D01*
X104032079Y-91434672D01*
X104320515Y-91467025D01*
X104341279Y-91467170D01*
X105358721Y-91467170D01*
X105647581Y-91438847D01*
X105925437Y-91354957D01*
X106045000Y-91291384D01*
X106045000Y-98828295D01*
X105944580Y-98773089D01*
X105667921Y-98685328D01*
X105379485Y-98652975D01*
X105358721Y-98652830D01*
X104341279Y-98652830D01*
X104052419Y-98681153D01*
X103774563Y-98765043D01*
X103518292Y-98901305D01*
X103293368Y-99084748D01*
X103108359Y-99308385D01*
X102970312Y-99563698D01*
X102884484Y-99840963D01*
X102854145Y-100129618D01*
X102880451Y-100418668D01*
X102962399Y-100697104D01*
X103096868Y-100954320D01*
X103278737Y-101180518D01*
X103501077Y-101367084D01*
X103578170Y-101409466D01*
X103518292Y-101441305D01*
X103293368Y-101624748D01*
X103108359Y-101848385D01*
X102970312Y-102103698D01*
X102884484Y-102380963D01*
X102854145Y-102669618D01*
X102880451Y-102958668D01*
X102962399Y-103237104D01*
X103096868Y-103494320D01*
X103278737Y-103720518D01*
X103501077Y-103907084D01*
X103755420Y-104046911D01*
X104032079Y-104134672D01*
X104320515Y-104167025D01*
X104341279Y-104167170D01*
X105358721Y-104167170D01*
X105647581Y-104138847D01*
X105925437Y-104054957D01*
X106045000Y-103991384D01*
X106045000Y-108988295D01*
X105944580Y-108933089D01*
X105667921Y-108845328D01*
X105379485Y-108812975D01*
X105358721Y-108812830D01*
X104341279Y-108812830D01*
X104052419Y-108841153D01*
X103774563Y-108925043D01*
X103518292Y-109061305D01*
X103293368Y-109244748D01*
X103108359Y-109468385D01*
X102970312Y-109723698D01*
X102884484Y-110000963D01*
X102854145Y-110289618D01*
X102880451Y-110578668D01*
X102962399Y-110857104D01*
X103096868Y-111114320D01*
X103278737Y-111340518D01*
X103501077Y-111527084D01*
X103578170Y-111569466D01*
X103518292Y-111601305D01*
X103293368Y-111784748D01*
X103108359Y-112008385D01*
X102970312Y-112263698D01*
X102884484Y-112540963D01*
X102854145Y-112829618D01*
X102880451Y-113118668D01*
X102962399Y-113397104D01*
X103096868Y-113654320D01*
X103278737Y-113880518D01*
X103501077Y-114067084D01*
X103755420Y-114206911D01*
X104032079Y-114294672D01*
X104320515Y-114327025D01*
X104341279Y-114327170D01*
X105358721Y-114327170D01*
X105647581Y-114298847D01*
X105925437Y-114214957D01*
X106045000Y-114151384D01*
X106045000Y-115563761D01*
M02*
