M48
;DRILL file {kicad 0.201502111101+5414~21~ubuntu14.04.1-product} date Fri 13 Feb 2015 01:12:39 AM CST
;FORMAT={-:-/ absolute / inch / decimal}
FMAT,2
INCH,TZ
T1C0.010
T2C0.015
T3C0.030
T4C0.039
T5C0.043
T6C0.047
T7C0.055
T8C0.150
%
G90
G05
M72
T1
X1.87Y-3.08
X3.66Y-4.675
T2
X1.65Y-3.54
X1.895Y-3.405
X1.93Y-3.48
X1.93Y-3.765
X1.975Y-3.765
X5.095Y-3.315
T3
X2.5Y-2.65
X2.5Y-2.75
X2.5Y-2.85
X2.625Y-2.65
X2.625Y-2.75
X2.75Y-2.65
X2.75Y-2.75
X2.75Y-2.85
X4.Y-2.525
X4.Y-2.625
X4.Y-2.725
X4.125Y-2.625
X4.125Y-2.725
X4.25Y-2.525
X4.25Y-2.625
X4.25Y-2.725
T4
X2.628Y-2.8425
X2.628Y-2.9425
X2.628Y-3.0425
X2.628Y-3.3425
X2.628Y-3.4425
X2.628Y-3.5425
X2.628Y-3.8425
X2.628Y-3.9425
X2.628Y-4.0425
X2.628Y-4.3425
X2.628Y-4.4425
X2.628Y-4.5425
X4.128Y-2.8425
X4.128Y-2.9425
X4.128Y-3.0425
X4.128Y-3.3425
X4.128Y-3.4425
X4.128Y-3.5425
X4.128Y-3.8425
X4.128Y-3.9425
X4.128Y-4.0425
X4.128Y-4.3425
X4.128Y-4.4425
X4.128Y-4.5425
T5
X2.9Y-4.9
X3.0378Y-4.9
X3.1756Y-4.9
X3.3134Y-4.9
X3.4512Y-4.9
X3.589Y-4.9
X3.7268Y-4.9
X3.8646Y-4.9
T6
X2.67Y-2.15
X2.67Y-2.45
X3.3742Y-2.35
X3.3742Y-2.65
X4.09Y-2.15
X4.09Y-2.45
T7
X2.9807Y-1.6732
X3.1807Y-1.6732
X3.376Y-3.0925
X3.376Y-3.2925
X3.376Y-3.7925
X3.376Y-3.9925
X3.5713Y-1.6732
X3.7713Y-1.6732
T8
X1.9685Y-1.9685
X1.9685Y-4.7835
X4.7835Y-1.9685
X4.7835Y-4.7835
T0
M30
